Multivers-Regular.sfdir
StartChar: exclam
Encoding: 33 33 341
Width: 295
Flags: HW
HStem: 0 104<96 201>
VStem: 96 105<0 104> 104 87<446 758> 116 62<214 526>
LayerCount: 3
Fore
SplineSet
116 214 m 1x90
 104 758 l 1
 191 758 l 1xa0
 179 214 l 1
 116 214 l 1x90
96 0 m 1xc0
 96 104 l 1
 201 104 l 1
 201 0 l 1
 96 0 l 1xc0
EndSplineSet
Substitution2: "'ss01' Style Set 1 in Latin lookup 22 subtable" exclam.ss01
Substitution2: "'case' Case-Sensitive Forms in Latin lookup 20 subtable" exclam.case
AlternateSubs2: "'aalt' Access All Alternates in Latin lookup 1 subtable" exclam.case exclam.ss01
EndChar
StartChar: numbersign
Encoding: 35 35 356
Width: 683
Flags: HW
HStem: 0 21G<149 218.797 370 440.768> 220 66<45 616> 432 66<70 641> 688 20G<244.232 315 466.203 536>
LayerCount: 3
Fore
SplineSet
149 0 m 1
 247 708 l 1
 315 708 l 1
 216 0 l 1
 149 0 l 1
370 0 m 1
 469 708 l 1
 536 708 l 1
 438 0 l 1
 370 0 l 1
70 498 m 1
 641 498 l 1
 641 432 l 1
 70 432 l 1
 70 498 l 1
45 286 m 1
 616 286 l 1
 616 220 l 1
 45 220 l 1
 45 286 l 1
EndSplineSet
Validated: 5
EndChar
StartChar: dollar
Encoding: 36 36 430
Width: 584
GlyphClass: 2
Flags: HW
HStem: -9 75<216.988 386.549> 505 21G<419 509> 645 75<221.761 380.858>
VStem: 83 91<105.236 227> 108 85<463.208 616.183> 268 63<-108 344 380 817> 419 86<505 609.556> 429 84<106.92 261.241>
AnchorPoint: "Anchor-2" 302 0 basechar 0
AnchorPoint: "Anchor-0" 302 708 basechar 0
LayerCount: 3
Fore
SplineSet
296 -9 m 4xed
 145 -9 59 87 83 227 c 5
 174 227 l 5
 162 179 166 140 187 112 c 4
 195 101 206 93 218 86 c 4
 241 74 269 66 304 66 c 4
 388 66 429 105 429 183 c 4xf5
 429 245 404 284 350 304 c 6
 251 340 l 6
 157 375 108 440 108 533 c 4
 108 647 184 720 305 720 c 4
 377 720 438 695 473 650 c 4
 502 613 513 563 505 505 c 5
 419 505 l 5xee
 436 593 391 645 296 645 c 4
 223 645 193 615 193 543 c 4
 193 478 216 442 275 419 c 6
 380 379 l 6
 466 345 513 277 513 188 c 4
 513 68 428 -9 296 -9 c 4xed
268 380 m 1
 268 817 l 1
 331 817 l 1
 331 380 l 1
 268 380 l 1
331 344 m 1
 331 231 l 0
 331 -108 l 1
 268 -108 l 1
 268 344 l 1
 331 344 l 1
EndSplineSet
Validated: 37
Substitution2: "'ss12' Style Set 12 in Latin lookup 33 subtable" dollar.ss12
Substitution2: "'aalt' Access All Alternates in Latin lookup 0 subtable" dollar.ss12
EndChar
StartChar: percent
Encoding: 37 37 436
Width: 786
Flags: HW
HStem: -10 56<531 643> 0 22G<83 182> 309 57<530 643> 373 55<143 255> 691 57<143 256> 716 21G<610 709>
VStem: 38 70<466 654> 292 71<468 653> 425 72<82 274> 680 71<86 269>
LayerCount: 3
Fore
SplineSet
83 0 m 1x77c0
 626 737 l 1
 709 737 l 1
 167 0 l 1
 83 0 l 1x77c0
587 -10 m 0xb3c0
 559 -10 533 -4 508 10 c 0
 483 24 463 44 448 72 c 0
 433 100 425 135 425 178 c 0
 425 220 433 255 448 283 c 0
 463 311 482 331 507 345 c 0
 532 359 558 366 587 366 c 0
 617 366 644 359 669 345 c 0
 694 331 714 311 729 283 c 0
 744 255 750 220 750 178 c 0
 750 135 743 100 728 72 c 0
 713 44 692 24 667 10 c 0
 642 -4 616 -10 587 -10 c 0xb3c0
587 46 m 256
 614 46 637 57 654 80 c 0
 671 103 680 136 680 179 c 0
 680 221 671 252 654 275 c 0
 637 298 614 309 587 309 c 256
 560 309 536 298 520 276 c 0
 504 254 497 221 497 179 c 0
 497 135 504 103 520 80 c 0
 536 57 560 46 587 46 c 256
200 373 m 256
 171 373 145 381 120 393 c 0
 95 405 74 427 59 455 c 0
 44 483 38 518 38 560 c 0
 38 603 44 639 59 666 c 0
 74 693 94 713 119 727 c 0
 144 741 171 748 200 748 c 0x3bc0
 230 748 257 741 282 727 c 0
 307 713 325 693 340 666 c 0
 355 639 362 603 362 560 c 0
 362 518 354 483 339 455 c 0
 324 427 305 405 280 393 c 0
 255 381 229 373 200 373 c 256
200 428 m 0
 227 428 249 439 266 462 c 0
 283 485 292 518 292 561 c 0
 292 603 283 636 266 658 c 0
 249 680 227 691 200 691 c 256
 173 691 149 680 132 658 c 0
 115 636 107 604 107 561 c 256
 107 518 115 485 132 462 c 0
 149 439 173 428 200 428 c 0
EndSplineSet
Substitution2: "'tnum' Tabular Numbers in Latin lookup 19 subtable" percent.tf
Substitution2: "'aalt' Access All Alternates in Latin lookup 0 subtable" percent.tf
EndChar
StartChar: ampersand
Encoding: 38 38 419
Width: 768
Flags: HW
HStem: 0 67<219 540> 353 68<265 726> 378 21<162 257> 675 72<243 480>
VStem: 61 97<125 289> 91 96<474 624> 499 83<67 559> 499 42<0 67>
LayerCount: 3
Fore
SplineSet
482 663 m 1xb4
 447 675 407 675 350 675 c 4
 313 675 187 676 187 551 c 4xb4
 187 527 194 420 320 420 c 6
 726 420 l 1
 726 353 l 1
 299 353 l 2
 195 353 158 269 158 206 c 0
 158 129 210 67 292 67 c 2
 540 67 l 1
 540 0 l 1
 282 0 l 2
 166 0 61 66 61 198 c 0xd9
 61 309 139 399 257 399 c 1
 262 378 l 1
 163 378 91 457 91 558 c 0
 91 620 119 747 344 747 c 0
 370 747 432 746 482 729 c 1
 482 663 l 1xb4
499 0 m 1x91
 499 559 l 1
 582 612 l 1
 582 0 l 1x92
 499 0 l 1x91
EndSplineSet
EndChar
StartChar: quotesingle
Encoding: 39 39 411
Width: 274
Flags: HW
HStem: 521 208<93 163>
VStem: 93 70<521 592.635>
LayerCount: 3
Fore
SplineSet
163 521 m 5
 93 521 l 5
 78 729 l 5
 183 729 l 5
 163 521 l 5
EndSplineSet
Validated: 1
EndChar
StartChar: parenleft
Encoding: 40 40 380
Width: 438
Flags: HW
VStem: 96 75<171 483>
LayerCount: 3
Fore
SplineSet
297 -113 m 1
 229 -48 177 22 145 97 c 0
 113 172 96 249 96 328 c 0
 96 405 112 481 145 557 c 0
 178 633 229 703 297 768 c 1
 374 768 l 1
 306 703 255 634 222 561 c 0
 189 488 171 410 171 328 c 0
 171 245 188 167 222 94 c 0
 256 21 308 -48 374 -113 c 1
 297 -113 l 1
EndSplineSet
Substitution2: "'case' Case-Sensitive Forms in Latin lookup 20 subtable" parenleft.case
Substitution2: "'aalt' Access All Alternates in Latin lookup 0 subtable" parenleft.case
EndChar
StartChar: parenright
Encoding: 41 41 381
Width: 438
Flags: HW
VStem: 268 75<176 487>
LayerCount: 3
Fore
SplineSet
143 772 m 1
 211 707 262 638 294 563 c 0
 326 488 343 411 343 332 c 0
 343 255 327 178 294 102 c 0
 261 26 211 -44 143 -109 c 1
 66 -109 l 1
 134 -44 185 24 218 98 c 0
 251 172 268 250 268 332 c 0
 268 415 250 493 216 566 c 0
 182 639 132 707 66 772 c 1
 143 772 l 1
EndSplineSet
Substitution2: "'case' Case-Sensitive Forms in Latin lookup 20 subtable" parenright.case
Substitution2: "'aalt' Access All Alternates in Latin lookup 0 subtable" parenright.case
EndChar
StartChar: asterisk
Encoding: 42 42 347
Width: 446
Flags: HW
HStem: 447 310
VStem: 67 313
LayerCount: 3
Fore
SplineSet
187 447 m 1
 209 577 l 1
 103 495 l 1
 67 556 l 1
 191 601 l 1
 67 649 l 1
 103 712 l 1
 209 630 l 1
 187 758 l 1
 260 758 l 1
 239 630 l 1
 344 712 l 1
 380 649 l 1
 256 601 l 1
 380 556 l 1
 344 495 l 1
 239 577 l 1
 260 447 l 1
 187 447 l 1
EndSplineSet
Validated: 1
EndChar
StartChar: plus
Encoding: 43 43 436
Width: 533
Flags: HW
HStem: 332 66<65 470>
VStem: 234 67<151 580>
LayerCount: 3
Fore
SplineSet
234 151 m 1
 234 580 l 1
 301 580 l 1
 301 151 l 1
 234 151 l 1
65 332 m 1
 65 398 l 1
 470 398 l 1
 470 332 l 1
 65 332 l 1
EndSplineSet
Validated: 5
Substitution2: "'tnum' Tabular Numbers in Latin lookup 19 subtable" plus.tf
Substitution2: "'aalt' Access All Alternates in Latin lookup 0 subtable" plus.tf
EndChar
StartChar: comma
Encoding: 44 44 337
Width: 275
Flags: HW
HStem: -113 217<103 125>
VStem: 52 159
LayerCount: 3
Fore
SplineSet
125 -113 m 5
 52 -113 l 5
 103 104 l 5
 211 104 l 5
 125 -113 l 5
EndSplineSet
Substitution2: "'ss01' Style Set 1 in Latin lookup 22 subtable" comma.ss01
Substitution2: "'aalt' Access All Alternates in Latin lookup 0 subtable" comma.ss01
EndChar
StartChar: hyphen
Encoding: 45 45 373
Width: 493
Flags: HW
HStem: 241 76<96 397>
VStem: 96 301<241 317>
LayerCount: 3
Fore
SplineSet
96 241 m 1
 96 317 l 1
 397 317 l 1
 397 241 l 1
 96 241 l 1
EndSplineSet
Substitution2: "'case' Case-Sensitive Forms in Latin lookup 20 subtable" hyphen.case
Substitution2: "'aalt' Access All Alternates in Latin lookup 0 subtable" hyphen.case
EndChar
StartChar: period
Encoding: 46 46 344
Width: 257
Flags: HW
HStem: 0 100<79 179>
VStem: 79 100<0 100>
LayerCount: 3
Fore
SplineSet
79 0 m 1
 79 100 l 1
 179 100 l 1
 179 0 l 1
 79 0 l 1
EndSplineSet
Validated: 1
Substitution2: "'ss01' Style Set 1 in Latin lookup 22 subtable" period.ss01
Substitution2: "'aalt' Access All Alternates in Latin lookup 0 subtable" period.ss01
EndChar
StartChar: slash
Encoding: 47 47 357
Width: 425
Flags: HW
VStem: 58 310
LayerCount: 3
Fore
SplineSet
58 -59 m 5
 290 738 l 5
 368 738 l 5
 135 -59 l 5
 58 -59 l 5
EndSplineSet
Validated: 1
EndChar
StartChar: zero
Encoding: 48 48 319
Width: 640
Flags: HW
HStem: -10 75<243.643 396.33> 644 75<244.413 400.331>
VStem: 54 98<201.886 504.685> 491 97<200.577 512.092>
LayerCount: 3
Fore
SplineSet
321 -10 m 0
 158 -10 54 141 54 357 c 256
 54 399 63 719 321 719 c 0
 485 719 588 569 588 357 c 0
 588 145 487 -10 321 -10 c 0
321 65 m 260
 433 65 491 167 491 358 c 0
 491 465 480 644 321 644 c 0
 210 644 152 551 152 358 c 0
 152 273 158 65 321 65 c 260
EndSplineSet
Validated: 1
Substitution2: "'tnum' Tabular Numbers in Latin lookup 19 subtable" zero.tf
Substitution2: "'aalt' Access All Alternates in Latin lookup 0 subtable" zero.tf
EndChar
StartChar: one
Encoding: 49 49 312
Width: 386
Flags: HW
HStem: 0 22G<222 312> 527 22G<67 155> 716 21G<212 312>
VStem: 222 91<0 648>
LayerCount: 3
Fore
SplineSet
222 0 m 1
 222 654 l 1
 243 648 l 1
 243 648 243 648 67 527 c 1
 67 617 l 1
 243 737 l 1
 312 737 l 5
 312 0 l 5
 222 0 l 1
EndSplineSet
Substitution2: "'tnum' Tabular Numbers in Latin lookup 19 subtable" one.tf
Substitution2: "'aalt' Access All Alternates in Latin lookup 0 subtable" one.tf
EndChar
StartChar: two
Encoding: 50 50 313
Width: 557
Flags: HW
HStem: 0 83<145 520> 524 22G<44 146> 675 73<204 367>
VStem: 44 97<524 605> 420 96<448 623>
LayerCount: 3
Fore
SplineSet
51 0 m 1
 51 71 l 1
 121 132 180 185 227 231 c 0
 274 277 312 318 341 355 c 0
 370 392 390 425 402 455 c 0
 414 485 420 514 420 543 c 0
 420 585 409 617 385 640 c 0
 361 663 328 675 285 675 c 0
 196 675 151 621 140 524 c 1
 44 524 l 1
 50 591 74 645 117 686 c 0
 160 727 219 748 291 748 c 0
 333 748 516 735 516 544 c 4
 516 410 430 288 145 44 c 5
 116 83 l 1
 520 83 l 1
 520 0 l 1
 51 0 l 1
EndSplineSet
Substitution2: "'ss10' Style Set 10 in Latin lookup 31 subtable" two.ss10
Substitution2: "'tnum' Tabular Numbers in Latin lookup 19 subtable" two.tf
AlternateSubs2: "'aalt' Access All Alternates in Latin lookup 1 subtable" two.ss10 two.tf
EndChar
StartChar: three
Encoding: 51 51 314
Width: 579
Flags: HW
HStem: -10 78<223 387> 351 71<215 329> 378 21<338 444> 670 78<210 380>
VStem: 47 96<152 222> 57 97<534 613> 428 98<472 623> 443 100<120 288>
LayerCount: 3
Fore
SplineSet
299 -10 m 0xb1
 251 -10 210 -1 174 17 c 0
 138 35 108 61 86 96 c 0
 64 131 52 173 47 222 c 1
 143 222 l 1
 150 162 191 72 300 68 c 0
 388 65 443 114 443 201 c 0xb9
 443 245 431 281 406 309 c 0
 381 337 346 351 304 351 c 2
 215 351 l 1
 215 421 l 1
 301 421 l 2
 380 421 428 472 428 549 c 0
 428 580 418 670 296 670 c 256
 168 670 159 577 154 534 c 1
 57 534 l 1
 60 578 73 615 94 647 c 0
 115 679 143 703 178 721 c 0
 213 739 254 748 298 748 c 0
 422 748 525 678 525 555 c 0xd6
 525 452 444 378 338 378 c 1
 332 399 l 1
 454 399 543 317 543 198 c 0
 543 80 444 -10 299 -10 c 0xb1
EndSplineSet
Substitution2: "'tnum' Tabular Numbers in Latin lookup 19 subtable" three.tf
Substitution2: "'aalt' Access All Alternates in Latin lookup 0 subtable" three.tf
EndChar
StartChar: four
Encoding: 52 52 323
Width: 579
Flags: HW
HStem: 0 21G<374 463> 154 73<117 374 376 555> 688 20G<363.008 463>
VStem: 376 87<0 206>
LayerCount: 3
Fore
SplineSet
374 0 m 1
 374 186 l 1
 376 206 l 1
 376 606 l 1
 400 606 l 1
 117 201 l 1
 91 227 l 1
 555 227 l 1
 555 154 l 1
 37 154 l 1
 37 222 l 1
 377 708 l 1
 463 708 l 5
 463 0 l 5
 374 0 l 1
EndSplineSet
Validated: 5
Substitution2: "'tnum' Tabular Numbers in Latin lookup 19 subtable" four.tf
Substitution2: "'aalt' Access All Alternates in Latin lookup 0 subtable" four.tf
EndChar
StartChar: five
Encoding: 53 53 316
Width: 592
Flags: HW
HStem: -10 70<230 378> 413 66<215 380> 666 71<205 501>
VStem: 57 98<139 203> 451 93<133 338>
LayerCount: 3
Fore
SplineSet
302 -10 m 0
 231 -10 175 10 133 49 c 0
 91 88 65 140 57 203 c 1
 155 203 l 1
 163 158 180 123 208 99 c 0
 236 75 259 59 299 59 c 4
 341 59 379 76 408 103 c 0
 437 130 451 174 451 234 c 256
 451 294 437 340 408 369 c 0
 379 398 342 413 296 413 c 0
 264 413 236 406 212 392 c 0
 188 378 173 362 165 344 c 1
 91 344 l 1
 124 737 l 1
 501 737 l 1
 501 666 l 1
 174 666 l 1
 205 694 l 1
 183 401 l 1
 160 407 l 1
 172 427 191 444 217 458 c 0
 243 472 274 479 313 479 c 0
 436 479 544 398 544 234 c 256
 544 182 524 -10 302 -10 c 0
EndSplineSet
Validated: 5
Substitution2: "'tnum' Tabular Numbers in Latin lookup 19 subtable" five.tf
Substitution2: "'aalt' Access All Alternates in Latin lookup 0 subtable" five.tf
EndChar
StartChar: six
Encoding: 54 54 317
Width: 615
Flags: HW
HStem: -10 76<242 409> 388 76<240 410> 675 73<249 410>
VStem: 62 104<183 450> 455 97<555 632> 474 91<131 320>
LayerCount: 3
Fore
SplineSet
322 -10 m 4xf4
 238 -10 175 21 130 84 c 4
 85 147 62 238 62 358 c 4
 62 441 72 512 93 570 c 4
 114 628 146 672 186 702 c 4
 226 732 275 748 331 748 c 4
 393 748 530 730 551 555 c 5
 455 555 l 5xf8
 451 581 455 675 329 675 c 4
 189 675 153 533 153 300 c 5
 130 308 l 5
 136 339 148 367 168 390 c 4
 188 413 214 432 244 444 c 4
 274 456 306 464 341 464 c 4
 386 464 426 454 459 434 c 4
 492 414 518 385 537 350 c 4
 556 315 565 273 565 225 c 4
 565 178 555 136 535 101 c 4
 515 66 485 38 449 19 c 4
 413 0 370 -10 322 -10 c 4xf4
325 66 m 4
 349 66 474 70 474 226 c 4xf4
 474 269 462 388 323 388 c 4
 302 388 166 387 166 234 c 4
 166 127 236 66 325 66 c 4
EndSplineSet
Substitution2: "'tnum' Tabular Numbers in Latin lookup 19 subtable" six.tf
Substitution2: "'aalt' Access All Alternates in Latin lookup 0 subtable" six.tf
EndChar
StartChar: seven
Encoding: 55 55 318
Width: 561
Flags: HW
HStem: 0 22G<174 283> 660 77<87 442>
LayerCount: 3
Fore
SplineSet
174 0 m 5
 174 0 175 0 442 695 c 5
 460 660 l 1
 87 660 l 1
 87 737 l 1
 523 737 l 1
 523 679 l 1
 275 0 l 1
 174 0 l 5
EndSplineSet
Substitution2: "'tnum' Tabular Numbers in Latin lookup 19 subtable" seven.tf
Substitution2: "'aalt' Access All Alternates in Latin lookup 0 subtable" seven.tf
EndChar
StartChar: eight
Encoding: 56 56 319
Width: 598
Flags: HW
HStem: -10 74<211 387> 351 71<238 361> 378 21<206 234 366 394> 675 73<221 377>
VStem: 56 91<128 284> 74 88<474 618> 437 88<473 618> 452 93<128 284>
LayerCount: 3
Fore
SplineSet
299 -10 m 256xb1
 249 -10 207 -1 168 18 c 0
 133 36 106 61 86 93 c 0
 66 125 56 160 56 201 c 0xb9
 56 237 64 271 80 302 c 0
 95 332 116 355 143 372 c 0
 171 390 201 399 234 399 c 1
 237 378 l 1
 206 378 178 386 153 401 c 0
 128 416 108 438 94 465 c 0
 80 492 74 521 74 553 c 0
 74 592 84 625 103 655 c 0
 122 684 148 707 182 723 c 0
 217 740 256 748 301 748 c 256
 346 748 386 740 420 723 c 0
 453 707 478 684 497 655 c 0
 516 625 525 593 525 554 c 0xb6
 525 522 518 492 504 465 c 0
 490 439 472 417 448 402 c 0
 423 386 394 378 362 378 c 1
 366 399 l 1
 399 399 429 390 457 372 c 0
 483 355 504 331 520 302 c 0
 537 271 545 238 545 201 c 0
 545 160 535 125 515 93 c 0
 495 61 467 36 431 18 c 0
 392 -1 349 -10 299 -10 c 256xb1
298 63 m 260
 397 63 452 127 452 207 c 0
 452 247 437 283 410 310 c 0
 382 338 345 351 299 351 c 256xd9
 253 351 217 338 189 310 c 0
 162 283 146 247 146 207 c 0
 146 127 201 63 298 63 c 260
299 421 m 0
 341 421 375 432 400 456 c 0
 423 479 437 510 437 547 c 0
 437 582 424 612 399 636 c 0
 372 662 337 675 298 675 c 256
 259 675 227 662 200 636 c 0
 175 612 162 582 162 547 c 0xd6
 162 511 176 479 200 456 c 0
 225 432 257 421 299 421 c 0
EndSplineSet
Substitution2: "'tnum' Tabular Numbers in Latin lookup 19 subtable" eight.tf
Substitution2: "'aalt' Access All Alternates in Latin lookup 0 subtable" eight.tf
EndChar
StartChar: nine
Encoding: 57 57 320
Width: 629
Flags: HW
HStem: -10 73<222 385> 273 76<225 392> 672 76<226 392>
VStem: 69 91<417 606> 83 93<111 182> 469 103<288 558>
LayerCount: 3
Fore
SplineSet
312 748 m 0xf4
 396 748 460 715 505 652 c 0
 550 589 572 499 572 379 c 0
 572 296 561 225 540 167 c 0
 519 109 488 65 448 35 c 0
 408 5 359 -10 303 -10 c 0
 241 -10 104 7 83 182 c 1
 175 182 l 5
 179 156 179 62 305 62 c 0
 445 62 481 204 481 437 c 1
 505 429 l 1
 499 398 485 370 465 347 c 0
 445 324 420 305 390 293 c 0
 360 281 329 273 294 273 c 0
 249 273 208 284 175 304 c 0xec
 142 324 116 352 97 387 c 0
 78 422 69 464 69 512 c 0
 69 559 79 601 99 636 c 0
 119 671 149 699 185 718 c 0
 221 737 264 748 312 748 c 0xf4
309 672 m 0
 285 672 160 667 160 511 c 0xf4
 160 468 172 349 311 349 c 0
 332 349 469 350 469 503 c 0
 469 610 398 672 309 672 c 0
EndSplineSet
Validated: 5
Substitution2: "'tnum' Tabular Numbers in Latin lookup 19 subtable" nine.tf
Substitution2: "'aalt' Access All Alternates in Latin lookup 0 subtable" nine.tf
EndChar
StartChar: less
Encoding: 60 60 442
Width: 533
Flags: HW
LayerCount: 3
Fore
SplineSet
475 560 m 5
 475 490 l 5
 117 354 l 5
 117 378 l 5
 475 250 l 5
 475 180 l 5
 60 328 l 5
 60 403 l 5
 475 560 l 5
EndSplineSet
Validated: 5
Substitution2: "'tnum' Tabular Numbers in Latin lookup 19 subtable" less.tf
Substitution2: "'aalt' Access All Alternates in Latin lookup 0 subtable" less.tf
EndChar
StartChar: equal
Encoding: 61 61 431
Width: 544
Flags: HW
HStem: 244 68<63 484> 449 68<63 484>
LayerCount: 3
Fore
SplineSet
63 449 m 1
 63 516 l 1
 484 516 l 1
 484 449 l 1
 63 449 l 1
63 244 m 1
 63 311 l 1
 484 311 l 1
 484 244 l 1
 63 244 l 1
EndSplineSet
Substitution2: "'tnum' Tabular Numbers in Latin lookup 19 subtable" equal.tf
Substitution2: "'aalt' Access All Alternates in Latin lookup 0 subtable" equal.tf
EndChar
StartChar: greater
Encoding: 62 62 441
Width: 533
Flags: HW
LayerCount: 3
Fore
SplineSet
60 170 m 5
 60 240 l 5
 417 377 l 5
 417 353 l 5
 60 480 l 5
 60 550 l 5
 475 403 l 5
 475 328 l 5
 60 170 l 5
EndSplineSet
Validated: 5
Substitution2: "'tnum' Tabular Numbers in Latin lookup 19 subtable" greater.tf
Substitution2: "'aalt' Access All Alternates in Latin lookup 0 subtable" greater.tf
EndChar
StartChar: question
Encoding: 63 63 343
Width: 580
Flags: HW
HStem: 0 104<190 292> 661 89<123 225>
VStem: 190 102<0 104> 190 89<214 325> 389 94<504 644>
LayerCount: 3
Fore
SplineSet
190 214 m 1xd8
 190 300 194 352 289 430 c 0
 368 495 387 515 389 577 c 0
 392 702 247 702 123 661 c 1
 121 750 l 1
 160 762 205 769 260 769 c 0
 296 769 483 760 483 575 c 4
 483 512 462 457 379 400 c 0
 301 345 280 312 280 214 c 1
 190 214 l 1xd8
190 0 m 1xe8
 190 104 l 1
 292 104 l 1
 292 0 l 1
 190 0 l 1xe8
EndSplineSet
Substitution2: "'ss01' Style Set 1 in Latin lookup 22 subtable" question.ss01
Substitution2: "'case' Case-Sensitive Forms in Latin lookup 20 subtable" question.case
AlternateSubs2: "'aalt' Access All Alternates in Latin lookup 1 subtable" question.case question.ss01
EndChar
StartChar: at
Encoding: 64 64 419
Width: 836
Flags: HW
HStem: -10 59<288.453 557.438> 6 91<573.23 611.332> 150 63<331.175 442.615 563.881 652.21> 498 64<366.809 485.522> 659 60<332.176 577.305>
VStem: 54 63<212.014 445.731> 222 77<246.987 418.835> 533 12<441 466.584> 721 63<309.067 521.245>
LayerCount: 3
Fore
SplineSet
422 -10 m 0xbf80
 348 -10 284 4 229 32 c 0
 174 60 131 97 100 147 c 0
 69 197 54 255 54 322 c 0
 54 378 64 430 83 478 c 0
 102 526 131 567 168 604 c 0
 205 641 247 668 297 688 c 0
 347 708 400 719 459 719 c 0
 523 719 579 706 628 681 c 0
 677 656 715 622 743 578 c 0
 771 534 784 483 784 426 c 0
 784 389 779 354 768 320 c 0
 757 286 742 258 723 232 c 0
 704 206 682 185 657 171 c 0
 632 157 606 150 578 150 c 0
 558 150 540 153 526 163 c 0
 512 173 503 188 498 206 c 0
 493 224 493 246 501 272 c 1
 508 240 l 1
 491 211 470 188 445 173 c 0
 420 158 394 150 365 150 c 0
 323 150 288 165 261 195 c 0
 234 225 222 265 222 314 c 0
 222 348 226 378 237 408 c 0
 248 438 262 465 280 488 c 0
 298 511 321 529 345 542 c 0
 369 555 394 562 421 562 c 0
 459 562 490 551 513 529 c 0
 536 507 546 478 545 441 c 1
 533 441 l 1
 561 545 l 1
 636 545 l 1
 567 277 l 2
 561 254 560 236 565 224 c 0
 570 212 581 207 596 207 c 256
 611 207 627 212 641 224 c 0
 655 236 669 252 681 272 c 0
 693 292 703 314 710 340 c 0
 717 366 721 392 721 420 c 0
 721 468 709 510 687 546 c 0
 665 582 635 609 596 629 c 0
 557 649 510 659 457 659 c 0
 407 659 361 650 320 633 c 0
 279 616 242 593 212 562 c 0
 182 531 158 495 142 455 c 0
 126 415 117 370 117 324 c 0
 117 269 130 221 154 180 c 0
 178 139 212 107 257 84 c 0
 302 61 357 49 421 49 c 0xbf80
 457 49 491 53 527 62 c 0
 563 71 594 82 624 97 c 1
 648 46 l 1
 620 29 587 17 548 6 c 0x7f80
 509 -5 466 -10 422 -10 c 0xbf80
389 213 m 0
 406 213 422 218 437 228 c 0
 452 238 466 251 478 268 c 0
 490 285 500 304 507 325 c 0
 514 346 518 369 518 392 c 0
 518 424 509 450 493 469 c 0
 477 488 455 498 427 498 c 0
 410 498 393 493 378 484 c 0
 363 475 349 463 337 447 c 0
 325 431 316 411 309 390 c 0
 302 369 299 346 299 322 c 0
 299 288 308 261 324 242 c 0
 340 223 362 213 389 213 c 0
EndSplineSet
Validated: 37
EndChar
StartChar: A
Encoding: 65 65 1
Width: 733
GlyphClass: 2
Flags: HW
HStem: 0 22G<47 143 584 686> 224 73<182 548> 716 21G<307 424>
AnchorPoint: "Anchor-1" 378 745 basechar 0
AnchorPoint: "Anchor-4" 701 0 basechar 0
AnchorPoint: "Anchor-3" 686 0 basechar 0
AnchorPoint: "Anchor-2" 367 0 basechar 0
AnchorPoint: "Anchor-0" 367 737 basechar 0
LayerCount: 3
Fore
SplineSet
47 0 m 1
 315 737 l 1
 397 737 l 1
 136 0 l 1
 47 0 l 1
592 0 m 1
 330 737 l 1
 417 737 l 1
 686 0 l 1
 592 0 l 1
182 297 m 5
 548 297 l 5
 548 224 l 1
 182 224 l 1
 182 297 l 5
EndSplineSet
Substitution2: "Single Substitution lookup 17 subtable" ordfeminine
Substitution2: "'aalt' Access All Alternates in Latin lookup 0 subtable" ordfeminine
EndChar
StartChar: B
Encoding: 66 66 13
Width: 653
Flags: HW
HStem: 0 77<186 452> 348 73<186 427> 660 77<186 450>
VStem: 92 94<77 348 420 660> 491 93<479 622> 509 95<130 291>
LayerCount: 3
Fore
SplineSet
584 556 m 0xf8
 584 477 544 416 472 389 c 1
 555 361 603 297 603 207 c 0xf4
 603 85 515 0 382 0 c 2
 92 0 l 1
 92 737 l 1
 370 737 l 2
 435 737 487 721 524 691 c 0
 563 658 584 613 584 556 c 0xf8
186 660 m 1
 186 420 l 1
 350 420 l 2
 454 420 491 476 491 556 c 0xf8
 491 624 444 660 350 660 c 2
 186 660 l 1
186 348 m 1
 186 77 l 2
 362 77 l 6
 453 77 509 122 509 207 c 0xf4
 509 294 458 348 362 348 c 6
 186 348 l 1
EndSplineSet
Validated: 1
EndChar
StartChar: C
Encoding: 67 67 14
Width: 746
GlyphClass: 2
Flags: HW
HStem: -10 73<302 485> 522 22G<566 670> 675 72<305 491>
VStem: 63 98<230 506> 577 99<158 239 522 585>
AnchorPoint: "Anchor-2" 406 0 basechar 0
AnchorPoint: "Anchor-0" 406 737 basechar 0
LayerCount: 3
Fore
SplineSet
402 -10 m 0
 196 -10 63 138 63 369 c 256
 63 587 183 747 402 747 c 0
 498 747 574 713 621 653 c 0
 648 618 664 573 670 522 c 1
 572 522 l 1
 562 615 499 675 403 675 c 3
 255 675 161 553 161 369 c 0
 161 184 254 62 402 62 c 4
 497 62 572 139 577 239 c 1
 676 239 l 1
 674 149 636 78 571 35 c 0
 526 6 469 -10 402 -10 c 0
EndSplineSet
EndChar
StartChar: D
Encoding: 68 68 19
Width: 697
GlyphClass: 2
Flags: HW
HStem: 0 70<130 392.243> 638 70<130 392.619>
VStem: 130 42<0 70 638 708> 550 90<235.054 479.766>
AnchorPoint: "Anchor-2" 334 0 basechar 0
AnchorPoint: "Anchor-0" 334 708 basechar 0
LayerCount: 3
Fore
SplineSet
640 357 m 260
 640 139.09375 501.47265625 0 290 0 c 6
 130 0 l 1
 130 70 l 1
 279 70 l 6
 456 70 550 190 550 358 c 4
 550 518 461 638 279 638 c 6
 130 638 l 1
 130 708 l 1
 289 708 l 6
 504.142578125 708 640 572.1171875 640 357 c 260
82 0 m 1
 82 708 l 1
 172 708 l 1
 172 0 l 1
 82 0 l 1
EndSplineSet
Validated: 5
EndChar
StartChar: E
Encoding: 69 69 23
Width: 568
GlyphClass: 2
Flags: HW
HStem: 0 70<120 530> 334 70<120 496> 638 70<120 523>
VStem: 120 48<0 70 334 404 638 708>
AnchorPoint: "Anchor-3" 499 0 basechar 0
AnchorPoint: "Anchor-2" 296 0 basechar 0
AnchorPoint: "Anchor-0" 306 708 basechar 0
LayerCount: 3
Fore
SplineSet
79 0 m 1
 79 708 l 1
 168 708 l 1
 168 0 l 1
 79 0 l 1
120 0 m 1
 120 70 l 5
 530 70 l 5
 530 0 l 1
 120 0 l 1
120 334 m 1
 120 404 l 1
 250 404 l 0
 496 404 l 1
 496 334 l 1
 120 334 l 1
120 638 m 1
 120 708 l 1
 523 708 l 1
 523 638 l 1
 120 638 l 1
EndSplineSet
Validated: 5
EndChar
StartChar: F
Encoding: 70 70 32
Width: 601
Flags: HW
HStem: 0 22G<106 199> 312 73<149 524> 664 73<149 551>
VStem: 106 93<0 312 385 664> 149 50<312 385 664 737>
LayerCount: 3
Fore
SplineSet
106 0 m 1xf0
 106 737 l 1xf0
 199 737 l 1xe8
 199 0 l 1
 106 0 l 1xf0
149 312 m 1xe8
 149 385 l 1
 524 385 l 1
 524 312 l 1
 149 312 l 1xe8
149 664 m 5
 149 737 l 1
 551 737 l 1
 551 664 l 5
 149 664 l 5
EndSplineSet
Validated: 5
EndChar
StartChar: G
Encoding: 71 71 33
Width: 769
GlyphClass: 2
Flags: HW
HStem: -10 73<323 577> 306 73<432 602> 675 73<317 498>
VStem: 64 97<222 482> 600 93<85 306 504 573>
AnchorPoint: "Anchor-2" 401 0 basechar 0
AnchorPoint: "Anchor-0" 401 737 basechar 0
LayerCount: 3
Fore
SplineSet
692 379 m 1
 692 37 l 1
 667 23 556 -10 435 -10 c 0
 261 -10 64 60 64 365 c 1
 64 601 204 749 427 749 c 0
 538 749 672 678 692 504 c 1
 599 504 l 1
 589 549 564 672 422 672 c 0
 271 672 162 562 161 365 c 0
 161 364 161 363 161 362 c 4
 161 181 254 62 450 62 c 4
 498 62 518 65 602 94 c 1
 602 306 l 1
 432 306 l 1
 432 307 432 298 432 379 c 1
 692 379 l 1
EndSplineSet
Validated: 1048609
Substitution2: "'ss07' Style Set 7 in Latin lookup 28 subtable" G.ss07
Substitution2: "'aalt' Access All Alternates in Latin lookup 0 subtable" G.ss07
EndChar
StartChar: H
Encoding: 72 72 37
Width: 695
GlyphClass: 2
Flags: HW
HStem: 0 21G<82 172 524 613> 334 70<124 568> 688 20G<82 172 524 613>
VStem: 82 90<0 334 404 708> 124 48<334 404> 524 89<0 334 404 708> 524 44<334 404>
AnchorPoint: "Anchor-2" 348 0 basechar 0
AnchorPoint: "Anchor-0" 348 708 basechar 0
LayerCount: 3
Fore
SplineSet
82 0 m 1xf0
 82 708 l 1
 172 708 l 1
 172 0 l 1
 82 0 l 1xf0
524 0 m 1xe4
 524 708 l 1
 613 708 l 1
 613 0 l 1
 524 0 l 1xe4
124 404 m 1xea
 568 404 l 1
 568 334 l 1
 427 334 l 4
 124 334 l 1
 124 404 l 1xea
EndSplineSet
Validated: 5
EndChar
StartChar: I
Encoding: 73 73 39
Width: 254
GlyphClass: 2
Flags: HW
HStem: 0 22G<80 174> 716 21G<80 174>
VStem: 80 94<0 737>
AnchorPoint: "Anchor-3" 151 0 basechar 0
AnchorPoint: "Anchor-2" 127 0 basechar 0
AnchorPoint: "Anchor-0" 127 737 basechar 0
LayerCount: 3
Fore
SplineSet
80 0 m 5
 80 737 l 5
 174 737 l 5
 174 0 l 5
 80 0 l 5
EndSplineSet
EndChar
StartChar: J
Encoding: 74 74 48
Width: 426
Flags: HW
HStem: -10 81<29 192> 716 21G<233 326>
VStem: 233 93<111 737>
LayerCount: 3
Fore
SplineSet
98 -10 m 3
 65 -10 29 -10 29 -10 c 2
 29 70 l 1
 104 70 l 2
 184 70 233 102 233 188 c 2
 233 737 l 1
 326 737 l 1
 326 185 l 2
 326 119 307 71 268 39 c 0
 227 6 170 -10 98 -10 c 3
EndSplineSet
Substitution2: "'ss08' Style Set 8 in Latin lookup 29 subtable" J.ss08
Substitution2: "'aalt' Access All Alternates in Latin lookup 0 subtable" J.ss08
EndChar
StartChar: K
Encoding: 75 75 49
Width: 720
GlyphClass: 2
Flags: HW
HStem: 0 22G<115 208 558 706> 716 21G<115 208 542 684>
VStem: 115 93<0 737>
AnchorPoint: "Anchor-2" 390 0 basechar 0
AnchorPoint: "Anchor-0" 378 737 basechar 0
LayerCount: 3
Fore
SplineSet
115 0 m 1
 115 737 l 1
 208 737 l 1
 208 0 l 1
 115 0 l 1
208 383 m 1
 563 737 l 1
 684 737 l 1
 316 383 l 1
 208 383 l 1
578 0 m 1
 208 383 l 1
 316 383 l 1
 706 0 l 5
 578 0 l 1
EndSplineSet
Validated: 1048581
Substitution2: "'ss04' Style Set 4 in Latin lookup 25 subtable" K.ss04
Substitution2: "'aalt' Access All Alternates in Latin lookup 0 subtable" K.ss04
EndChar
StartChar: L
Encoding: 76 76 51
Width: 513
GlyphClass: 2
Flags: HW
HStem: 0 70<124 504> 688 20G<82 172>
VStem: 82 90<70 708> 124 48<0 70>
AnchorPoint: "Anchor-2" 311 0 basechar 0
AnchorPoint: "Anchor-1" 369 708 basechar 0
AnchorPoint: "Anchor-0" 121 708 basechar 0
LayerCount: 3
Fore
SplineSet
82 0 m 1xe0
 82 708 l 1
 172 708 l 1xe0
 172 0 l 1xd0
 82 0 l 1xe0
124 0 m 1xd0
 124 70 l 5
 504 70 l 5
 504 0 l 1
 124 0 l 1xd0
EndSplineSet
Validated: 5
EndChar
StartChar: M
Encoding: 77 77 56
Width: 897
Flags: HW
HStem: 0 22G<85 179 384 507 719 812> 716 21G<85 220 676 812>
VStem: 147 32<661 681> 719 27<666 686>
LayerCount: 3
Fore
SplineSet
85 0 m 5
 85 737 l 5
 212 737 l 5
 468 29 l 5
 430 29 l 5
 684 737 l 5
 812 737 l 5
 812 0 l 5
 719 0 l 5
 719 686 l 5
 746 686 l 5
 500 0 l 5
 391 0 l 5
 147 681 l 5
 179 681 l 5
 179 0 l 5
 85 0 l 5
EndSplineSet
Substitution2: "'ss06' Style Set 6 in Latin lookup 27 subtable" M.ss06
Substitution2: "'aalt' Access All Alternates in Latin lookup 0 subtable" M.ss06
EndChar
StartChar: N
Encoding: 78 78 57
Width: 734
GlyphClass: 2
Flags: HW
HStem: 0 22G<92 185 539 644> 716 21G<92 192 551 644>
VStem: 92 93<0 621> 551 93<117 737>
AnchorPoint: "Anchor-2" 369 0 basechar 0
AnchorPoint: "Anchor-0" 369 737 basechar 0
LayerCount: 3
Fore
SplineSet
92 0 m 5
 92 737 l 5
 179 737 l 5
 577 117 l 5
 551 116 l 5
 551 737 l 5
 644 737 l 5
 644 0 l 5
 552 0 l 5
 154 621 l 5
 185 623 l 5
 185 0 l 5
 92 0 l 5
EndSplineSet
Validated: 1048581
EndChar
StartChar: O
Encoding: 79 79 63
Width: 799
GlyphClass: 2
Flags: HW
HStem: -10 73<303 501> 675 72<300 495>
VStem: 70 97<218 513> 633 98<222 516>
AnchorPoint: "Anchor-3" 538 20 basechar 0
AnchorPoint: "Anchor-2" 400 0 basechar 0
AnchorPoint: "Anchor-1" 763 737 basechar 0
AnchorPoint: "Anchor-0" 400 737 basechar 0
LayerCount: 3
Fore
SplineSet
399 -10 m 0
 201 -10 70 138 70 364 c 0
 70 591 202 747 395 747 c 3
 602 747 731 600 731 364 c 0
 731 142 597 -10 399 -10 c 0
403 62 m 260
 547 62 633 175 633 362 c 256
 633 565 550 675 391 675 c 256
 252 675 167 558 167 364 c 0
 167 173 251 62 403 62 c 260
EndSplineSet
Substitution2: "Single Substitution lookup 17 subtable" ordmasculine
Substitution2: "'aalt' Access All Alternates in Latin lookup 0 subtable" ordmasculine
EndChar
StartChar: P
Encoding: 80 80 73
Width: 667
Flags: HW
HStem: 0 22G<106 200> 304 73<168 476> 664 73<200 477>
VStem: 106 94<0 304 377 664> 168 32<304 377> 540 82<440 606>
LayerCount: 3
Fore
SplineSet
622 522 m 260xf4
 622 385 533 304 381 304 c 6
 168 304 l 5
 168 377 l 5xec
 377 377 l 6
 483 377 540 428 540 522 c 260
 540 616 485 664 377 664 c 6
 200 664 l 5
 200 0 l 5
 106 0 l 5
 106 737 l 5
 381 737 l 6
 535 737 622 659 622 522 c 260xf4
EndSplineSet
EndChar
StartChar: Q
Encoding: 81 81 75
Width: 806
Flags: HW
HStem: -1 22G<734 760> 675 72<286 482>
VStem: 55 96<227 518> 618 98<213 507>
LayerCount: 3
Fore
SplineSet
391 62 m 0
 537 62 618 171 618 362 c 0
 618 559 535 675 384 675 c 0
 235 675 153 561 153 373 c 0
 153 179 239 62 391 62 c 0
384 747 m 0
 585 747 716 593 716 353 c 0
 716 256 695 190 645 133 c 0
 603 85 546 48 490 31 c 1
 519 59 563 75 624 79 c 0
 665 81 713 90 760 94 c 1
 760 -1 l 1
 708 5 645 6 570 3 c 1
 430 -7 l 2
 414 -8 403 -10 388 -10 c 4
 246 -10 145 52 93 173 c 0
 68 231 55 298 55 370 c 0
 55 597 186 747 384 747 c 0
EndSplineSet
Substitution2: "'ss09' Style Set 9 in Latin lookup 30 subtable" Q.ss09
Substitution2: "'aalt' Access All Alternates in Latin lookup 0 subtable" Q.ss09
EndChar
StartChar: R
Encoding: 82 82 135
Width: 619
GlyphClass: 2
Flags: HW
HStem: 0 21G<82 173 492.516 597> 311 75<141 376.694> 331 26<379 436> 633 75<173 412.246>
VStem: 82 91<0 311 386 633> 141 32<311 386> 472 88<444.842 580.806>
AnchorPoint: "Anchor-5" 306 701 basechar 0
AnchorPoint: "Anchor-6" 329 0 basechar 0
AnchorPoint: "Anchor-2" 317 0 basechar 0
AnchorPoint: "Anchor-0" 308 708 basechar 0
LayerCount: 3
Fore
SplineSet
82 0 m 1xda
 82 708 l 1
 328 708 l 17
 372 708 414 699 452 682 c 1
 487 667 514 644 532 615 c 1
 550 586 560 554 560 517 c 1
 560 472 545 434 515 403 c 1
 481 369 436 344 379 331 c 1
 299 357 l 1xba
 411 355 492.853515625 302.296875 525.173828125 205.5625 c 1
 552.879882812 137.47265625 564.1171875 52.9130859375 597 0 c 5
 554 0 542 0 499 0 c 1
 445.06640625 174.793945312 l 2
 412.701171875 279.688476562 328 311 254 311 c 2
 141 311 l 1
 141 386 l 1xd6
 316 386 l 18
 394 386 472 427 472 513 c 0
 472 597 402 633 316 633 c 10
 173 633 l 1
 173 0 l 1
 82 0 l 1xda
EndSplineSet
Validated: 5
EndChar
StartChar: S
Encoding: 83 83 80
Width: 568
GlyphClass: 2
Flags: HW
HStem: -10 70<205.119 394.116> 505 21G<431.5 523> 649 69<199.631 378.077>
VStem: 37 94<135.054 227> 67 88<473.99 606.253> 432 91<505 593.143> 445 86<106.608 253.364>
AnchorPoint: "Anchor-2" 293 0 basechar 0
AnchorPoint: "Anchor-0" 293 708 basechar 0
LayerCount: 3
Fore
SplineSet
308 -10 m 0xea
 131 -10 41 70 37 227 c 1
 131 227 l 1
 133 116 186 60 308 60 c 0
 331 60 445 65 445 174 c 0xf2
 445 242 417 283 351 304 c 2
 234 340 l 2
 165 362 67 414 67 535 c 0
 67 653.674804688 165.459960938 717.649414062 287 717.999023438 c 4
 287.333007812 718 287.666015625 718 288 718 c 0
 442 718 521 647 523 505 c 1
 432 505 l 1xec
 431 601 390 649 287 649 c 0
 244 649 155 639 155 542 c 0
 155 518 154 455 263 419 c 2
 375 379 l 2
 494 340 531 260 531 175 c 0
 531 151 523 -10 308 -10 c 0xea
EndSplineSet
Validated: 33
EndChar
StartChar: T
Encoding: 84 84 86
Width: 556
GlyphClass: 2
Flags: HW
HStem: 0 21G<234 324> 638 70<7 234 324 550>
VStem: 234 90<0 638>
AnchorPoint: "Anchor-2" 277 0 basechar 0
AnchorPoint: "Anchor-0" 278 708 basechar 0
LayerCount: 3
Fore
SplineSet
234 0 m 1
 234 638 l 5
 7 638 l 5
 7 708 l 1
 550 708 l 1
 550 638 l 5
 324 638 l 5
 324 0 l 1
 234 0 l 1
EndSplineSet
Validated: 1
EndChar
StartChar: U
Encoding: 85 85 86
Width: 704
GlyphClass: 2
Flags: HW
HStem: -10 73<256 447> 716 21G<83 176 528 623>
VStem: 83 93<152 737> 528 95<152 737>
AnchorPoint: "Anchor-3" 488 20 basechar 0
AnchorPoint: "Anchor-2" 352 0 basechar 0
AnchorPoint: "Anchor-1" 681 737 basechar 0
AnchorPoint: "Anchor-0" 352 737 basechar 0
LayerCount: 3
Fore
SplineSet
351 -10 m 0
 266 -10 201 16 154 68 c 0
 107 120 83 193 83 286 c 2
 83 737 l 1
 176 737 l 1
 176 275 l 2
 176 159 214 62 345 62 c 0
 393 62 528 63 528 275 c 2
 528 737 l 1
 623 737 l 1
 623 285 l 2
 623 193 597 120 550 68 c 0
 503 16 437 -10 351 -10 c 0
EndSplineSet
EndChar
StartChar: V
Encoding: 86 86 96
Width: 732
Flags: HW
HStem: 0 22G<310 426> 716 21G<49 154 582 688>
LayerCount: 3
Fore
SplineSet
318 0 m 1
 49 737 l 1
 147 737 l 1
 395 39 l 1
 342 39 l 5
 589 737 l 5
 688 737 l 1
 419 0 l 1
 318 0 l 1
EndSplineSet
EndChar
StartChar: W
Encoding: 87 87 97
Width: 1086
GlyphClass: 2
Flags: HW
HStem: 0 22G<262 375 711 824> 716 21G<63 169 484 606 923 1022>
AnchorPoint: "Anchor-2" 544 0 basechar 0
AnchorPoint: "Anchor-0" 544 737 basechar 0
LayerCount: 3
Fore
SplineSet
267 0 m 1
 63 737 l 1
 163 737 l 1
 344 59 l 1
 311 59 l 1
 489 737 l 1
 600 737 l 5
 780 59 l 5
 746 59 l 1
 928 737 l 1
 1022 737 l 1
 818 0 l 1
 717 0 l 1
 537 657 l 1
 549 657 l 1
 369 0 l 1
 267 0 l 1
EndSplineSet
EndChar
StartChar: X
Encoding: 88 88 102
Width: 707
Flags: HW
HStem: 0 22G<51 163 540 659> 716 21G<67 187 545 658>
LayerCount: 3
Fore
SplineSet
554 0 m 1
 326 345 l 1
 67 737 l 1
 173 737 l 1
 387 413 l 1
 659 0 l 1
 554 0 l 1
337 411 m 1
 559 737 l 1
 658 737 l 5
 390 342 l 5
 337 411 l 1
379 338 m 5
 149 0 l 5
 51 0 l 1
 325 408 l 1
 379 338 l 5
EndSplineSet
EndChar
StartChar: Y
Encoding: 89 89 106
Width: 599
GlyphClass: 2
Flags: HW
HStem: 0 21G<262 351> 688 20G<5 123.097 496.844 598>
VStem: 262 89<0 322>
AnchorPoint: "Anchor-2" 301 0 basechar 0
AnchorPoint: "Anchor-0" 301 708 basechar 0
LayerCount: 3
Fore
SplineSet
262 0 m 1
 262 322 l 1
 5 708 l 1
 110 708 l 5
 332 369 l 5
 287 369 l 1
 510 708 l 1
 598 708 l 1
 351 322 l 1
 351 0 l 1
 262 0 l 1
EndSplineSet
Validated: 5
EndChar
StartChar: Z
Encoding: 90 90 111
Width: 539
GlyphClass: 2
Flags: HW
HStem: 0 70<113 519> 638 70<39 426>
AnchorPoint: "Anchor-2" 267 0 basechar 0
AnchorPoint: "Anchor-0" 267 708 basechar 0
LayerCount: 3
Fore
SplineSet
30 0 m 1
 30 60 l 1
 426 678 l 1
 454 638 l 1
 39 638 l 1
 39 708 l 1
 510 708 l 1
 510 649 l 1
 113 31 l 1
 75 70 l 1
 387 70 l 4
 519 70 l 1
 519 0 l 1
 30 0 l 1
EndSplineSet
Validated: 5
EndChar
StartChar: bracketleft
Encoding: 91 91 384
Width: 438
Flags: HW
HStem: -111 66<182 363> 703 65<182 363>
VStem: 107 75<-46 703>
LayerCount: 3
Fore
SplineSet
107 -111 m 1
 107 768 l 1
 363 768 l 1
 363 703 l 1
 182 703 l 1
 182 -46 l 1
 363 -46 l 1
 363 -111 l 1
 107 -111 l 1
EndSplineSet
Substitution2: "'case' Case-Sensitive Forms in Latin lookup 20 subtable" bracketleft.case
Substitution2: "'aalt' Access All Alternates in Latin lookup 0 subtable" bracketleft.case
EndChar
StartChar: backslash
Encoding: 92 92 350
Width: 444
Flags: HW
VStem: 67 312
LayerCount: 3
Fore
SplineSet
67 768 m 1
 136 768 l 1
 379 -61 l 1
 308 -61 l 1
 67 768 l 1
EndSplineSet
EndChar
StartChar: bracketright
Encoding: 93 93 385
Width: 438
Flags: HW
HStem: -111 66<77 258> 703 65<77 258>
VStem: 258 75<-46 703>
LayerCount: 3
Fore
SplineSet
333 768 m 1
 333 -111 l 1
 77 -111 l 1
 77 -46 l 1
 258 -46 l 1
 258 703 l 1
 77 703 l 1
 77 768 l 1
 333 768 l 1
EndSplineSet
Substitution2: "'case' Case-Sensitive Forms in Latin lookup 20 subtable" bracketright.case
Substitution2: "'aalt' Access All Alternates in Latin lookup 0 subtable" bracketright.case
EndChar
StartChar: asciicircum
Encoding: 94 94 435
Width: 544
Flags: HW
HStem: 503 255
LayerCount: 3
Fore
SplineSet
147 503 m 1
 81 503 l 1
 234 758 l 1
 311 758 l 1
 463 503 l 1
 401 503 l 1
 253 716 l 1
 293 716 l 1
 147 503 l 1
EndSplineSet
EndChar
StartChar: a
Encoding: 97 97 147
Width: 558
GlyphClass: 2
Flags: HW
HStem: -10 65<175.143 327.788> 0 21G<407.905 497> 254 60<197.425 416> 466 65<215.883 367.053>
VStem: 54 91<85.0676 212.432> 93 91<378 435.209> 401 87<1.35724 96 204 254 314 430.919>
AnchorPoint: "Anchor-3" 497 0 basechar 0
AnchorPoint: "Anchor-2" 282 0 basechar 0
AnchorPoint: "Anchor-0" 291 522 basechar 0
LayerCount: 3
Fore
SplineSet
410 0 m 1x76
 405.809570312 28.76171875 405 70 405 96 c 1
 401 96 l 1
 401 353 l 2
 401 433 361 466 296 466 c 0
 223 466 187 435 184 378 c 1
 93 378 l 1
 96 420 113 462 142 486 c 0
 173 512 222 531 289 531 c 0
 410 531 488 482 488 353 c 2
 488 96 l 2
 488 95.0361328125 490.71875 15.076171875 497 0 c 1
 410 0 l 1x76
233 -10 m 0xba
 181 -10 140 4 110 32 c 0
 86 54 66 83 58 122 c 0
 56 132 54 143 54 155 c 3
 54 215 89 264 150 289 c 0
 215 315 310 313 416 314 c 0
 416 254 l 1
 215 252 145 241 145 145 c 0
 145 114 163.994140625 55 242 55 c 0
 363 55 401 150 401 204 c 1
 426 135 l 1
 421 118 385 -10 233 -10 c 0xba
EndSplineSet
Substitution2: "'ss02' Style Set 2 in Latin lookup 23 subtable" a.ss02
Substitution2: "Single Substitution lookup 17 subtable" ordfeminine
AlternateSubs2: "'aalt' Access All Alternates in Latin lookup 1 subtable" a.ss02 ordfeminine
EndChar
StartChar: b
Encoding: 98 98 162
Width: 581
Flags: W
HStem: -9 62<240.008 374.988> 0 21G<69 157.65> 448 64<242.315 382.94> 688 20G<75 161>
VStem: 75 86<0.0676537 123 143.109 356.838 412 708> 157 4<387 412> 453 91<137.895 361.348>
AnchorPoint: "Anchor-0" 297 718 basechar 0
AnchorPoint: "Anchor-1" 19 710 basechar 0
AnchorPoint: "Anchor-2" 297 1 basechar 0
LayerCount: 3
Fore
SplineSet
326 -9 m 0xb6
 240 -10 181 22 137 118 c 1
 161 123 l 1xba
 157 0 l 1x76
 69 0 l 5
 69 0 75 93 75 158 c 7
 75 368 75 708 75 708 c 5
 161 708 l 1x7a
 161 387 l 1
 157 412 l 1
 194 486 253 512 334 512 c 0
 376 512 409 501 441 480 c 0
 475 457 502 426 519 389 c 0
 534 356 541 315 544 258 c 0
 551 99 463 -8 326 -9 c 0xb6
304 53 m 0
 395 53 453 129 453 248 c 0
 453 371 399 448 311 448 c 256
 219 448 158 350 158 251 c 0
 158 139 226 53 304 53 c 0
EndSplineSet
Validated: 37
EndChar
StartChar: c
Encoding: 99 99 163
Width: 526
GlyphClass: 2
Flags: HW
HStem: -10 63<207.588 354.908> 448 63<209.72 359.612>
VStem: 40 87<146.994 355.645> 407 84<103.239 167 333 399.287>
AnchorPoint: "Anchor-2" 260 0 basechar 0
AnchorPoint: "Anchor-0" 265 502 basechar 0
LayerCount: 3
Fore
SplineSet
280 -10 m 0
 127 -10 40 86 40 253 c 256
 40 413 133 511 283 511 c 0
 409 511 488 444 488 333 c 5
 404 333 l 7
 404 408 359 448 278 448 c 0
 193 448 127 366 127 253 c 256
 127 136 192 53 278 53 c 3
 352 53 407 101 407 167 c 0
 491 167 l 0
 491 62 405 -10 280 -10 c 0
EndSplineSet
Validated: 1
EndChar
StartChar: d
Encoding: 100 100 165
Width: 620
GlyphClass: 2
Flags: HW
HStem: -9 64<223.326 363.379> 466 67<215.207 361.878>
VStem: 48.3811 93<148.995 375.917> 444.381 88<0.0947266 128 144.404 371.127>
AnchorPoint: "Anchor-0" 340.381 735 basechar 0
AnchorPoint: "Anchor-1" 50.3809 716 basechar 0
AnchorPoint: "Anchor-2" 316.381 0 basechar 0
LayerCount: 3
Fore
SplineSet
274.380859375 -9 m 0
 363.380859375 -10 434.380859375 38 470.380859375 138 c 5
 444.380859375 128 l 1
 449.380859375 0 l 1
 540.380859375 -1 l 1
 540.380859375 -1 532.380859375 95 532.380859375 163 c 3
 532.380859375 382 532.380859375 736 532.380859375 736 c 1
 444.380859375 737 l 1
 444.380859375 433 l 1
 405.380859375 510 350.380859375 533 266.380859375 533 c 0
 222.380859375 533 188.380859375 522 155.380859375 500 c 0
 120.380859375 476 92.380859375 444 74.380859375 405 c 0
 58.380859375 371 51.380859375 327 48.380859375 268 c 0
 41.380859375 103 131.380859375 -8 274.380859375 -9 c 0
297.380859375 55 m 0
 202.380859375 55 141.380859375 134 141.380859375 258 c 0
 141.380859375 386 198.380859375 466 290.380859375 466 c 256
 386.380859375 466 448.380859375 364 448.380859375 261 c 4
 448.380859375 134 378.380859375 55 297.380859375 55 c 0
EndSplineSet
EndChar
StartChar: e
Encoding: 101 101 172
Width: 518
GlyphClass: 2
Flags: HW
HStem: -10 63<203.224 353.6> 229 64<126 404> 451 60<202.675 346.827>
VStem: 40 85<144.459 229 293 361.107> 404 88<106.531 167 293 382.172>
AnchorPoint: "Anchor-3" 389 18 basechar 0
AnchorPoint: "Anchor-2" 274 0 basechar 0
AnchorPoint: "Anchor-0" 275 502 basechar 0
LayerCount: 3
Fore
SplineSet
282 -10 m 0
 127 -10 40 86 40 246 c 0
 40 410 132 511 280 511 c 0
 407 511 492 425 492 265 c 0
 492 257 492 252 492 246 c 0
 492 241 491 236 490 229 c 1
 125 229 l 5
 132 127 185 53 283 53 c 0
 354 53 397 100 403 167 c 1
 489 167 l 1
 489 80 406 -10 282 -10 c 0
404 293 m 1
 397 398 355 451 276 451 c 0
 177 451 136 364 126 293 c 5
 404 293 l 1
EndSplineSet
Validated: 1
EndChar
StartChar: f
Encoding: 102 102 178
Width: 370
Flags: HW
HStem: 0 22G<135 224> 454 69<32 338> 676 63<236 345>
VStem: 135 89<0 662>
LayerCount: 3
Fore
SplineSet
135 0 m 1
 135 601 l 6
 135 645 147 680 173 703 c 0
 199 726 244 740 292 740 c 27
 309 740 329 738 345 735 c 0
 345 671 l 1
 340 673 310 676 293 676 c 3
 275 676 255 670 243 660 c 0
 227 648 224 646 224 596 c 2
 224 0 l 5
 135 0 l 1
32 454 m 1
 32 522 l 1
 338 522 l 1
 338 454 l 1
 32 454 l 1
EndSplineSet
EndChar
StartChar: g
Encoding: 103 103 179
Width: 620
GlyphClass: 2
Flags: HW
HStem: -179 66<197.873 372.871> 32 69<207.123 377.377> 462 69<210.159 372.434> 502 20G<453.898 541>
VStem: 48 93<174.35 386.248> 65 91<-76.1021 -26> 443 90<-44.3918 143 167.118 388.136> 455 86<395 522>
AnchorPoint: "Anchor-2" 285 -179 basechar 0
AnchorPoint: "Anchor-0" 291 522 basechar 0
LayerCount: 3
Fore
SplineSet
533 403 m 1041xc2
48 273 m 256xda
 48 430.560546875 140.208984375 531 278 531 c 0xea
 373.99609375 531 436.58203125 483.798828125 457 396 c 1
 448 395 l 1
 455 522 l 1
 541 522 l 1xd9
 540 508 536 468 533 403 c 1
 533 50 l 2
 533 -88.9287109375 450.489257812 -179 277 -179 c 0
 146.225585938 -179 65 -113.163085938 65 -26 c 1
 156 -26 l 1xd6
 156 -74.150390625 208.067382812 -113 278 -113 c 0
 385.579101562 -113 443 -54.6669921875 443 49 c 2
 443 151 l 1
 452 143 l 1
 430.809570312 67.318359375 361.146484375 32 266 32 c 0
 130.70703125 32 48 120.330078125 48 273 c 256xda
141 283 m 0
 141 161.760742188 194.452148438 101 293 101 c 256
 387.948242188 101 447 161.938476562 447 276 c 0
 447 388.981445312 386.543945312 462 293 462 c 0
 197.586914062 462 141 398.500976562 141 283 c 0
EndSplineSet
EndChar
StartChar: h
Encoding: 104 104 183
Width: 611
GlyphClass: 2
Flags: HW
HStem: 0 22G<89 178 441 531> 466 66<250 398> 719 21G<89 178>
VStem: 89 89<0 740> 441 91<0 418>
AnchorPoint: "Anchor-2" 323 0 basechar 0
AnchorPoint: "Anchor-0" 323 522 basechar 0
LayerCount: 3
Fore
SplineSet
89 0 m 1
 89 740 l 1
 178 740 l 1
 178 0 l 1
 89 0 l 1
441 0 m 1
 441 311 l 2
 441 415 408 466 329 466 c 3
 236 466 178 396 178 282 c 1
 160 404 l 1
 195 490 256 532 345 532 c 0
 465 532 531 464 531 340 c 2
 531 0 l 1
 441 0 l 1
EndSplineSet
EndChar
StartChar: k
Encoding: 107 107 197
Width: 558
GlyphClass: 2
Flags: HW
HStem: 0 22G<99 188 409 545> 502 21G<397 536> 716 21G<99 188>
VStem: 99 89<0 737>
AnchorPoint: "Anchor-2" 314 0 basechar 0
AnchorPoint: "Anchor-0" 293 737 basechar 0
LayerCount: 3
Fore
SplineSet
99 0 m 1
 99 737 l 5
 188 737 l 5
 188 0 l 1
 99 0 l 1
428 0 m 1
 188 271 l 1
 416 522 l 1
 536 522 l 1
 266 249 l 1
 271 296 l 1
 545 0 l 1
 428 0 l 1
EndSplineSet
Substitution2: "'ss04' Style Set 4 in Latin lookup 25 subtable" k.ss04
Substitution2: "'aalt' Access All Alternates in Latin lookup 0 subtable" k.ss04
EndChar
StartChar: l
Encoding: 108 108 202
Width: 231
GlyphClass: 2
Flags: HW
HStem: 0 21G<73 159> 688 20G<73 159>
VStem: 73 86<0 708>
AnchorPoint: "Anchor-2" 115 0 basechar 0
AnchorPoint: "Anchor-1" 220 719 basechar 0
AnchorPoint: "Anchor-0" 115 708 basechar 0
LayerCount: 3
Fore
SplineSet
73 0 m 1
 73 708 l 5
 159 708 l 5
 159 0 l 1
 73 0 l 1
EndSplineSet
Validated: 1
EndChar
StartChar: m
Encoding: 109 109 207
Width: 906
Flags: HW
HStem: 0 21G<75 161 413 499 751 839> 448 63<227.181 367.434 565.565 705.83> 482 20G<69 156.579>
VStem: 75 86<0 271 426 502> 413 86<0 397.227> 751 88<0 397.227>
AnchorPoint: "Anchor-0" 302 502 basechar 0
AnchorPoint: "Anchor-2" 302 0 basechar 0
LayerCount: 3
Fore
SplineSet
751 0 m 5xdc
 751 299 l 6
 751 399 714 448 638 448 c 7
 549 448 499 381 499 271 c 5
 481 388 l 5
 515 471 573 511 659 511 c 4
 774 511 839 446 839 327 c 6
 839 0 l 5
 751 0 l 5xdc
75 0 m 5
 75 260 73 468 69 502 c 5
 155 502 l 5xbc
 161 426 l 4
 161 0 l 5
 75 0 l 5
413 0 m 5
 413 299 l 6
 413 399 375 448 299 448 c 7
 210 448 161 381 161 271 c 5
 143 388 l 5
 177 471 235 511 321 511 c 4xdc
 436 511 499 446 499 327 c 6
 499 0 l 5
 413 0 l 5
EndSplineSet
Validated: 5
EndChar
StartChar: n
Encoding: 110 110 208
Width: 564
GlyphClass: 2
Flags: HW
HStem: 0 21G<75 161 413 499> 448 63<229.757 367.969> 482 20G<69 156.579>
VStem: 75 86<0 501.956> 413 86<0 395.803>
LayerCount: 3
Fore
SplineSet
75 0 m 1xb8
 75 444 69 502 69 502 c 1
 155 502 l 1
 161 426 l 0
 161 0 l 1
 75 0 l 1xb8
413 0 m 1
 413 299 l 2
 413 390 381 448 299 448 c 3
 207 448 161 378 161 271 c 1
 143 388 l 1
 174 464 227 511 329 511 c 0xd8
 372 511 499 497 499 327 c 2
 499 0 l 1
 413 0 l 1
EndSplineSet
Validated: 5
EndChar
StartChar: o
Encoding: 111 111 214
Width: 544
GlyphClass: 2
Flags: HW
HStem: -10 63<198.566 343.233> 448 63<198.298 346.648>
VStem: 36 87<141.275 361.416> 421 88<141.829 361.547>
AnchorPoint: "Anchor-3" 390 19 basechar 0
AnchorPoint: "Anchor-2" 273 0 basechar 0
AnchorPoint: "Anchor-1" 530 502 basechar 0
AnchorPoint: "Anchor-0" 273 502 basechar 0
LayerCount: 3
Fore
SplineSet
273 -10 m 256
 130 -10 36 90 36 252 c 0
 36 411 125 511 270 511 c 256
 414 511 509 412 509 251 c 0
 509 93 419 -10 273 -10 c 256
271 53 m 256
 363 53 421 131 421 253 c 0
 421 373 365 448 272 448 c 256
 179 448 123 373 123 252 c 0
 123 131 179 53 271 53 c 256
EndSplineSet
Validated: 1
Substitution2: "Single Substitution lookup 17 subtable" ordmasculine
Substitution2: "'aalt' Access All Alternates in Latin lookup 0 subtable" ordmasculine
EndChar
StartChar: p
Encoding: 112 112 221
Width: 620
Flags: HW
HStem: -10 66<261 405> 466 66<259 399>
VStem: 88 89<148 377 394 522> 172 5<103 120> 480 95<146 379>
AnchorPoint: "Anchor-0" 290 -200 basechar 0
AnchorPoint: "Anchor-1" 0 -225 basechar 0
AnchorPoint: "Anchor-2" 290 523 basechar 0
LayerCount: 3
Fore
SplineSet
348 532 m 0xd8
 259 533 198 489 152 389 c 1
 178 394 l 1xe8
 172 522 l 1xd8
 82 522 l 5
 82 522 88 416 88 348 c 7
 88 129 88 -172 88 -172 c 5xe8
 178 -172 l 1
 178 120 l 1
 172 103 l 1
 211 26 273 -10 357 -10 c 0
 401 -10 435 0 468 22 c 0
 503 46 531 79 549 118 c 0
 565 152 572 194 575 253 c 0
 582 418 491 531 348 532 c 0xd8
325 466 m 0
 420 466 480 388 480 264 c 0
 480 136 425 55 333 55 c 256
 247 55 173 143 173 261 c 0
 173 378 244 466 325 466 c 0
EndSplineSet
EndChar
StartChar: q
Encoding: 113 113 226
Width: 581
Flags: W
HStem: -10 63<200.357 338.709> 448 63<203.969 338.676> 482 20G<420.187 509>
VStem: 34 91<140.966 363.808> 416 86<-165 99 138.693 362.551 379 501.925> 416 5<99 115>
AnchorPoint: "Anchor-2" 350 503 basechar 0
AnchorPoint: "Anchor-1" 627 -216 basechar 0
AnchorPoint: "Anchor-0" 350 -192 basechar 0
LayerCount: 3
Fore
SplineSet
253 511 m 0xd4
 339 512 397 470 441 374 c 1
 416 379 l 1xd8
 421 502 l 1xb4
 509 502 l 5
 509 502 502 399 502 334 c 7
 502 124 502 -165 502 -165 c 5
 416 -165 l 1xb8
 416 115 l 1
 421 99 l 1
 384 25 326 -10 245 -10 c 0
 203 -10 170 0 138 21 c 0
 104 44 77 76 60 113 c 0
 45 146 37 186 34 243 c 0
 27 402 116 510 253 511 c 0xd4
275 448 m 0
 184 448 125 373 125 254 c 0
 125 131 183 53 271 53 c 256
 354 53 420 138 420 251 c 0
 420 363 353 448 275 448 c 0
EndSplineSet
Validated: 37
EndChar
StartChar: r
Encoding: 114 114 227
Width: 355
GlyphClass: 2
Flags: HW
HStem: 0 21G<71 157> 436 75<220.959 335.715> 482 20G<71 149>
VStem: 71 86<0 377> 71 78<397 502>
AnchorPoint: "Anchor-2" 118 0 basechar 0
AnchorPoint: "Anchor-0" 207 502 basechar 0
LayerCount: 3
Fore
SplineSet
71 0 m 1xb0
 73 256 73 464 71 502 c 1
 149 502 l 1
 149 397 l 1xa8
 157 377 l 1
 157 0 l 1
 71 0 l 1xb0
157 270 m 1xd0
 144 382 l 1
 156 424 176 457 206 480 c 0
 234 501 268 511 306 511 c 0
 319 511 330 510 336 507 c 1
 336 433 l 1
 333 434 330 435 323 435 c 0
 319 435 312 436 306 436 c 0
 255 436 219 422 194 392 c 0
 170 363 157 323 157 270 c 1xd0
EndSplineSet
Validated: 37
EndChar
StartChar: s
Encoding: 115 115 231
Width: 457
GlyphClass: 2
Flags: HW
HStem: -11 64<161.739 318.93> 450 61<160.945 308.04>
VStem: 30 86<98.7773 157> 48 81<334.069 420.352> 331 86<366 426.141> 356 81<86.6466 180.341>
AnchorPoint: "Anchor-0" 222 502 basechar 0
AnchorPoint: "Anchor-2" 230 0 basechar 0
LayerCount: 3
Fore
SplineSet
242 450 m 0xd8
 177 450 129 419 129 379 c 0xd8
 129 340 171 306 245 288 c 2
 284 279 l 2
 395 252 437 214 437 144 c 0
 437 49 358 -11 235 -11 c 0
 107 -11 30 53 30 157 c 1
 116 157 l 1
 120 93 166 53 239 53 c 0
 308 53 356 87 356 135 c 0xe4
 356 175 324 199 243 218 c 2
 203 229 l 2
 95 255 48 296 48 363 c 0
 48 452 127 511 247 511 c 0
 356 511 412 463 417 366 c 1
 331 366 l 1
 328 424 302 450 242 450 c 0xd8
EndSplineSet
Validated: 1
EndChar
StartChar: t
Encoding: 116 116 234
Width: 415
GlyphClass: 2
Flags: HW
HStem: -5 67<256.394 365.032> 460 62<55 366>
VStem: 144 90<84.0356 641>
AnchorPoint: "Anchor-2" 282 1 basechar 0
AnchorPoint: "Anchor-1" 329 798 basechar 0
AnchorPoint: "Anchor-0" 210 523 basechar 0
LayerCount: 3
Fore
SplineSet
144 140 m 2
 144 641 l 1
 234 692 l 1
 234 140 l 2
 234 110 254 58 307 58 c 0
 321 58 347 63 366 67 c 1
 366 4 l 1
 344 0 310 -5 286 -5 c 0
 219 -5 144 23 144 140 c 2
55 460 m 1
 55 522 l 1
 366 522 l 1
 366 460 l 1
 55 460 l 1
EndSplineSet
Validated: 1048581
EndChar
StartChar: u
Encoding: 117 117 237
Width: 603
GlyphClass: 2
Flags: HW
HStem: -10 66<212 362> 0 22G<434 526> 502 21G<78 168 430 520>
VStem: 78 91<105 522> 430 91<0 79 241 522>
AnchorPoint: "Anchor-3" 516 0 basechar 0
AnchorPoint: "Anchor-2" 298 0 basechar 0
AnchorPoint: "Anchor-1" 570 522 basechar 0
AnchorPoint: "Anchor-0" 298 522 basechar 0
LayerCount: 3
Fore
SplineSet
520 522 m 1x78
 520 251 522 35 526 0 c 1
 436 0 l 1
 430 79 l 0
 430 522 l 1
 520 522 l 1x78
168 522 m 1
 168 211 l 2
 168 107 205 55 284 55 c 3
 377 55 430 127 430 241 c 1
 449 118 l 1
 414 32 353 -10 264 -10 c 0xb8
 144 -10 78 58 78 182 c 2
 78 522 l 1
 168 522 l 1
EndSplineSet
EndChar
StartChar: v
Encoding: 118 118 247
Width: 548
Flags: HW
HStem: 0 22G<212 322> 502 21G<10 121 430 527>
LayerCount: 3
Fore
SplineSet
220 0 m 1
 10 522 l 1
 113 522 l 1
 286 58 l 1
 262 58 l 1
 438 522 l 1
 527 522 l 1
 313 0 l 1
 220 0 l 1
EndSplineSet
EndChar
StartChar: w
Encoding: 119 119 248
Width: 799
GlyphClass: 2
Flags: HW
HStem: 0 22G<174 276 531 632> 502 21G<34 140 347 463 669 764>
AnchorPoint: "Anchor-2" 404 0 basechar 0
AnchorPoint: "Anchor-0" 404 522 basechar 0
LayerCount: 3
Fore
SplineSet
180 0 m 1
 34 522 l 1
 135 522 l 1
 244 63 l 1
 221 63 l 1
 353 522 l 1
 457 522 l 1
 581 63 l 1
 558 63 l 1
 674 522 l 1
 764 522 l 1
 627 0 l 1
 537 0 l 1
 393 477 l 5
 415 477 l 5
 270 0 l 1
 180 0 l 1
EndSplineSet
EndChar
StartChar: x
Encoding: 120 120 253
Width: 587
Flags: HW
HStem: 0 22G<40 155 428 550> 502 21G<51 177 430 543>
LayerCount: 3
Fore
SplineSet
444 0 m 5
 262 244 l 5
 51 522 l 5
 163 522 l 5
 321 298 l 5
 550 0 l 5
 444 0 l 5
287 297 m 5
 445 522 l 5
 543 522 l 5
 329 239 l 5
 287 297 l 5
310 240 m 5
 140 0 l 5
 40 0 l 5
 271 298 l 5
 310 240 l 5
EndSplineSet
EndChar
StartChar: y
Encoding: 121 121 292
Width: 535
GlyphClass: 2
Flags: HW
HStem: 502 21G<15 122 427 527>
AnchorPoint: "Anchor-2" 277 0 basechar 0
AnchorPoint: "Anchor-0" 277 522 basechar 0
LayerCount: 3
Fore
SplineSet
157 -171 m 1
 253 62 l 1
 270 89 l 1
 435 522 l 1
 527 522 l 1
 243 -171 l 1
 157 -171 l 1
250 16 m 1
 15 522 l 1
 113 522 l 1
 306 75 l 1
 250 16 l 1
EndSplineSet
EndChar
StartChar: z
Encoding: 122 122 262
Width: 431
GlyphClass: 2
Flags: HW
HStem: 0 60<106 401> 442 60<33 318>
AnchorPoint: "Anchor-2" 208 0 basechar 0
AnchorPoint: "Anchor-0" 208 502 basechar 0
LayerCount: 3
Fore
SplineSet
24 0 m 1
 24 56 l 1
 318 471 l 1
 346 442 l 1
 33 442 l 1
 33 502 l 1
 401 502 l 1
 401 446 l 1
 106 31 l 1
 69 60 l 1
 401 60 l 1
 401 0 l 1
 24 0 l 1
EndSplineSet
Validated: 5
EndChar
StartChar: braceleft
Encoding: 123 123 390
Width: 402
Flags: HW
HStem: -107 63<204.589 339> 285 61<44 149.008> 676 62<204.589 339>
VStem: 44 295
LayerCount: 3
Fore
SplineSet
253 -107 m 2
 219 -107 192 -99 171 -86 c 0
 150 -73 136 -55 128 -32 c 0
 120 -9 119 16 124 42 c 2
 155 199 l 2
 162 230 159 252 148 265 c 0
 137 278 117 285 89 285 c 2
 44 285 l 1
 44 346 l 1
 89 346 l 2
 117 346 137 353 148 366 c 0
 159 379 162 402 155 433 c 2
 124 589 l 2
 119 616 120 641 128 664 c 0
 136 687 150 705 171 718 c 0
 192 731 219 738 253 738 c 2
 339 738 l 1
 339 676 l 1
 258 676 l 2
 233 676 216 668 204 654 c 0
 192 640 191 620 197 592 c 2
 226 454 l 2
 235 415 233 383 221 362 c 0
 209 341 191 326 166 316 c 1
 191 306 209 290 221 269 c 0
 233 248 235 217 226 178 c 2
 197 39 l 2
 191 11 192 -9 204 -23 c 0
 216 -37 233 -44 258 -44 c 2
 339 -44 l 1
 339 -107 l 1
 253 -107 l 2
EndSplineSet
Validated: 33
Substitution2: "'case' Case-Sensitive Forms in Latin lookup 20 subtable" braceleft.case
Substitution2: "'aalt' Access All Alternates in Latin lookup 0 subtable" braceleft.case
EndChar
StartChar: bar
Encoding: 124 124 418
Width: 247
Flags: HW
VStem: 89 71<-133 809>
LayerCount: 3
Fore
SplineSet
89 -133 m 1
 89 809 l 1
 159 809 l 1
 159 -133 l 1
 89 -133 l 1
EndSplineSet
Validated: 1
EndChar
StartChar: braceright
Encoding: 125 125 391
Width: 402
Flags: HW
HStem: -107 63<64 198.308> 285 61<252.907 359> 676 62<64 198.308>
VStem: 64 295
LayerCount: 3
Fore
SplineSet
149 738 m 2
 184 738 211 731 232 718 c 0
 253 705 268 687 276 664 c 0
 284 641 284 616 278 589 c 2
 248 433 l 2
 241 402 242 379 254 366 c 0
 266 353 286 346 314 346 c 2
 359 346 l 1
 359 285 l 1
 314 285 l 2
 286 285 266 278 254 265 c 0
 242 252 241 230 248 199 c 2
 278 42 l 2
 284 16 284 -9 276 -32 c 0
 268 -55 253 -73 232 -86 c 0
 211 -99 184 -107 149 -107 c 2
 64 -107 l 1
 64 -44 l 1
 144 -44 l 2
 170 -44 188 -37 199 -23 c 0
 210 -9 212 11 205 39 c 2
 177 178 l 2
 169 217 170 248 182 269 c 0
 194 290 211 306 236 316 c 1
 211 326 194 341 182 362 c 0
 170 383 169 415 177 454 c 2
 205 592 l 2
 212 620 210 640 199 654 c 0
 188 668 170 676 144 676 c 2
 64 676 l 1
 64 738 l 1
 149 738 l 2
EndSplineSet
Validated: 33
Substitution2: "'case' Case-Sensitive Forms in Latin lookup 20 subtable" braceright.case
Substitution2: "'aalt' Access All Alternates in Latin lookup 0 subtable" braceright.case
EndChar
StartChar: asciitilde
Encoding: 126 126 434
Width: 544
Flags: HW
HStem: 304 62<303 444> 367 60<102 237>
VStem: 28 56<314 353>
LayerCount: 3
Fore
SplineSet
388 304 m 0
 413 304 436 308 453 317 c 0
 470 326 485 338 496 355 c 0
 507 372 513 393 516 418 c 1
 462 418 l 1
 459 400 450 387 439 378 c 0
 428 369 415 366 398 366 c 0
 380 366 361 369 343 375 c 0
 325 381 304 387 285 396 c 0
 266 405 246 413 224 419 c 0
 202 425 180 428 156 428 c 0
 131 428 110 424 93 415 c 0
 76 406 62 394 51 377 c 0
 40 360 32 339 28 314 c 1
 84 314 l 1
 87 332 95 346 106 354 c 0
 117 362 133 367 149 367 c 0
 168 367 187 363 205 357 c 0
 223 351 240 344 259 335 c 0
 278 326 300 319 321 313 c 0
 342 307 363 304 388 304 c 0
EndSplineSet
EndChar
StartChar: exclamdown
Encoding: 161 161 350
Width: 274
Flags: HW
HStem: 403 99<87 188>
VStem: 87 100<403 502> 95 84<-202 88> 107 60<6 296>
LayerCount: 3
Fore
SplineSet
95 -202 m 1xa0
 107 296 l 1
 167 296 l 1x90
 179 -202 l 1
 95 -202 l 1xa0
188 502 m 1xc0
 188 403 l 1
 87 403 l 1
 87 502 l 1
 188 502 l 1xc0
EndSplineSet
Validated: 1
Substitution2: "'ss01' Style Set 1 in Latin lookup 22 subtable" exclamdown.ss01
Substitution2: "'case' Case-Sensitive Forms in Latin lookup 20 subtable" exclamdown.case
AlternateSubs2: "'aalt' Access All Alternates in Latin lookup 1 subtable" exclamdown.case exclamdown.ss01
EndChar
StartChar: cent
Encoding: 162 162 420
Width: 552
GlyphClass: 2
Flags: HW
HStem: -10 31<258 323> 494 39<258 323>
VStem: 55 82<150 376> 258 66<-112 20 494 631> 429 75<117 174 347 403>
AnchorPoint: "Anchor-2" 290 0 basechar 0
AnchorPoint: "Anchor-0" 294 522 basechar 0
LayerCount: 3
Fore
SplineSet
258 494 m 1
 258 631 l 1
 323 631 l 1
 323 494 l 1
 258 494 l 1
323 20 m 1
 323 -112 l 1
 258 -112 l 1
 258 20 l 1
 323 20 l 1
293 -10 m 0
 247 -10 204 2 169 25 c 0
 134 48 106 80 86 121 c 0
 66 162 55 210 55 263 c 256
 55 316 66 363 86 403 c 0
 106 443 133 475 169 498 c 0
 205 521 247 532 293 532 c 0
 332 532 364 525 394 510 c 0
 424 495 449 473 468 445 c 0
 487 417 498 386 503 347 c 1
 428 347 l 1
 422 382 408 410 385 432 c 0
 362 454 333 464 294 464 c 0
 262 464 234 455 211 439 c 0
 188 423 169 400 157 370 c 0
 145 340 137 304 137 263 c 256
 137 222 145 187 157 156 c 0
 169 125 187 101 211 84 c 0
 235 67 263 58 295 58 c 0
 331 58 361 69 385 91 c 0
 409 113 423 140 429 174 c 1
 504 174 l 1
 499 138 487 106 467 78 c 0
 447 50 423 27 393 12 c 0
 363 -3 330 -10 293 -10 c 0
EndSplineSet
Substitution2: "'ss12' Style Set 12 in Latin lookup 33 subtable" cent.ss12
Substitution2: "'aalt' Access All Alternates in Latin lookup 0 subtable" cent.ss12
EndChar
StartChar: sterling
Encoding: 163 163 432
Width: 568
Flags: HW
HStem: 0 70<106 496> 305 65<26 425> 649 70<196 375>
VStem: 64 78<431 596> 136 74<178 305> 438 78<523 586>
LayerCount: 3
Fore
SplineSet
58 0 m 1xec
 58 70 l 1
 88 116 108 156 120 189 c 0
 132 222 136 251 136 275 c 0xec
 136 299 134 320 126 338 c 0
 118 356 111 376 101 393 c 0
 91 410 83 429 75 450 c 0
 67 471 64 496 64 525 c 0
 64 563 73 596 89 626 c 0
 105 656 130 678 163 694 c 0
 196 710 236 719 283 719 c 0
 329 719 369 710 403 694 c 0
 437 678 463 655 482 625 c 0
 501 595 513 561 516 523 c 1
 438 523 l 1
 433 565 417 596 390 617 c 0
 363 638 328 649 286 649 c 0
 239 649 204 636 179 613 c 0
 154 590 142 559 142 521 c 0xf4
 142 499 145 477 152 459 c 0
 159 441 166 422 176 404 c 0
 186 386 194 367 201 347 c 0
 208 327 210 305 210 280 c 0
 210 250 202 215 188 176 c 0
 174 137 146 91 106 36 c 1
 104 70 l 1
 496 70 l 1
 496 0 l 1
 58 0 l 1xec
26 305 m 1
 26 370 l 1
 425 370 l 1
 425 305 l 1
 26 305 l 1
EndSplineSet
Validated: 5
EndChar
StartChar: yen
Encoding: 165 165 424
Width: 640
Flags: HW
HStem: 0 22G<278 362> 261 68<68 573> 411 69<68 239 417 573> 717 20G<42 152 497 600>
VStem: 278 83<0 335>
LayerCount: 3
Fore
SplineSet
278 0 m 1
 278 335 l 1
 42 737 l 1
 141 737 l 1
 344 384 l 1
 305 384 l 1
 508 737 l 1
 600 737 l 1
 362 335 l 1
 362 0 l 1
 278 0 l 1
68 261 m 1
 68 329 l 1
 573 329 l 1
 573 261 l 1
 68 261 l 1
275 411 m 1
 68 411 l 1
 68 479 l 1
 239 479 l 1
 275 411 l 1
417 479 m 1
 573 479 l 1
 573 411 l 1
 375 411 l 1
 417 479 l 1
EndSplineSet
EndChar
StartChar: section
Encoding: 167 167 413
Width: 519
Flags: HW
HStem: -72 67<179 332> 182 56<275 311> 438 56<209 244> 681 67<189 341>
VStem: 57 77<297 409> 64 78<31 83> 86 76<547 655> 357 77<20 131> 377 77<593 645> 386 77<268 378>
LayerCount: 3
Fore
SplineSet
273 182 m 1xf240
 275 239 l 1
 309 239 338 247 357 262 c 0
 376 277 386 298 386 323 c 0
 386 345 379 362 367 377 c 0
 355 392 332 404 301 413 c 2
 206 441 l 2
 167 452 139 471 118 498 c 0
 97 525 86 558 86 598 c 0xf240
 86 642 102 678 134 706 c 0
 166 734 210 748 265 748 c 0
 320 748 364 734 398 707 c 0
 432 680 450 642 454 593 c 1
 377 593 l 1xf880
 373 622 362 643 342 658 c 0
 322 673 295 681 262 681 c 0
 231 681 206 673 188 659 c 0
 170 645 162 626 162 603 c 0
 162 581 169 563 181 548 c 0
 193 533 216 520 246 510 c 2
 324 485 l 2
 369 471 402 451 426 424 c 0
 450 397 463 364 463 322 c 0
 463 278 446 243 413 219 c 0
 380 195 332 182 273 182 c 1xf240
255 -72 m 256
 200 -72 155 -58 122 -31 c 0
 89 -4 69 35 64 83 c 1
 142 83 l 1xf5
 146 54 158 32 178 17 c 0
 198 2 225 -5 258 -5 c 0
 290 -5 315 2 332 16 c 0
 349 30 357 50 357 73 c 0
 357 96 351 114 339 129 c 0
 327 144 304 157 273 167 c 2
 195 190 l 2
 149 204 115 225 92 252 c 0
 69 279 57 313 57 354 c 0
 57 399 74 434 107 458 c 0
 140 482 187 495 246 495 c 1
 244 438 l 1
 210 438 182 430 163 415 c 0
 144 400 134 379 134 354 c 0
 134 331 141 313 153 298 c 0
 165 283 187 272 218 263 c 2
 314 234 l 2
 353 223 380 205 401 178 c 0
 422 151 434 119 434 79 c 0xf9
 434 35 417 -2 385 -30 c 0
 353 -58 310 -72 255 -72 c 256
EndSplineSet
EndChar
StartChar: copyright
Encoding: 169 169 414
Width: 823
Flags: HW
HStem: -15 39<300 525> 143 45<332 493> 549 45<333 492> 714 39<300 525>
VStem: 28 41<252 485> 207 51<268 468> 550 50<245 305 432 492> 755 41<252 485>
LayerCount: 3
Fore
SplineSet
412 -15 m 256
 359 -15 308 -6 262 14 c 0
 216 34 176 62 141 97 c 0
 106 132 77 173 57 219 c 0
 37 265 28 316 28 369 c 256
 28 422 37 472 57 518 c 0
 77 564 106 606 141 641 c 0
 176 676 216 703 262 723 c 0
 308 743 359 753 412 753 c 256
 465 753 516 743 562 723 c 0
 608 703 649 676 684 641 c 0
 719 606 747 564 767 518 c 0
 787 472 796 422 796 369 c 256
 796 316 787 265 767 219 c 0
 747 173 719 132 684 97 c 0
 649 62 608 34 562 14 c 0
 516 -6 465 -15 412 -15 c 256
412 24 m 256
 459 24 503 33 545 51 c 0
 587 69 624 93 655 125 c 0
 686 157 711 194 729 236 c 0
 747 278 755 322 755 369 c 256
 755 416 747 460 729 502 c 0
 711 544 686 580 655 612 c 0
 624 644 587 669 545 687 c 0
 503 705 459 714 412 714 c 256
 365 714 321 705 279 687 c 0
 237 669 201 644 170 612 c 0
 139 580 114 544 96 502 c 0
 78 460 69 416 69 369 c 256
 69 322 78 278 96 236 c 0
 114 194 139 157 170 125 c 0
 201 93 237 69 279 51 c 0
 321 33 365 24 412 24 c 256
414 143 m 0
 374 143 338 154 307 173 c 0
 276 192 251 218 233 252 c 0
 215 286 207 325 207 369 c 256
 207 413 215 451 233 485 c 0
 251 519 276 546 307 565 c 0
 338 584 373 594 413 594 c 0
 462 594 504 579 538 549 c 0
 572 519 591 480 598 432 c 1
 549 432 l 1
 544 468 530 497 506 518 c 0
 482 539 451 549 414 549 c 0
 367 549 330 533 301 500 c 0
 272 467 258 422 258 369 c 0
 258 315 272 271 301 238 c 0
 330 205 367 188 413 188 c 0
 452 188 483 199 507 220 c 0
 531 241 545 270 550 305 c 1
 600 305 l 1
 593 256 572 216 539 187 c 0
 506 158 464 143 414 143 c 0
EndSplineSet
EndChar
StartChar: ordfeminine
Encoding: 170 170 309
Width: 385
Flags: HW
HStem: 423 51<127 223> 696 51<139 235>
VStem: 55 62<482 551> 64 60<650 683> 245 62<428 487 535 581 628 682> 253 61<428 487>
LayerCount: 3
Fore
SplineSet
254 428 m 1xc4
 252 436 251 444 250 454 c 0
 249 464 249 475 249 487 c 1
 245 487 l 1
 245 639 l 2
 245 658 241 672 232 682 c 0
 223 692 208 696 189 696 c 0
 171 696 155 693 143 684 c 0
 131 675 126 664 125 650 c 1
 64 650 l 1
 67 680 79 704 102 721 c 0
 125 738 154 748 191 748 c 0
 230 748 259 738 279 719 c 0
 299 700 308 673 308 638 c 2
 308 487 l 2xd8
 308 476 309 467 310 457 c 0
 311 447 312 438 314 428 c 1
 254 428 l 1xc4
152 423 m 0
 123 423 98 429 81 445 c 0
 64 461 55 482 55 509 c 0
 55 535 64 556 81 573 c 0
 98 590 126 601 162 608 c 2
 258 628 l 1
 258 581 l 1
 173 564 l 2
 156 561 143 555 133 548 c 0
 123 541 117 530 117 515 c 0
 117 501 122 491 131 484 c 0
 140 477 152 473 168 473 c 0
 190 473 209 479 224 491 c 0
 239 503 245 518 245 535 c 1xe8
 253 488 l 1xc4
 245 465 232 449 214 438 c 0
 196 427 175 423 152 423 c 0
EndSplineSet
Validated: 5
EndChar
StartChar: registered
Encoding: 174 174 424
Width: 845
Flags: HW
HStem: -14 37<315 531> 332 39<321 475> 339 15<477 508> 524 42<333 510> 686 37<315 531>
VStem: 54 39<242 466> 285 48<142 332 371 524> 321 12<332 371> 529 48<143 310> 536 48<142 192 396 501> 752 39<242 466>
LayerCount: 3
Fore
SplineSet
423 -14 m 256x9c20
 372 -14 323 -6 279 13 c 0
 235 32 196 59 162 93 c 0
 128 127 101 166 82 210 c 0
 63 254 54 304 54 355 c 256
 54 406 63 454 82 498 c 0
 101 542 128 582 162 616 c 0
 196 650 235 676 279 695 c 0
 323 714 372 724 423 724 c 256
 474 724 523 714 567 695 c 0
 611 676 650 650 684 616 c 0
 718 582 745 542 764 498 c 0
 783 454 792 406 792 355 c 256
 792 304 783 254 764 210 c 0
 745 166 718 127 684 93 c 0
 650 59 611 32 567 13 c 0
 523 -6 474 -14 423 -14 c 256x9c20
423 23 m 256
 468 23 511 32 551 49 c 0
 591 66 626 89 656 120 c 0
 686 151 710 187 727 227 c 0
 744 267 752 310 752 355 c 256
 752 400 744 442 727 482 c 0
 710 522 686 557 656 588 c 0
 626 619 591 643 551 660 c 0
 511 677 468 686 423 686 c 256
 378 686 335 677 295 660 c 0
 255 643 220 619 190 588 c 0
 160 557 136 522 119 482 c 0
 102 442 93 400 93 355 c 256
 93 310 102 267 119 227 c 0
 136 187 160 151 190 120 c 0
 220 89 255 66 295 49 c 0
 335 32 378 23 423 23 c 256
285 142 m 1xde60
 285 566 l 1
 442 566 l 2
 486 566 520 556 546 535 c 0
 572 514 584 487 584 451 c 0
 584 393 548 355 472 339 c 1
 477 356 l 1xbe60
 508 357 532 348 550 332 c 0
 568 316 577 292 577 262 c 2
 577 193 l 2
 577 185 577 179 578 170 c 0
 579 161 580 152 582 142 c 1
 533 142 l 1
 532 148 531 155 530 164 c 0
 529 173 529 182 529 193 c 2
 529 253 l 2
 529 279 521 298 507 311 c 0
 493 324 472 332 445 332 c 2
 321 332 l 1
 321 371 l 1xdda0
 440 371 l 2
 471 371 495 379 511 392 c 0
 527 405 536 425 536 449 c 256
 536 473 527 492 511 504 c 0
 495 516 471 524 440 524 c 2
 333 524 l 1
 333 142 l 1
 285 142 l 1xde60
EndSplineSet
Validated: 37
EndChar
StartChar: degree
Encoding: 176 176 426
Width: 390
Flags: HW
HStem: 442 48<136 255> 675 48<136 255>
VStem: 55 49<523 643> 287 49<523 643>
LayerCount: 3
Fore
SplineSet
197 442 m 0
 171 442 147 449 125 461 c 0
 103 473 86 491 74 513 c 0
 62 535 55 557 55 583 c 256
 55 609 62 632 74 653 c 0
 86 674 103 692 125 704 c 0
 147 716 171 724 197 724 c 0
 224 724 248 716 269 704 c 0
 290 692 306 674 318 653 c 0
 330 632 336 609 336 583 c 256
 336 557 330 535 318 513 c 0
 306 491 290 473 269 461 c 0
 248 449 224 442 197 442 c 0
197 490 m 0
 223 490 244 499 261 517 c 0
 278 535 287 557 287 583 c 0
 287 609 278 632 261 649 c 0
 244 666 223 675 197 675 c 0
 170 675 147 666 130 649 c 0
 113 632 105 609 105 583 c 0
 105 557 113 535 130 517 c 0
 147 499 170 490 197 490 c 0
EndSplineSet
Validated: 1
EndChar
StartChar: paragraph
Encoding: 182 182 421
Width: 684
Flags: HW
HStem: 647 62<409 532>
VStem: 45 364<418 608> 346 64<-128 321> 532 65<-128 647>
LayerCount: 3
Fore
SplineSet
346 -128 m 1xb0
 346 321 l 1xb0
 238 321 l 2
 201 321 167 329 138 345 c 0
 109 361 86 383 70 412 c 0
 54 441 45 474 45 511 c 0xd0
 45 549 54 584 70 614 c 0
 86 644 109 667 139 683 c 0
 169 699 203 708 241 708 c 2
 598 708 l 1
 598 -128 l 1
 532 -128 l 1
 532 647 l 1
 409 647 l 1
 409 -128 l 1
 346 -128 l 1xb0
EndSplineSet
Validated: 1
EndChar
StartChar: ordmasculine
Encoding: 186 186 310
Width: 410
Flags: HW
HStem: 423 53<148 262> 694 53<147 265>
VStem: 50 65<510 661> 296 65<509 662>
LayerCount: 3
Fore
SplineSet
205 423 m 0
 174 423 148 429 124 443 c 0
 100 457 81 477 69 502 c 0
 57 527 50 555 50 586 c 0
 50 634 65 672 93 702 c 0
 121 732 159 748 205 748 c 0
 252 748 290 732 318 702 c 0
 346 672 360 634 360 586 c 0
 360 539 346 499 318 468 c 0
 290 437 252 423 205 423 c 0
205 475 m 0
 233 475 256 486 272 506 c 0
 288 526 296 554 296 587 c 0
 296 620 288 646 272 665 c 0
 256 684 233 694 205 694 c 0
 178 694 157 684 140 665 c 0
 123 646 115 620 115 587 c 0
 115 554 123 526 140 506 c 0
 157 486 178 475 205 475 c 0
EndSplineSet
EndChar
StartChar: guillemotright
Encoding: 187 187 399
Width: 546
Flags: HW
LayerCount: 3
Fore
SplineSet
335 444 m 1
 466 257 l 1
 335 70 l 1
 255 70 l 1
 382 257 l 1
 255 444 l 1
 335 444 l 1
173 444 m 1
 305 257 l 1
 173 70 l 1
 92 70 l 1
 219 257 l 1
 92 444 l 1
 173 444 l 1
EndSplineSet
EndChar
StartChar: questiondown
Encoding: 191 191 344
Width: 589
Flags: HW
HStem: -172 75<183 406> 493 104<238 342>
VStem: 49 80<-49 93> 238 103<493 597> 251 76<271 383>
LayerCount: 3
Fore
SplineSet
327 383 m 1xe8
 327 335 324 301 318 282 c 0
 309 255 295 233 278 215 c 0
 261 197 246 181 229 167 c 0
 212 153 196 140 181 126 c 0
 166 112 153 97 143 81 c 0
 134 66 130 45 129 20 c 0
 128 -17 140 -46 168 -66 c 0
 197 -88 235 -98 280 -97 c 0
 325 -96 368 -88 408 -76 c 1
 411 -153 l 1
 372 -165 327 -172 272 -172 c 0
 221 -172 179 -163 147 -146 c 0
 119 -131 96 -110 77 -81 c 0
 58 -52 49 -18 49 22 c 0
 49 53 53 79 63 100 c 0
 73 121 86 139 101 154 c 0
 116 169 133 185 152 197 c 0
 176 214 194 228 206 240 c 0
 218 252 230 269 239 290 c 0
 248 311 251 342 251 383 c 1
 327 383 l 1xe8
342 597 m 1xf0
 342 493 l 1
 238 493 l 1
 238 597 l 1
 342 597 l 1xf0
EndSplineSet
Substitution2: "'ss01' Style Set 1 in Latin lookup 22 subtable" questiondown.ss01
Substitution2: "'case' Case-Sensitive Forms in Latin lookup 20 subtable" questiondown.case
AlternateSubs2: "'aalt' Access All Alternates in Latin lookup 1 subtable" questiondown.case questiondown.ss01
EndChar
StartChar: AE
Encoding: 198 198 12
Width: 899
Flags: HW
HStem: 0 70<495 826> 334 69<214 793> 639 70<320 819>
VStem: 453 79<70 708> 495 37<0 70>
LayerCount: 3
Fore
SplineSet
40 0 m 1xe0
 298 708 l 1
 368 708 l 1
 116 0 l 1
 40 0 l 1xe0
453 0 m 1xf0
 453 708 l 1
 532 708 l 1xf0
 532 0 l 1xe8
 453 0 l 1xf0
495 0 m 1xe8
 495 70 l 1
 826 70 l 1
 826 0 l 1
 495 0 l 1xe8
214 334 m 1
 214 404 l 1
 793 404 l 1
 793 334 l 1
 214 334 l 1
320 639 m 1
 320 708 l 1
 819 708 l 1
 819 639 l 1
 320 639 l 1
EndSplineSet
Validated: 5
EndChar
StartChar: Eth
Encoding: 208 208 20
Width: 764
GlyphClass: 2
Flags: HW
HStem: 0 73<150 457> 335 68<14 386> 665 73<148 460>
VStem: 150 33<0 73 665 737> 617 84<241 502>
CounterMasks: 1 e0
AnchorPoint: "Anchor-2" 383 0 basechar 0
AnchorPoint: "Anchor-0" 383 737 basechar 0
LayerCount: 3
Fore
SplineSet
14 335 m 1
 14 402 l 1
 386 402 l 1
 386 335 l 1
 14 335 l 1
150 0 m 1
 150 73 l 1
 336 73 l 2
 395 73 445 85 487 110 c 0
 529 135 560 169 583 214 c 0
 606 259 617 312 617 373 c 0
 617 433 606 484 583 528 c 0
 560 572 529 605 487 629 c 0
 445 653 395 665 336 665 c 2
 148 665 l 1
 148 737 l 1
 336 737 l 2
 410 737 473 722 528 692 c 0
 583 662 625 620 655 565 c 0
 685 510 701 446 701 372 c 256
 701 298 685 232 655 176 c 0
 625 120 582 77 527 46 c 0
 472 15 410 0 337 0 c 2
 150 0 l 1
100 0 m 1
 100 737 l 1
 183 737 l 1
 183 0 l 1
 100 0 l 1
EndSplineSet
EndChar
StartChar: multiply
Encoding: 215 215 438
Width: 533
Flags: HW
LayerCount: 3
Fore
SplineSet
415 171 m 1
 73 514 l 1
 119 560 l 1
 461 217 l 1
 415 171 l 1
119 171 m 1
 73 217 l 1
 415 560 l 1
 461 514 l 1
 119 171 l 1
EndSplineSet
Validated: 5
Substitution2: "'tnum' Tabular Numbers in Latin lookup 19 subtable" multiply.tf
Substitution2: "'aalt' Access All Alternates in Latin lookup 0 subtable" multiply.tf
EndChar
StartChar: Oslash
Encoding: 216 216 70
Width: 793
GlyphClass: 2
Flags: HW
HStem: -10 75<294 498> 673 75<292 501>
VStem: 63 84<234 509> 647 85<237 509>
AnchorPoint: "Anchor-3" 536 20 basechar 0
AnchorPoint: "Anchor-2" 397 0 basechar 0
AnchorPoint: "Anchor-1" 760 737 basechar 0
AnchorPoint: "Anchor-0" 397 737 basechar 0
LayerCount: 3
Fore
SplineSet
121 -10 m 1
 72 30 l 1
 673 748 l 1
 723 708 l 1
 121 -10 l 1
397 -10 m 0
 348 -10 304 -1 263 18 c 0
 222 37 187 63 157 97 c 0
 127 131 104 171 88 217 c 0
 72 263 63 316 63 372 c 0
 63 446 78 510 106 567 c 0
 134 624 173 668 223 700 c 0
 273 732 331 748 396 748 c 0
 462 748 521 732 571 700 c 0
 621 668 660 624 689 567 c 0
 718 510 731 446 731 372 c 0
 731 316 723 263 706 217 c 0
 689 171 667 131 637 97 c 0
 607 63 571 37 530 18 c 0
 489 -1 445 -10 397 -10 c 0
396 65 m 256
 446 65 487 77 526 103 c 0
 565 129 594 165 615 212 c 0
 636 259 647 313 647 373 c 256
 647 433 637 485 616 530 c 0
 595 575 566 610 527 635 c 0
 488 660 447 673 396 673 c 256
 345 673 302 660 265 635 c 0
 228 610 198 575 178 530 c 0
 158 485 146 433 146 373 c 0
 146 312 158 258 179 212 c 0
 200 166 229 129 266 103 c 0
 303 77 346 65 396 65 c 256
EndSplineSet
EndChar
StartChar: Thorn
Encoding: 222 222 74
Width: 672
Flags: HW
HStem: 0 22G<101 184> 165 73<162 472> 520 73<162 472> 717 20G<101 184>
VStem: 101 83<0 165 238 520 593 737> 162 23<165 238 520 593> 535 82<297 460>
LayerCount: 3
Fore
SplineSet
162 165 m 1xf6
 162 238 l 1
 371 238 l 2
 425 238 465 249 493 274 c 0
 521 299 535 334 535 379 c 256
 535 424 521 458 493 483 c 0
 465 508 425 520 371 520 c 2
 162 520 l 1
 162 593 l 1
 374 593 l 2
 425 593 468 584 504 567 c 0
 540 550 569 525 588 493 c 0
 607 461 617 423 617 379 c 0
 617 335 607 297 588 265 c 0
 569 233 540 208 504 191 c 0
 468 174 425 165 374 165 c 2
 162 165 l 1xf6
101 0 m 1xfa
 101 737 l 1
 184 737 l 1
 184 0 l 1
 101 0 l 1xfa
EndSplineSet
Validated: 5
EndChar
StartChar: germandbls
Encoding: 223 223 233
Width: 631
Flags: HW
HStem: -9 68<259 434> 0 21G<92 181> 352 71<278 350> 379 21<361 477> 683 65<242 405>
VStem: 92 88<0 615> 456 87<477 631> 493 88<113 283>
LayerCount: 3
Fore
SplineSet
580 199 m 0x5d
 580 86 498 -9 328 -9 c 0x9d
 308 -9 282 -9 258 -4 c 1x4d
 258 63 l 5
 274 60 287 59 322 59 c 0
 387 59 432 72 458 98 c 0
 484 124 493 158 493 201 c 0x8d
 493 287 439 352 337 352 c 2
 278 352 l 1
 278 423 l 1
 329 423 l 2
 401 423 456 473 456 549 c 0
 456 573 454 683 321 683 c 0
 282 683 181 669 181 516 c 2
 181 0 l 1
 92 0 l 1
 92 520 l 2
 92 592 114 648 155 688 c 0
 196 728 251 748 320 748 c 0
 450 748 543 675 543 556 c 0x6e
 543 463 478 379 361 379 c 1
 354 400 l 1
 518 400 580 293 580 199 c 0x5d
EndSplineSet
EndChar
StartChar: ae
Encoding: 230 230 161
Width: 831
Flags: HW
HStem: -10 66<152 306 507 654> 229 65<412 712> 446 66<178 327 510 653>
VStem: 50 78<78 184> 65 75<357 408> 357 78<165 229 246 310 339 376> 365 13<246 308> 412 23<229 293>
LayerCount: 3
Fore
SplineSet
357 132 m 1xe4
 357 339 l 2
 357 376 349 403 333 420 c 0
 317 437 291 446 256 446 c 256
 221 446 194 437 174 422 c 0
 154 407 143 385 140 357 c 1
 65 357 l 1
 68 406 86 442 121 470 c 0
 156 498 201 511 260 511 c 256
 319 511 363 497 392 468 c 0
 421 439 435 396 435 339 c 2xec
 435 132 l 1xe1
 357 132 l 1xe4
209 -10 m 0
 160 -10 122 2 93 27 c 0
 64 52 50 85 50 126 c 0
 50 166 64 199 91 225 c 0
 118 251 160 269 219 281 c 2
 378 310 l 1
 378 246 l 1
 232 220 l 2
 195 213 169 203 153 188 c 0
 137 173 128 153 128 129 c 0xf2
 128 106 136 87 152 75 c 0
 168 63 192 56 223 56 c 0
 249 56 272 60 292 70 c 0
 312 80 328 93 340 109 c 0
 352 125 357 143 357 165 c 1
 418 132 l 1
 399 80 370 43 333 22 c 0
 296 1 254 -10 209 -10 c 0
577 -10 m 0
 533 -10 496 2 464 24 c 0
 432 46 408 77 391 116 c 0
 374 155 365 201 365 253 c 0
 365 304 374 349 392 388 c 0
 410 427 435 458 468 480 c 0
 501 502 538 511 581 511 c 0
 623 511 661 501 692 481 c 0
 723 461 747 433 763 396 c 0
 779 359 787 315 787 264 c 0
 787 257 787 253 787 247 c 0
 787 241 786 236 785 229 c 1
 412 229 l 1
 412 293 l 1xe3
 738 293 l 1
 712 257 l 1
 712 319 701 366 679 398 c 0
 657 430 624 446 580 446 c 0
 552 446 528 437 506 422 c 0
 484 407 466 385 454 356 c 0
 442 327 435 292 435 253 c 0xe4
 435 193 449 146 475 110 c 0
 501 74 536 56 581 56 c 0
 610 56 635 64 655 78 c 0
 675 92 690 113 700 141 c 1
 774 141 l 1
 759 95 734 58 700 31 c 0
 666 4 625 -10 577 -10 c 0
EndSplineSet
Validated: 5
EndChar
StartChar: eth
Encoding: 240 240 166
Width: 607
Flags: HW
HStem: -10 73<208 377> 437 70<208 377> 682 66<127 271>
VStem: 51 83<140 359> 460 95<181 426>
LayerCount: 3
Fore
SplineSet
292 -10 m 0
 247 -10 205 0 168 20 c 0
 131 40 104 69 83 108 c 0
 62 147 51 192 51 247 c 0
 51 302 62 349 83 388 c 0
 104 427 132 456 167 476 c 0
 202 496 243 507 286 507 c 0
 321 507 353 500 382 488 c 0
 411 476 436 458 456 434 c 0
 476 410 489 382 494 351 c 1
 473 306 l 1
 473 366 l 2
 473 434 459 492 431 539 c 0
 403 586 362 622 309 646 c 0
 256 670 191 682 116 682 c 1
 127 748 l 1
 192 748 251 738 303 721 c 0
 355 704 398 679 437 646 c 0
 476 613 504 572 524 523 c 0
 544 474 554 418 554 353 c 0
 554 236 531 145 484 83 c 0
 437 21 373 -10 292 -10 c 0
289 62 m 0
 322 62 351 70 377 85 c 0
 403 100 423 122 438 151 c 0
 453 180 460 215 460 257 c 0
 460 297 452 331 436 357 c 0
 420 383 399 403 373 417 c 0
 347 431 321 437 291 437 c 0
 245 437 207 421 178 390 c 0
 149 359 134 311 134 248 c 0
 134 207 141 173 155 145 c 0
 169 117 186 97 210 83 c 0
 234 69 260 62 289 62 c 0
200 542 m 1
 167 592 l 1
 448 773 l 1
 480 723 l 1
 200 542 l 1
EndSplineSet
EndChar
StartChar: divide
Encoding: 247 247 430
Width: 544
Flags: HW
HStem: 152 117<232 313> 345 68<63 484> 493 116<232 313>
VStem: 215 116<168 251 509 592>
LayerCount: 3
Fore
SplineSet
63 345 m 1
 63 414 l 1
 484 414 l 1
 484 345 l 1
 63 345 l 1
274 493 m 0
 257 493 243 497 232 508 c 0
 221 519 215 533 215 551 c 0
 215 568 221 581 232 592 c 0
 243 603 257 608 274 608 c 0
 290 608 302 603 313 592 c 0
 324 581 331 568 331 551 c 0
 331 533 324 519 313 508 c 0
 302 497 290 493 274 493 c 0
274 152 m 0
 257 152 243 156 232 167 c 0
 221 178 215 192 215 210 c 0
 215 227 221 241 232 252 c 0
 243 263 257 268 274 268 c 0
 290 268 302 263 313 252 c 0
 324 241 331 227 331 210 c 0
 331 192 324 178 313 167 c 0
 302 156 290 152 274 152 c 0
EndSplineSet
Substitution2: "'tnum' Tabular Numbers in Latin lookup 19 subtable" divide.tf
Substitution2: "'aalt' Access All Alternates in Latin lookup 0 subtable" divide.tf
EndChar
StartChar: oslash
Encoding: 248 248 221
Width: 567
Flags: HW
HStem: -10 66<205 363> 446 66<204 365> 485 19G<467 505>
VStem: 45 79<142 359> 444 80<147 364>
LayerCount: 3
Fore
SplineSet
284 -10 m 256xd8
 236 -10 195 2 158 25 c 0
 121 48 94 79 75 118 c 0
 56 157 45 203 45 253 c 0
 45 304 55 348 75 386 c 0
 95 424 122 457 158 479 c 0
 194 501 236 511 284 511 c 256
 332 511 374 501 410 479 c 0
 446 457 474 424 494 386 c 0
 514 348 524 304 524 253 c 0
 524 203 514 157 494 118 c 0
 474 79 446 48 410 25 c 0
 374 2 332 -10 284 -10 c 256xd8
284 56 m 256
 317 56 345 65 369 81 c 0
 393 97 411 121 424 151 c 0
 437 181 444 216 444 254 c 0
 444 313 430 359 401 394 c 0
 372 429 333 446 284 446 c 256
 235 446 197 429 168 394 c 0
 139 359 124 313 124 254 c 0
 124 216 131 181 144 151 c 0
 157 121 175 97 199 81 c 0
 223 65 251 56 284 56 c 256
82 -3 m 1
 42 36 l 1
 485 504 l 1xb8
 525 466 l 1
 82 -3 l 1
EndSplineSet
Validated: 5
EndChar
StartChar: thorn
Encoding: 254 254 222
Width: 620
Flags: HW
HStem: -9 71<244 411> 462 71<246 410> 717 20G<90 172>
VStem: 90 81<-210 125 137 385 407 737> 486 83<146 376>
LayerCount: 3
Fore
SplineSet
340 -9 m 0
 293 -9 252 3 220 26 c 0
 188 49 168 82 156 125 c 1
 172 128 l 1
 172 -210 l 1
 90 -210 l 1
 90 737 l 1
 172 737 l 1
 172 402 l 1
 156 407 l 1
 168 447 191 478 226 500 c 0
 261 522 300 532 346 532 c 0
 391 532 431 522 464 500 c 0
 497 478 524 446 542 406 c 0
 560 366 569 318 569 264 c 0
 569 209 560 161 541 120 c 0
 522 79 495 48 461 25 c 0
 427 2 386 -9 340 -9 c 0
328 61 m 0
 379 61 417 81 445 116 c 0
 473 151 486 200 486 263 c 0
 486 325 472 374 444 409 c 0
 416 444 378 462 328 462 c 256
 278 462 239 444 210 409 c 0
 181 374 166 323 166 260 c 0
 166 198 181 149 210 114 c 0
 239 79 278 61 328 61 c 0
EndSplineSet
EndChar
StartChar: dcroat
Encoding: 273 273 168
Width: 620
GlyphClass: 2
Flags: HW
HStem: -10 71<212 378> 0 22G<457 531> 461 71<213 378> 609 58<278 611> 717 20G<451 531>
VStem: 54 82<145 376> 451 80<0 116 139 383 396 737>
AnchorPoint: "Anchor-2" 311 0 basechar 0
AnchorPoint: "Anchor-1" 601 737 basechar 0
AnchorPoint: "Anchor-0" 311 756 basechar 0
LayerCount: 3
Fore
SplineSet
278 609 m 1x3e
 278 668 l 1
 611 668 l 1
 611 609 l 1
 278 609 l 1x3e
457 0 m 1x7e
 457 120 l 1
 466 116 l 1
 454 77 430 47 397 24 c 0
 364 1 326 -10 280 -10 c 256xbe
 234 -10 194 1 160 24 c 0
 126 47 100 77 82 117 c 0
 64 157 54 204 54 259 c 256
 54 314 63 361 82 402 c 0
 101 443 128 475 162 498 c 0
 196 521 237 531 283 531 c 0
 330 531 369 520 401 497 c 0
 433 474 456 439 467 396 c 1
 451 394 l 1
 451 737 l 1
 531 737 l 1
 531 0 l 1
 457 0 l 1x7e
294 60 m 0
 345 60 385 79 413 114 c 0
 441 149 456 199 456 262 c 0
 456 324 442 373 413 408 c 0
 384 443 344 461 294 461 c 256
 244 461 206 443 178 408 c 0
 150 373 136 324 136 259 c 0
 136 197 150 148 178 113 c 0
 206 78 244 60 294 60 c 0
EndSplineSet
EndChar
StartChar: Hbar
Encoding: 294 294 38
Width: 746
GlyphClass: 2
Flags: HW
HStem: 0 22G<98 181 567 650> 348 72<141 602> 555 68<12 735> 717 20G<98 181 567 650>
VStem: 98 83<0 348 420 737> 141 40<348 420> 567 83<0 348 420 737> 567 36<348 420>
AnchorPoint: "Anchor-2" 373 0 basechar 0
AnchorPoint: "Anchor-0" 373 737 basechar 0
LayerCount: 3
Fore
SplineSet
12 555 m 1xf0
 12 623 l 1
 735 623 l 1
 735 555 l 1
 12 555 l 1xf0
98 0 m 1xf8
 98 737 l 1
 181 737 l 1
 181 0 l 1
 98 0 l 1xf8
567 0 m 1xf2
 567 737 l 1
 650 737 l 1
 650 0 l 1
 567 0 l 1xf2
141 420 m 1xf5
 602 420 l 1
 602 348 l 1
 141 348 l 1
 141 420 l 1xf5
EndSplineSet
EndChar
StartChar: hbar
Encoding: 295 295 187
Width: 580
GlyphClass: 2
Flags: HW
HStem: 0 21G<82 160 428 504> 444 68<241 394> 585 56<6 327> 689 19G<82 160>
VStem: 82 78<0 279 394 708> 428 77<0 408>
AnchorPoint: "Anchor-2" 308 0 basechar 0
AnchorPoint: "Anchor-0" 308 502 basechar 0
LayerCount: 3
Fore
SplineSet
6 585 m 1
 6 642 l 1
 327 642 l 1
 327 585 l 1
 6 585 l 1
82 0 m 1
 82 708 l 1
 160 708 l 1
 160 0 l 1
 82 0 l 1
428 0 m 1
 428 333 l 2
 428 370 419 398 401 416 c 0
 383 434 357 444 320 444 c 0
 288 444 260 437 236 423 c 0
 212 409 193 389 180 364 c 0
 167 339 160 312 160 279 c 1
 148 394 l 1
 164 431 189 459 223 480 c 0
 257 501 295 511 337 511 c 0
 388 511 428 497 459 468 c 0
 490 439 504 402 504 354 c 2
 504 0 l 1
 428 0 l 1
EndSplineSet
Validated: 5
EndChar
StartChar: dotlessi
Encoding: 305 305 189
Width: 242
GlyphClass: 2
Flags: HW
HStem: 0 21G<79 165> 482 20G<79 165>
VStem: 79 86<0 502>
AnchorPoint: "Anchor-3" 160 0 basechar 0
AnchorPoint: "Anchor-2" 121 0 basechar 0
AnchorPoint: "Anchor-0" 121 502 basechar 0
LayerCount: 3
Fore
SplineSet
79 0 m 1
 79 502 l 1
 165 502 l 1
 165 0 l 1
 79 0 l 1
EndSplineSet
Validated: 1
EndChar
StartChar: Lslash
Encoding: 321 321 55
Width: 562
GlyphClass: 2
Flags: HW
HStem: 0 70<130 511> 689 19G<88 168>
VStem: 88 80<70 339 406 708> 130 38<0 70 343 406>
AnchorPoint: "Anchor-2" 317 0 basechar 0
AnchorPoint: "Anchor-1" 375 708 basechar 0
AnchorPoint: "Anchor-0" 127 708 basechar 0
LayerCount: 3
Fore
SplineSet
132 339 m 1xc0
 6 287 l 1
 6 351 l 1
 130 402 l 1
 132 339 l 1xc0
130 406 m 1
 308 479 l 1
 308 416 l 1
 132 343 l 1
 130 406 l 1
88 0 m 1xe0
 88 708 l 1
 168 708 l 1xe0
 168 0 l 1xd0
 88 0 l 1xe0
130 0 m 1xd0
 130 70 l 1
 511 70 l 1
 511 0 l 1
 130 0 l 1xd0
EndSplineSet
Validated: 5
EndChar
StartChar: lslash
Encoding: 322 322 203
Width: 293
GlyphClass: 2
Flags: HW
HStem: 0 22G<107 187> 717 20G<107 187>
VStem: 107 80<0 354 423 737> 147 39<358 423>
AnchorPoint: "Anchor-2" 147 0 basechar 0
AnchorPoint: "Anchor-1" 257 737 basechar 0
AnchorPoint: "Anchor-0" 147 737 basechar 0
LayerCount: 3
Fore
SplineSet
149 354 m 1xd0
 18 300 l 1
 18 365 l 1
 147 418 l 1
 149 354 l 1xd0
147 423 m 1
 275 475 l 1
 275 411 l 1
 149 358 l 1
 147 423 l 1
107 0 m 1xe0
 107 737 l 1
 187 737 l 1
 187 0 l 1
 107 0 l 1xe0
EndSplineSet
EndChar
StartChar: Eng
Encoding: 330 330 62
Width: 706
Flags: HW
HStem: -211 70<404 525> 0 25<545 619> 689 19G<88 185 544 619>
VStem: 88 76<0 597> 544 75<-125 25 112 708>
LayerCount: 3
Fore
SplineSet
88 0 m 1
 88 708 l 1
 172 708 l 1
 565 112 l 1
 544 111 l 1
 544 708 l 1
 619 708 l 1
 619 0 l 1
 545 0 l 1
 153 597 l 1
 164 599 l 1
 164 0 l 1
 88 0 l 1
473 -211 m 0
 456 -211 442 -211 430 -209 c 0
 418 -207 410 -204 404 -202 c 1
 404 -133 l 1
 411 -135 419 -136 430 -138 c 0
 441 -140 453 -141 466 -141 c 0
 496 -141 515 -137 526 -126 c 0
 537 -115 542 -98 542 -76 c 2
 542 25 l 1
 619 25 l 1
 619 -79 l 2
 619 -118 607 -150 584 -175 c 0
 561 -200 525 -211 473 -211 c 0
EndSplineSet
Validated: 5
EndChar
StartChar: eng
Encoding: 331 331 210
Width: 623
Flags: HW
HStem: -220 65<342 440> 0 22G<95 177> 462 71<261 420> 502 20G<95 171>
VStem: 95 81<0 290 410 522> 455 80<-138 425>
LayerCount: 3
Fore
SplineSet
393 -220 m 0xec
 381 -220 369 -218 361 -217 c 0
 353 -216 347 -215 342 -213 c 1
 342 -150 l 1
 346 -151 352 -153 360 -154 c 0
 368 -155 377 -156 387 -156 c 0
 412 -156 430 -150 440 -139 c 0
 450 -128 455 -111 455 -89 c 2
 455 347 l 2
 455 386 446 414 427 433 c 0
 408 452 382 462 343 462 c 0
 310 462 281 455 256 440 c 0
 231 425 211 405 197 379 c 0
 183 353 177 324 177 290 c 1
 164 410 l 1
 181 449 207 478 242 500 c 0
 277 522 317 532 361 532 c 0
 414 532 456 517 488 487 c 0
 520 457 534 418 534 368 c 2
 534 -93 l 2
 534 -133 525 -165 502 -187 c 0
 479 -209 443 -220 393 -220 c 0xec
95 0 m 1
 95 522 l 1
 171 522 l 1xdc
 171 402 l 1
 177 402 l 1
 177 0 l 1
 95 0 l 1
EndSplineSet
EndChar
StartChar: OE
Encoding: 338 338 72
Width: 1008
Flags: HW
HStem: -10 72<285 504> 0 70<583 938> 334 69<583 903> 639 70<583 930> 647 72<285 504>
VStem: 54 81<224 487> 504 79<70 334 404 623> 504 33<7 7 623 701>
LayerCount: 3
Fore
SplineSet
402 -10 m 0xad
 331 -10 269 6 217 37 c 0
 165 68 124 110 96 165 c 0
 68 220 54 284 54 356 c 0
 54 427 68 489 96 544 c 0
 124 599 165 641 217 672 c 0
 269 703 331 719 402 719 c 0
 430 719 455 717 477 714 c 0
 499 711 520 707 537 701 c 1
 537 623 l 1
 524 631 504 637 480 641 c 0
 456 645 430 647 402 647 c 0
 344 647 295 634 255 610 c 0
 215 586 185 552 165 509 c 0
 145 466 134 415 134 356 c 256
 134 297 145 244 165 200 c 0
 185 156 215 122 255 98 c 0
 295 74 344 62 402 62 c 0
 430 62 456 64 480 68 c 0
 504 72 524 78 537 86 c 1
 537 7 l 1
 520 1 499 -3 477 -6 c 0
 455 -9 430 -10 402 -10 c 0xad
504 0 m 1x75
 504 708 l 1x75
 930 708 l 1
 930 639 l 1
 583 639 l 1
 583 404 l 1
 903 404 l 1
 903 334 l 1
 583 334 l 1
 583 70 l 1x76
 938 70 l 1
 938 0 l 1
 504 0 l 1x75
EndSplineSet
Validated: 5
EndChar
StartChar: oe
Encoding: 339 339 220
Width: 947
Flags: HW
HStem: -10 69<213 364 607 756> 238 68<504 822> 464 69<211 366 604 754>
VStem: 50 82<153 374> 455 73<216 310> 504 12<239 304>
LayerCount: 3
Fore
SplineSet
289 -10 m 256xf4
 243 -10 200 2 164 26 c 0
 128 50 100 82 80 123 c 0
 60 164 50 211 50 263 c 0
 50 316 61 362 81 402 c 0
 101 442 128 475 164 498 c 0
 200 521 243 532 289 532 c 256
 335 532 376 521 410 498 c 0
 444 475 470 442 489 402 c 0
 508 362 517 316 517 263 c 0
 517 211 508 164 489 123 c 0
 470 82 444 50 410 26 c 0
 376 2 335 -10 289 -10 c 256xf4
289 58 m 256
 320 58 346 67 369 84 c 0
 392 101 411 126 423 157 c 0
 435 188 444 224 444 264 c 0
 444 305 435 340 423 370 c 0
 411 400 392 423 369 439 c 0
 346 455 320 464 289 464 c 256
 258 464 231 455 208 439 c 0
 185 423 167 400 153 370 c 0
 139 340 132 305 132 264 c 0
 132 224 139 188 153 157 c 0
 167 126 185 101 208 84 c 0
 231 67 258 58 289 58 c 256
678 -10 m 0
 634 -10 596 2 562 25 c 0
 528 48 502 80 483 121 c 0
 464 162 455 209 455 263 c 0xf8
 455 316 464 363 483 404 c 0
 502 445 528 477 562 500 c 0
 596 523 636 532 682 532 c 0
 725 532 763 522 796 501 c 0
 829 480 855 451 873 412 c 0
 891 373 900 328 900 275 c 0
 900 268 900 263 900 257 c 0
 900 251 898 245 897 238 c 1
 504 238 l 1
 504 305 l 1xf4
 849 305 l 1
 822 267 l 1
 821 332 808 381 783 414 c 0
 758 447 725 464 682 464 c 0
 652 464 625 455 601 439 c 0
 577 423 559 400 547 370 c 0
 535 340 526 304 526 263 c 256xf8
 526 222 535 187 547 156 c 0
 559 125 577 101 601 84 c 0
 625 67 652 58 683 58 c 0
 710 58 736 66 759 81 c 0
 782 96 799 118 810 147 c 1
 885 147 l 1
 869 99 842 60 805 32 c 0
 768 4 726 -10 678 -10 c 0
EndSplineSet
EndChar
StartChar: uni0237
Encoding: 567 567 199
Width: 242
GlyphClass: 2
Flags: HW
HStem: -171.75 62<-26.4346 71.0379> 482 20G<81 167>
VStem: 81 86<-99.1029 502>
AnchorPoint: "Anchor-2" 121 -162.75 basechar 0
AnchorPoint: "Anchor-0" 121 502 basechar 0
LayerCount: 3
Fore
SplineSet
23 -171.75 m 4
 -1 -170.75 -18 -169.75 -27 -166.75 c 5
 -27 -102.75 l 5
 -15 -106.75 1 -109.75 17 -109.75 c 4
 70 -109.75 81 -86.75 81 -50.75 c 6
 81 502 l 1
 167 502 l 1
 167 -54.75 l 6
 167 -104.75 134 -171.75 32 -171.75 c 4
 28 -171.75 27 -171.75 23 -171.75 c 4
EndSplineSet
Validated: 1
EndChar
StartChar: gravecomb
Encoding: 768 768 459
Width: 0
GlyphClass: 4
Flags: HW
HStem: 597 160
VStem: 62 234
AnchorPoint: "Anchor-7" 216 758 basemark 0
AnchorPoint: "Anchor-7" 216 522 mark 0
AnchorPoint: "Anchor-4" 216 522 mark 0
AnchorPoint: "Anchor-0" 216 522 mark 0
LayerCount: 3
Fore
SplineSet
221 597 m 1
 62 758 l 1
 182 758 l 1
 296 597 l 1
 221 597 l 1
EndSplineSet
EndChar
StartChar: acutecomb
Encoding: 769 769 469
Width: 11
GlyphClass: 4
Flags: HW
HStem: 574 155
VStem: 65 225
AnchorPoint: "Anchor-7" 142 728 basemark 0
AnchorPoint: "Anchor-7" 142 502 mark 0
AnchorPoint: "Anchor-4" 142 502 mark 0
AnchorPoint: "Anchor-0" 142 502 mark 0
LayerCount: 3
Fore
SplineSet
136 574 m 1
 65 574 l 1
 173 728 l 1
 290 728 l 1
 136 574 l 1
EndSplineSet
Validated: 1
EndChar
StartChar: uni0302
Encoding: 770 770 463
Width: 10
GlyphClass: 4
Flags: HW
HStem: 597 161 717 20G<211 290>
AnchorPoint: "Anchor-7" 251 758 basemark 0
AnchorPoint: "Anchor-7" 251 522 mark 0
AnchorPoint: "Anchor-4" 251 522 mark 0
AnchorPoint: "Anchor-0" 251 522 mark 0
LayerCount: 3
Fore
SplineSet
67 597 m 1x80
 208 758 l 1
 294 758 l 1
 435 597 l 1
 363 597 l 1x80
 211 737 l 1
 290 737 l 1x40
 138 597 l 1
 67 597 l 1x80
EndSplineSet
EndChar
StartChar: tildecomb
Encoding: 771 771 467
Width: 10
GlyphClass: 4
Flags: HW
HStem: 608 60<285 373> 679 60<134 224>
VStem: 67 57<618 664> 384 57<683 729>
AnchorPoint: "Anchor-7" 254 739 basemark 0
AnchorPoint: "Anchor-7" 254 522 mark 0
AnchorPoint: "Anchor-4" 254 522 mark 0
AnchorPoint: "Anchor-0" 254 522 mark 0
LayerCount: 3
Fore
SplineSet
331 608 m 0
 311 608 294 612 280 619 c 0
 266 626 252 635 240 644 c 0
 228 653 218 661 207 668 c 0
 196 675 184 679 172 679 c 0
 158 679 146 675 137 665 c 0
 128 655 124 639 124 618 c 1
 67 618 l 1
 67 644 71 667 81 685 c 0
 91 703 104 717 121 726 c 0
 138 735 158 739 180 739 c 0
 200 739 218 736 232 729 c 0
 246 722 258 712 269 703 c 0
 280 694 290 686 301 679 c 0
 312 672 323 669 335 669 c 0
 349 669 360 673 369 683 c 0
 378 693 384 708 384 729 c 1
 441 729 l 1
 441 704 437 683 427 665 c 0
 417 647 405 633 388 623 c 0
 371 613 352 608 331 608 c 0
EndSplineSet
EndChar
StartChar: uni0304
Encoding: 772 772 468
Width: 0
GlyphClass: 4
Flags: HW
HStem: 658 57<62 406>
AnchorPoint: "Anchor-7" 233 716 basemark 0
AnchorPoint: "Anchor-7" 233 522 mark 0
AnchorPoint: "Anchor-4" 233 522 mark 0
AnchorPoint: "Anchor-0" 233 522 mark 0
LayerCount: 3
Fore
SplineSet
62 658 m 1
 62 716 l 1
 406 716 l 1
 406 658 l 1
 62 658 l 1
EndSplineSet
EndChar
StartChar: uni0306
Encoding: 774 774 474
Width: 11
GlyphClass: 4
Flags: HW
HStem: 570 65<155 291>
VStem: 65 61<665 728> 320 62<665 728>
AnchorPoint: "Anchor-7" 224 728 basemark 0
AnchorPoint: "Anchor-7" 224 502 mark 0
AnchorPoint: "Anchor-4" 224 502 mark 0
AnchorPoint: "Anchor-0" 224 502 mark 0
LayerCount: 3
Fore
SplineSet
224 570 m 0
 194 570 167 577 143 589 c 0
 119 601 98 620 85 644 c 0
 72 668 65 695 65 728 c 1
 126 728 l 1
 126 698 135 675 152 659 c 0
 169 643 193 634 224 634 c 0
 254 634 277 643 294 659 c 0
 311 675 320 698 320 728 c 1
 381 728 l 1
 381 695 374 668 360 644 c 0
 346 620 328 601 304 589 c 0
 280 577 254 570 224 570 c 0
EndSplineSet
Validated: 1
EndChar
StartChar: uni0307
Encoding: 775 775 467
Width: 11
GlyphClass: 4
Flags: HW
HStem: 617 91<65 155>
VStem: 65 90<617 708>
AnchorPoint: "Anchor-7" 110 708 basemark 0
AnchorPoint: "Anchor-7" 110 502 mark 0
AnchorPoint: "Anchor-4" 110 502 mark 0
AnchorPoint: "Anchor-0" 110 502 mark 0
LayerCount: 3
Fore
SplineSet
65 617 m 1
 65 708 l 1
 155 708 l 1
 155 617 l 1
 65 617 l 1
EndSplineSet
Validated: 1
Substitution2: "'ss01' Style Set 1 in Latin lookup 22 subtable" uni0307.ss01
Substitution2: "'aalt' Access All Alternates in Latin lookup 0 subtable" uni0307.ss01
EndChar
StartChar: uni0308
Encoding: 776 776 466
Width: 11
GlyphClass: 4
Flags: HW
HStem: 617 91<65 155 285 375>
VStem: 65 89<617 708> 285 89<617 708>
AnchorPoint: "Anchor-7" 220 708 basemark 0
AnchorPoint: "Anchor-7" 220 502 mark 0
AnchorPoint: "Anchor-4" 220 502 mark 0
AnchorPoint: "Anchor-0" 220 502 mark 0
LayerCount: 3
Fore
SplineSet
285 617 m 1
 285 708 l 1
 375 708 l 1
 375 617 l 1
 285 617 l 1
65 617 m 1
 65 708 l 1
 155 708 l 1
 155 617 l 1
 65 617 l 1
EndSplineSet
Validated: 1
Substitution2: "'ss01' Style Set 1 in Latin lookup 22 subtable" uni0308.ss01
Substitution2: "'aalt' Access All Alternates in Latin lookup 0 subtable" uni0308.ss01
EndChar
StartChar: uni030A
Encoding: 778 778 475
Width: 11
GlyphClass: 4
Flags: HW
HStem: 552 48<129 213> 715 48<130 213>
VStem: 65 50<614 701> 227 50<614 701>
AnchorPoint: "Anchor-7" 171 764 basemark 0
AnchorPoint: "Anchor-7" 171 502 mark 0
AnchorPoint: "Anchor-4" 171 502 mark 0
AnchorPoint: "Anchor-0" 171 502 mark 0
LayerCount: 3
Fore
SplineSet
171 552 m 256
 141 552 115 562 95 583 c 0
 75 604 65 628 65 658 c 0
 65 687 75 711 95 732 c 0
 115 753 141 764 171 764 c 256
 201 764 227 753 247 732 c 0
 267 711 277 687 277 658 c 0
 277 628 267 604 247 583 c 0
 227 562 201 552 171 552 c 256
171 601 m 0
 187 601 200 605 211 617 c 0
 222 629 227 642 227 658 c 0
 227 673 222 687 211 699 c 0
 200 711 187 715 171 715 c 256
 155 715 141 711 130 699 c 0
 119 687 115 673 115 658 c 0
 115 642 119 629 130 617 c 0
 141 605 154 601 171 601 c 0
EndSplineSet
Validated: 1
EndChar
StartChar: uni030B
Encoding: 779 779 461
Width: 0
GlyphClass: 4
Flags: HW
HStem: 597 161<117 127 316 326>
AnchorPoint: "Anchor-7" 209 758 basemark 0
AnchorPoint: "Anchor-7" 209 522 mark 0
AnchorPoint: "Anchor-4" 209 522 mark 0
AnchorPoint: "Anchor-0" 209 522 mark 0
LayerCount: 3
Fore
SplineSet
127 597 m 1
 62 597 l 1
 117 758 l 1
 213 758 l 1
 127 597 l 1
326 597 m 1
 259 597 l 1
 316 758 l 1
 411 758 l 1
 326 597 l 1
EndSplineSet
EndChar
StartChar: uni030C
Encoding: 780 780 473
Width: 11
GlyphClass: 4
Flags: HW
HStem: 574 155
AnchorPoint: "Anchor-7" 242 728 basemark 0
AnchorPoint: "Anchor-7" 242 502 mark 0
AnchorPoint: "Anchor-4" 242 502 mark 0
AnchorPoint: "Anchor-0" 242 502 mark 0
LayerCount: 3
Fore
SplineSet
201 574 m 1
 65 728 l 1
 134 728 l 1
 280 593 l 1
 204 593 l 1
 350 728 l 1
 419 728 l 1
 283 574 l 1
 201 574 l 1
EndSplineSet
Validated: 5
EndChar
StartChar: uni0312
Encoding: 786 786 478
Width: 11
GlyphClass: 4
Flags: HW
HStem: 572 99<115 172> 666 5<86 115>
VStem: 70 102<572 665>
AnchorPoint: "Anchor-7" 121 789 basemark 0
AnchorPoint: "Anchor-7" 121 502 mark 0
AnchorPoint: "Anchor-4" 121 502 mark 0
AnchorPoint: "Anchor-0" 121 502 mark 0
LayerCount: 3
Fore
SplineSet
70 572 m 1xa0
 70 649 l 2
 70 681 78 709 94 735 c 0
 110 761 136 779 172 789 c 1
 172 750 l 1
 155 742 141 732 130 719 c 0
 119 706 115 688 115 666 c 1
 86 671 l 1x60
 172 671 l 1
 172 572 l 1
 70 572 l 1xa0
EndSplineSet
Validated: 5
Substitution2: "'ss01' Style Set 1 in Latin lookup 22 subtable" uni0312.ss01
Substitution2: "'aalt' Access All Alternates in Latin lookup 0 subtable" uni0312.ss01
EndChar
StartChar: uni0326
Encoding: 806 806 479
Width: 11
GlyphClass: 4
Flags: HW
HStem: -170 99<70 127> -170 5<127 155>
VStem: 70 102<-164 -71>
AnchorPoint: "Anchor-6" 121 -288 basemark 0
AnchorPoint: "Anchor-6" 121 0 mark 0
AnchorPoint: "Anchor-5" 121 0 mark 0
AnchorPoint: "Anchor-2" 121 0 mark 0
LayerCount: 3
Fore
SplineSet
70 -288 m 1xa0
 70 -249 l 1
 87 -241 100 -230 111 -217 c 0
 122 -204 127 -186 127 -165 c 1
 155 -170 l 1x60
 70 -170 l 1
 70 -71 l 1
 172 -71 l 1
 172 -148 l 2
 172 -180 163 -208 147 -234 c 0
 131 -260 105 -277 70 -288 c 1xa0
EndSplineSet
Validated: 5
Substitution2: "'ss01' Style Set 1 in Latin lookup 22 subtable" uni0326.ss01
Substitution2: "'aalt' Access All Alternates in Latin lookup 0 subtable" uni0326.ss01
EndChar
StartChar: uni0327
Encoding: 807 807 480
Width: 11
GlyphClass: 4
Flags: HW
HStem: -211 50<124 230> -85 96<166 205>
VStem: 65 54<-154 -125> 233 57<-156 -99>
AnchorPoint: "Anchor-6" 178 -211 basemark 0
AnchorPoint: "Anchor-6" 187 0 mark 0
AnchorPoint: "Anchor-5" 187 0 mark 0
AnchorPoint: "Anchor-2" 187 0 mark 0
LayerCount: 3
Fore
SplineSet
178 -211 m 0
 144 -211 117 -203 97 -188 c 0
 77 -173 66 -151 65 -125 c 1
 119 -125 l 1
 120 -138 127 -147 139 -153 c 0
 151 -159 165 -161 180 -161 c 0
 194 -161 206 -159 217 -153 c 0
 228 -147 233 -140 233 -129 c 0
 233 -117 226 -107 214 -99 c 0
 202 -91 179 -87 143 -85 c 1
 166 12 l 1
 222 12 l 1
 205 -44 l 1
 236 -51 259 -62 271 -77 c 0
 283 -92 290 -110 290 -128 c 0
 290 -155 279 -176 258 -190 c 0
 237 -204 211 -211 178 -211 c 0
EndSplineSet
Validated: 1
EndChar
StartChar: uni0328
Encoding: 808 808 472
Width: 0
GlyphClass: 4
Flags: HW
HStem: -221 52<127 203>
VStem: 62 59<-163 -72>
AnchorPoint: "Anchor-3" 218 0 mark 0
LayerCount: 3
Fore
SplineSet
148 -221 m 0
 120 -221 98 -213 83 -198 c 0
 68 -183 62 -163 62 -140 c 0
 62 -110 74 -81 99 -54 c 0
 124 -27 153 -3 192 17 c 1
 218 0 l 1
 188 -22 164 -44 147 -65 c 0
 130 -86 121 -108 121 -132 c 0
 121 -144 123 -153 129 -159 c 0
 135 -165 144 -169 154 -169 c 0
 168 -169 180 -164 189 -154 c 1
 221 -195 l 1
 211 -205 201 -211 189 -215 c 0
 177 -219 164 -221 148 -221 c 0
EndSplineSet
EndChar
StartChar: uni1E9E
Encoding: 7838 7838 82
Width: 716
Flags: HW
HStem: -9 72<285 522> 0 21G<95 187> 676 73<282 505>
VStem: 95 92<0 572> 574 93<113 277>
LayerCount: 3
Fore
SplineSet
416 -9 m 0xb8
 354 -9 314 -3 284 0 c 1x78
 284 75 l 1
 319 68 383 63 417 63 c 0xb8
 492 63 574 81 574 195 c 0
 574 276 533 330 385 375 c 1
 359 384 l 1
 580 660 l 1
 569 600 l 5
 533 642 474 676 391 676 c 4
 330 676 187 665 187 455 c 2
 187 0 l 1
 95 0 l 1x78
 95 455 l 2
 95 583 142 749 394 749 c 0
 449 749 498 740 539 723 c 0
 580 706 622 679 662 640 c 1
 456 380 l 1
 428 439 l 1
 508 414 568 381 608 338 c 0
 648 295 668 244 668 186 c 0
 668 145 658 110 639 81 c 0
 620 52 591 29 552 14 c 0
 513 -1 470 -9 416 -9 c 0xb8
EndSplineSet
EndChar
StartChar: endash
Encoding: 8211 8211 374
Width: 599
Flags: HW
HStem: 244 70<25 576>
LayerCount: 3
Fore
SplineSet
25 244 m 5
 25 313 l 1
 576 313 l 1
 576 244 l 5
 25 244 l 5
EndSplineSet
Substitution2: "'case' Case-Sensitive Forms in Latin lookup 20 subtable" endash.case
Substitution2: "'aalt' Access All Alternates in Latin lookup 0 subtable" endash.case
EndChar
StartChar: emdash
Encoding: 8212 8212 375
Width: 909
Flags: HW
HStem: 244 69<62 857>
LayerCount: 3
Fore
SplineSet
62 244 m 1
 62 313 l 1
 857 313 l 1
 857 244 l 1
 62 244 l 1
EndSplineSet
Validated: 1
Substitution2: "'case' Case-Sensitive Forms in Latin lookup 20 subtable" emdash.case
Substitution2: "'aalt' Access All Alternates in Latin lookup 0 subtable" emdash.case
EndChar
StartChar: quoteleft
Encoding: 8216 8216 396
Width: 275
Flags: HW
HStem: 520 217<159 183>
VStem: 78 154
LayerCount: 3
Fore
SplineSet
183 520 m 5
 138 520 l 4
 78 520 l 1
 159 737 l 1
 232 737 l 1
 183 520 l 5
EndSplineSet
Substitution2: "'ss01' Style Set 1 in Latin lookup 22 subtable" quoteleft.ss01
Substitution2: "'aalt' Access All Alternates in Latin lookup 0 subtable" quoteleft.ss01
EndChar
StartChar: quoteright
Encoding: 8217 8217 397
Width: 275
Flags: HW
HStem: 520 217<138 161>
VStem: 88 154
LayerCount: 3
Fore
SplineSet
161 520 m 1
 88 520 l 1
 138 737 l 1
 242 737 l 1
 161 520 l 1
EndSplineSet
Substitution2: "'ss01' Style Set 1 in Latin lookup 22 subtable" quoteright.ss01
Substitution2: "'aalt' Access All Alternates in Latin lookup 0 subtable" quoteright.ss01
EndChar
StartChar: bullet
Encoding: 8226 8226 346
Width: 336
Flags: HW
HStem: 306 156<91 247>
VStem: 91 157<306 462>
LayerCount: 3
Fore
SplineSet
91 306 m 1
 91 462 l 1
 247 462 l 1
 247 306 l 1
 91 306 l 1
EndSplineSet
Substitution2: "'ss01' Style Set 1 in Latin lookup 22 subtable" bullet.ss01
Substitution2: "'case' Case-Sensitive Forms in Latin lookup 20 subtable" bullet.case
AlternateSubs2: "'aalt' Access All Alternates in Latin lookup 1 subtable" bullet.case bullet.ss01
EndChar
StartChar: perthousand
Encoding: 8240 8240 446
Width: 829
Flags: HW
HStem: -10 53<436 516 628 706> 0 21G<69 157> 298 53<436 516 627 707> 358 52<128 217> 665 53<127 218> 689 19G<502 589>
VStem: 35 63<443 633> 247 63<444 632> 349 63<74 269> 548 47<110 233> 732 63<74 269>
LayerCount: 3
Fore
SplineSet
172 358 m 256x3be0
 148 358 126 366 105 378 c 0
 84 390 66 410 54 437 c 0
 42 464 35 498 35 538 c 0
 35 579 42 614 54 640 c 0
 66 666 83 686 104 699 c 0
 125 712 147 719 172 719 c 0
 210 719 243 704 270 675 c 0
 297 646 310 600 310 538 c 0
 310 498 303 464 290 437 c 0
 277 410 260 390 239 378 c 0
 218 366 196 358 172 358 c 256x3be0
172 410 m 0
 194 410 212 421 226 443 c 0
 240 465 247 497 247 539 c 0
 247 579 240 610 227 632 c 0
 214 654 194 665 172 665 c 256
 150 665 132 654 119 633 c 0
 106 612 99 580 99 539 c 0
 99 497 106 465 119 443 c 0
 132 421 150 410 172 410 c 0
69 0 m 1x77e0
 515 708 l 1
 589 708 l 1
 145 0 l 1
 69 0 l 1x77e0
476 -10 m 0xb3e0
 455 -10 435 -3 415 10 c 0
 395 23 379 42 367 69 c 0
 355 96 349 130 349 171 c 0
 349 211 355 245 367 272 c 0
 379 299 395 319 414 332 c 0
 433 345 454 352 476 352 c 0
 510 352 538 337 561 307 c 0
 584 277 596 232 596 171 c 0
 596 109 584 65 560 35 c 0
 536 5 508 -10 476 -10 c 0xb3e0
476 43 m 0
 495 43 512 54 524 76 c 0
 536 98 542 130 542 172 c 0
 542 212 536 243 524 265 c 0
 512 287 495 298 476 298 c 256
 457 298 441 287 429 266 c 0
 417 245 411 213 411 172 c 0
 411 130 417 98 429 76 c 0
 441 54 457 43 476 43 c 0
667 43 m 0
 686 43 703 54 715 76 c 0
 727 98 732 130 732 172 c 0
 732 213 727 245 715 266 c 0
 703 287 686 298 667 298 c 0
 648 298 632 287 620 265 c 0
 608 243 601 212 601 172 c 0
 601 130 609 98 621 76 c 0
 633 54 649 43 667 43 c 0
667 -10 m 0
 635 -10 607 5 583 35 c 0
 559 65 548 109 548 171 c 0
 548 232 559 277 582 307 c 0
 605 337 633 352 667 352 c 0
 689 352 710 345 729 332 c 0
 748 319 765 299 777 272 c 0
 789 245 795 211 795 171 c 0
 795 130 789 96 777 69 c 0
 765 42 748 23 729 10 c 0
 710 -3 689 -10 667 -10 c 0
EndSplineSet
Validated: 5
Substitution2: "'tnum' Tabular Numbers in Latin lookup 19 subtable" perthousand.tf
Substitution2: "'aalt' Access All Alternates in Latin lookup 0 subtable" perthousand.tf
EndChar
StartChar: guilsinglleft
Encoding: 8249 8249 400
Width: 360
Flags: HW
VStem: 69 213
LayerCount: 3
Fore
SplineSet
201 70 m 1
 69 257 l 1
 201 444 l 1
 283 444 l 1
 155 257 l 1
 283 70 l 1
 201 70 l 1
EndSplineSet
EndChar
StartChar: guilsinglright
Encoding: 8250 8250 409
Width: 331
Flags: HW
VStem: 69 205
LayerCount: 3
Fore
SplineSet
147 67 m 1
 69 67 l 1
 191 247 l 1
 69 427 l 1
 147 427 l 1
 274 247 l 1
 147 67 l 1
EndSplineSet
Validated: 1
EndChar
StartChar: Euro
Encoding: 8364 8364 422
Width: 723
Flags: HW
HStem: -10 75<321 506> 261 68<33 472> 411 69<33 500> 673 75<321 506>
VStem: 107 85<330 410> 574 87<126 179 558 609>
LayerCount: 3
Fore
SplineSet
413 -10 m 0
 369 -10 328 -1 291 17 c 0
 254 35 221 62 194 96 c 0
 167 130 145 170 130 216 c 0
 115 262 107 313 107 369 c 256
 107 425 115 476 130 522 c 0
 145 568 167 608 194 642 c 0
 221 676 252 702 289 720 c 0
 326 738 364 748 408 748 c 0
 450 748 491 739 525 724 c 0
 559 709 587 687 611 659 c 0
 635 631 651 597 659 558 c 1
 573 558 l 1
 566 594 548 623 519 643 c 0
 490 663 455 673 413 673 c 0
 369 673 330 660 297 635 c 0
 264 610 237 574 219 529 c 0
 201 484 192 430 192 369 c 0
 192 308 202 255 220 209 c 0
 238 163 264 127 297 102 c 0
 330 77 368 65 411 65 c 0
 453 65 490 75 520 95 c 0
 550 115 567 143 574 179 c 1
 660 179 l 1
 652 139 636 106 613 78 c 0
 590 50 562 27 527 12 c 0
 492 -3 455 -10 413 -10 c 0
18 411 m 1
 33 479 l 1
 513 479 l 1
 500 411 l 1
 18 411 l 1
18 261 m 1
 33 329 l 1
 485 329 l 1
 472 261 l 1
 18 261 l 1
EndSplineSet
EndChar
StartChar: uni20B1
Encoding: 8369 8369 501
Width: 743
Flags: HW
HStem: 0 21G<160 240> 221 70<218 458> 380 56<95 671> 496 57<95 672> 639 70<240 458>
VStem: 160 80<0 221 291 639> 218 22<221 291> 527 79<438 490>
LayerCount: 3
Fore
SplineSet
83 496 m 1xf9
 95 553 l 1
 683 552 l 1
 672 495 l 1
 83 496 l 1xf9
83 380 m 1
 95 436 l 1
 683 435 l 1
 671 379 l 1
 83 380 l 1
160 0 m 1xfd
 160 708 l 1xfd
 373 708 l 2
 529 708 606 627 606 466 c 0
 606 303 529 221 373 221 c 2
 218 221 l 1
 218 291 l 1xfb
 370 291 l 2
 475 291 527 349 527 466 c 0
 527 580 475 639 370 639 c 2
 240 639 l 1
 240 0 l 1
 160 0 l 1xfd
EndSplineSet
Validated: 5
EndChar
StartChar: afii61352
Encoding: 8470 8470 494
Width: 1107
Flags: HW
LayerCount: 3
Fore
SplineSet
84 0 m 1
 84 745 l 1
 175 745 l 1
 175 746 285 557 507 178 c 1
 515 178 l 1
 515 745 l 1
 607 745 l 1
 607 0 l 1
 517 0 l 1
 186 563 l 1
 178 563 l 1
 178 0 l 1
 84 0 l 1
856 364 m 128
 803 364 760 380 729 411 c 128
 698 442 683 484 683 536 c 2
 683 584 l 2
 683 636 698 678 729 709 c 128
 760 740 802 756 855 756 c 0
 909 756 952 740 982 709 c 128
 1012 678 1029 636 1029 584 c 2
 1029 536 l 2
 1029 484 1012 442 982 411 c 128
 952 380 909 364 856 364 c 128
856 437 m 0
 884 437 906 446 920 464 c 0
 934 483 941 507 941 536 c 2
 941 584 l 2
 941 613 934 636 920 654 c 128
 906 672 884 680 855 680 c 256
 826 680 806 672 792 654 c 128
 778 636 771 613 771 584 c 2
 771 536 l 2
 771 506 778 482 792 464 c 128
 806 446 827 437 856 437 c 0
698 224 m 1
 698 300 l 1
 1017 300 l 1
 1017 224 l 1
 698 224 l 1
EndSplineSet
EndChar
StartChar: trademark
Encoding: 8482 8482 425
Width: 818
Flags: HW
HStem: 654 54<64 175 238 351> 654 41<175 238>
VStem: 175 63<355 696> 436 10<659 682> 692 11<662 685>
LayerCount: 3
Fore
SplineSet
175 355 m 1x78
 175 696 l 1
 238 696 l 1
 238 355 l 1
 175 355 l 1x78
64 654 m 1xb8
 64 708 l 1
 351 708 l 1
 351 654 l 1
 64 654 l 1xb8
387 355 m 1
 387 708 l 1
 481 708 l 1
 588 368 l 1
 552 368 l 1
 659 708 l 1
 755 708 l 1
 755 355 l 1
 692 355 l 1
 692 685 l 1
 702 685 l 1
 602 355 l 1
 536 355 l 1
 436 682 l 1
 446 682 l 1
 446 355 l 1
 387 355 l 1
EndSplineSet
Validated: 5
EndChar
StartChar: arrowleft
Encoding: 8592 8592 453
Width: 862
Flags: HW
HStem: 333 72<176 796>
LayerCount: 3
Fore
SplineSet
796 333 m 1
 143 333 l 1
 176 360 l 1
 504 31 l 1
 404 31 l 1
 69 369 l 1
 405 707 l 1
 505 707 l 1
 176 377 l 1
 143 404 l 1
 796 404 l 1
 796 333 l 1
EndSplineSet
EndChar
StartChar: arrowup
Encoding: 8593 8593 447
Width: 807
Flags: HW
HStem: 716 20G<384 425>
VStem: 368 72<9 629>
LayerCount: 3
Fore
SplineSet
368 9 m 1
 368 663 l 1
 395 629 l 1
 67 301 l 1
 67 401 l 1
 405 736 l 1
 743 400 l 1
 743 300 l 1
 413 629 l 1
 440 663 l 1
 440 9 l 1
 368 9 l 1
EndSplineSet
EndChar
StartChar: arrowright
Encoding: 8594 8594 458
Width: 827
Flags: HW
HStem: 320 69<65 660>
LayerCount: 3
Fore
SplineSet
65 388 m 1
 693 388 l 1
 660 362 l 1
 346 679 l 1
 442 679 l 1
 764 355 l 1
 441 30 l 1
 345 30 l 1
 660 346 l 1
 693 320 l 1
 65 320 l 1
 65 388 l 1
EndSplineSet
Validated: 5
EndChar
StartChar: arrowdown
Encoding: 8595 8595 451
Width: 807
Flags: HW
HStem: 1 22G<384 425>
VStem: 368 72<109 728>
LayerCount: 3
Fore
SplineSet
368 728 m 1
 440 728 l 1
 440 75 l 1
 413 109 l 1
 743 437 l 1
 743 337 l 1
 405 1 l 1
 67 336 l 1
 67 436 l 1
 395 109 l 1
 368 75 l 1
 368 728 l 1
EndSplineSet
EndChar
StartChar: arrowboth
Encoding: 8596 8596 464
Width: 1010
Flags: HW
HStem: 320 69<196 817>
LayerCount: 3
Fore
SplineSet
388 30 m 1
 65 355 l 1
 387 679 l 1
 483 679 l 1
 196 388 l 1
 817 388 l 1
 528 679 l 1
 624 679 l 1
 946 355 l 1
 623 30 l 1
 527 30 l 1
 817 320 l 1
 196 320 l 1
 484 30 l 1
 388 30 l 1
EndSplineSet
Validated: 1
EndChar
StartChar: arrowupdn
Encoding: 8597 8597 465
Width: 778
Flags: HW
VStem: 355 69<44 665>
LayerCount: 3
Fore
SplineSet
390 -86 m 1
 65 235 l 1
 65 332 l 1
 355 44 l 1
 355 665 l 1
 65 377 l 1
 65 474 l 1
 390 795 l 1
 715 473 l 1
 715 376 l 1
 424 665 l 1
 424 44 l 1
 715 332 l 1
 715 236 l 1
 390 -86 l 1
EndSplineSet
Validated: 1
EndChar
StartChar: uni2196
Encoding: 8598 8598 463
Width: 662
Flags: HW
HStem: 552 68<147 525>
LayerCount: 3
Fore
SplineSet
536 100 m 1
 93 544 l 1
 135 540 l 1
 133 93 l 1
 65 161 l 1
 68 619 l 1
 525 620 l 1
 595 552 l 1
 147 551 l 1
 143 593 l 1
 585 150 l 1
 536 100 l 1
EndSplineSet
Validated: 5
EndChar
StartChar: uni2197
Encoding: 8599 8599 448
Width: 745
Flags: HW
LayerCount: 3
Fore
SplineSet
110 156 m 1
 572 616 l 1
 568 572 l 1
 103 574 l 1
 174 646 l 1
 650 643 l 1
 651 167 l 1
 580 95 l 1
 578 561 l 1
 623 565 l 1
 161 104 l 1
 110 156 l 1
EndSplineSet
EndChar
StartChar: uni2198
Encoding: 8600 8600 459
Width: 662
Flags: HW
VStem: 529 69<168 547>
LayerCount: 3
Fore
SplineSet
127 608 m 1
 570 164 l 1
 527 168 l 1
 529 615 l 1
 598 547 l 1
 596 89 l 1
 137 88 l 1
 69 157 l 1
 517 158 l 1
 521 115 l 1
 78 559 l 1
 127 608 l 1
EndSplineSet
Validated: 5
EndChar
StartChar: uni2199
Encoding: 8601 8601 461
Width: 661
Flags: HW
HStem: 87 69<145 524>
VStem: 65 68<169 548>
LayerCount: 3
Fore
SplineSet
584 560 m 1
 141 116 l 1
 145 159 l 1
 592 157 l 1
 524 87 l 1
 66 90 l 1
 65 548 l 1
 132 617 l 1
 133 169 l 1
 91 165 l 1
 535 608 l 1
 584 560 l 1
EndSplineSet
Validated: 5
EndChar
StartChar: uni21A9
Encoding: 8617 8617 495
Width: 1127
Flags: HW
LayerCount: 3
Fore
SplineSet
406 0 m 1
 80 326 l 1
 406 652 l 1
 462 596 l 1
 463 596 428 561 357 491 c 2
 336 470 313 449 290 427 c 128
 267 405 245 384 223 364 c 1
 239 365 252 365 268 365 c 128
 284 365 299 366 315 366 c 2
 810 366 l 2
 839 366 867 373 891 388 c 128
 915 403 934 422 949 446 c 128
 964 470 971 497 971 527 c 256
 971 556 964 584 949 608 c 128
 934 632 915 651 891 666 c 128
 867 681 840 688 810 688 c 2
 773 688 l 1
 773 768 l 1
 810 768 l 2
 854 768 894 758 930 736 c 128
 966 714 997 684 1019 648 c 128
 1041 612 1051 572 1051 527 c 256
 1051 483 1041 442 1019 406 c 128
 997 370 967 340 931 318 c 128
 895 296 855 286 810 286 c 2
 315 286 l 2
 299 286 284 286 268 287 c 128
 252 288 239 288 223 288 c 1
 245 268 267 247 290 225 c 128
 313 203 336 182 357 161 c 2
 462 56 l 1
 406 0 l 1
EndSplineSet
Validated: 33
EndChar
StartChar: uni21AA
Encoding: 8618 8618 505
Width: 1083
Flags: HW
LayerCount: 3
Fore
SplineSet
694 0 m 1
 640 54 l 1
 639 54 673 88 741 155 c 2
 761 175 783 196 805 217 c 128
 827 238 848 258 869 277 c 1
 854 276 840 275 825 275 c 128
 810 275 796 275 781 275 c 2
 305 275 l 2
 263 275 224 285 189 306 c 128
 154 327 126 355 105 390 c 128
 84 425 74 463 74 506 c 256
 74 548 84 588 105 623 c 128
 126 658 154 686 189 707 c 128
 224 728 262 738 305 738 c 2
 341 738 l 1
 341 661 l 1
 305 661 l 2
 277 661 251 654 228 640 c 128
 205 626 186 607 172 584 c 128
 158 561 151 535 151 506 c 256
 151 478 158 452 172 429 c 128
 186 406 205 387 228 373 c 128
 251 359 276 352 305 352 c 2
 781 352 l 2
 796 352 810 352 825 351 c 128
 840 350 854 350 869 350 c 1
 848 369 827 389 805 410 c 128
 783 431 761 452 741 472 c 2
 640 573 l 1
 694 627 l 1
 1007 313 l 1
 694 0 l 1
EndSplineSet
Validated: 33
EndChar
StartChar: minus
Encoding: 8722 8722 428
Width: 566
Flags: HW
HStem: 345 68<74 495>
LayerCount: 3
Fore
SplineSet
74 345 m 1
 74 414 l 1
 495 414 l 1
 495 345 l 1
 74 345 l 1
EndSplineSet
Validated: 1
Substitution2: "'tnum' Tabular Numbers in Latin lookup 19 subtable" minus.tf
Substitution2: "'aalt' Access All Alternates in Latin lookup 0 subtable" minus.tf
EndChar
StartChar: .notdef
Encoding: 65536 -1 0
Width: 664
Flags: HW
HStem: 0 73<167 500> 665 72<167 500>
VStem: 84 83<73 665> 500 82<73 665>
LayerCount: 3
Fore
SplineSet
84 0 m 1
 84 737 l 1
 582 737 l 1
 582 0 l 1
 84 0 l 1
167 73 m 1
 500 73 l 1
 500 665 l 1
 167 665 l 1
 167 73 l 1
EndSplineSet
EndChar
StartChar: G.ss07
Encoding: 65562 -1 137
Width: 777
GlyphClass: 2
Flags: HW
HStem: -10 75<297 514> 307 73<427 633> 307 31<633 653> 673 75<299 514>
VStem: 66 84<227 506> 618 83<504 572>
AnchorPoint: "Anchor-2" 400 0 basechar 0
AnchorPoint: "Anchor-0" 400 737 basechar 0
LayerCount: 3
Fore
SplineSet
404 -10 m 0xbc
 336 -10 277 7 226 39 c 0
 175 71 136 115 108 172 c 0
 80 229 66 294 66 366 c 0
 66 442 80 508 109 565 c 0
 138 622 178 667 229 699 c 0
 280 731 338 748 404 748 c 0
 460 748 510 737 552 715 c 0
 594 693 628 665 654 628 c 0
 680 591 695 549 701 504 c 1
 618 504 l 1
 614 535 604 562 587 588 c 0
 570 614 546 635 516 650 c 0
 486 665 448 673 406 673 c 0
 353 673 310 660 271 635 c 0
 232 610 203 574 182 528 c 0
 161 482 149 428 149 366 c 0
 149 306 161 252 181 207 c 0
 201 162 230 127 269 102 c 0
 308 77 353 65 408 65 c 0
 450 65 489 73 523 91 c 0
 557 109 584 138 604 178 c 0
 624 218 633 271 633 338 c 1
 712 338 l 1
 712 259 699 194 672 142 c 0
 645 90 607 52 561 27 c 0
 515 2 461 -10 404 -10 c 0xbc
653 307 m 1
 427 307 l 1
 427 380 l 1
 712 380 l 1xdc
 712 338 l 1
 653 307 l 1
EndSplineSet
EndChar
StartChar: J.ss08
Encoding: 65566 -1 144
Width: 598
Flags: HW
HStem: -10 72<208 369> 689 19G<438 517>
VStem: 63 78<131 221> 438 79<135 708>
LayerCount: 3
Fore
SplineSet
289 -10 m 0
 245 -10 207 -1 173 17 c 0
 139 35 111 62 92 97 c 0
 73 132 63 173 63 221 c 1
 141 221 l 1
 141 169 155 130 183 103 c 0
 211 76 246 62 288 62 c 0
 317 62 343 69 365 81 c 0
 387 93 405 111 418 137 c 0
 431 163 438 196 438 235 c 2
 438 708 l 1
 517 708 l 1
 517 238 l 2
 517 184 506 139 487 102 c 0
 468 65 441 37 407 18 c 0
 373 -1 333 -10 289 -10 c 0
EndSplineSet
Validated: 1
EndChar
StartChar: K.ss04
Encoding: 65559 -1 130
Width: 720
GlyphClass: 2
Flags: HW
HStem: 0 22G<107 190 559 678> 717 20G<107 190 531 657>
VStem: 107 83<0 737>
AnchorPoint: "Anchor-2" 372 0 basechar 0
AnchorPoint: "Anchor-0" 360 737 basechar 0
LayerCount: 3
Fore
SplineSet
107 0 m 1
 107 737 l 1
 190 737 l 1
 190 0 l 1
 107 0 l 1
126 262 m 1
 550 737 l 1
 657 737 l 1
 355 406 l 1
 338 396 l 1
 155 198 l 1
 126 262 l 1
573 0 m 1
 276 423 l 1
 369 425 l 1
 678 0 l 1
 573 0 l 1
EndSplineSet
EndChar
StartChar: M.ss06
Encoding: 65561 -1 136
Width: 877
Flags: HW
HStem: 0 22G<67 145 371 501 728 812> 717 20G<132 255 621 745>
VStem: 67 76<0 74> 730 82<0 74>
LayerCount: 3
Fore
SplineSet
67 0 m 1
 133 737 l 1
 249 737 l 1
 451 29 l 1
 427 29 l 1
 628 737 l 1
 744 737 l 1
 812 0 l 1
 730 0 l 1
 664 686 l 1
 688 686 l 1
 495 0 l 1
 377 0 l 1
 185 681 l 1
 207 681 l 1
 143 0 l 1
 67 0 l 1
EndSplineSet
EndChar
StartChar: Q.ss09
Encoding: 65567 -1 142
Width: 799
Flags: HW
HStem: -10 75<297 504> 673 75<295 504>
VStem: 66 84<234 509> 650 85<235 509>
LayerCount: 3
Fore
SplineSet
400 -10 m 0
 351 -10 307 -1 266 18 c 0
 225 37 190 63 160 97 c 0
 130 131 107 171 91 217 c 0
 75 263 66 316 66 372 c 0
 66 446 81 510 109 567 c 0
 137 624 176 668 226 700 c 0
 276 732 334 748 399 748 c 0
 465 748 524 732 574 700 c 0
 624 668 663 624 692 567 c 0
 721 510 734 446 734 372 c 0
 734 316 726 263 709 217 c 0
 692 171 670 131 640 97 c 0
 610 63 574 37 533 18 c 0
 492 -1 448 -10 400 -10 c 0
399 65 m 0
 438 65 471 72 502 87 c 0
 533 102 559 122 581 150 c 0
 603 178 620 209 632 248 c 0
 644 287 650 327 650 373 c 0
 650 433 640 485 619 530 c 0
 598 575 569 610 530 635 c 0
 491 660 450 673 399 673 c 256
 348 673 305 660 268 635 c 0
 231 610 201 575 181 530 c 0
 161 485 149 433 149 373 c 0
 149 312 161 258 182 212 c 0
 203 166 232 129 269 103 c 0
 306 77 349 65 399 65 c 0
402 227 m 1
 467 263 l 1
 670 -88 l 1
 606 -124 l 1
 402 227 l 1
EndSplineSet
Validated: 5
EndChar
StartChar: a.ss02
Encoding: 65601 -1 289
Width: 587
GlyphClass: 2
Flags: HW
HStem: -10 68<199 358> 0 21G<434 505> 443 68<200 358> 482 19G<434 505>
VStem: 47 79<139 361> 434 72<0 111 143 358 381 502>
AnchorPoint: "Anchor-3" 505 0 basechar 0
AnchorPoint: "Anchor-2" 294 0 basechar 0
AnchorPoint: "Anchor-0" 294 502 basechar 0
LayerCount: 3
Fore
SplineSet
264 -10 m 256x8c
 220 -10 182 1 149 23 c 0
 116 45 91 74 74 112 c 0
 57 150 47 196 47 249 c 256
 47 302 56 347 74 386 c 0
 92 425 118 457 151 479 c 0
 184 501 223 510 267 510 c 0xac
 312 510 350 500 381 478 c 0
 412 456 433 422 444 381 c 1
 434 379 l 1
 434 502 l 1
 505 502 l 1
 505 0 l 1
 434 0 l 1x5c
 434 115 l 1
 443 111 l 1
 431 74 409 45 377 23 c 0
 345 1 308 -10 264 -10 c 256x8c
278 58 m 0
 327 58 365 76 392 110 c 0
 419 144 433 191 433 252 c 0
 433 312 420 358 392 392 c 0
 364 426 326 443 278 443 c 256
 230 443 193 426 166 392 c 0
 139 358 126 311 126 249 c 0
 126 189 139 143 166 109 c 0
 193 75 230 58 278 58 c 0
EndSplineSet
Validated: 5
EndChar
StartChar: braceleft.case
Encoding: 65664 -1 388
Width: 438
Flags: HW
HStem: -41 65<222 363> 337 63<56 166> 714 65<222 363>
VStem: 56 307
CounterMasks: 1 e0
LayerCount: 3
Fore
SplineSet
273 -41 m 2
 238 -41 210 -34 187 -20 c 0
 164 -6 150 13 142 37 c 0
 134 61 133 87 139 114 c 2
 171 247 l 2
 179 279 177 302 165 316 c 0
 153 330 132 337 103 337 c 2
 56 337 l 1
 56 400 l 1
 103 400 l 2
 132 400 153 407 165 421 c 0
 177 435 179 458 171 490 c 2
 139 624 l 2
 133 652 134 677 142 701 c 0
 150 725 164 743 187 757 c 0
 210 771 238 778 273 778 c 2
 363 778 l 1
 363 714 l 1
 278 714 l 2
 252 714 234 707 222 692 c 0
 210 677 207 657 215 628 c 2
 245 512 l 2
 252 485 252 462 249 443 c 0
 246 424 238 408 226 396 c 0
 214 384 201 376 183 369 c 1
 201 362 214 352 226 340 c 0
 238 328 245 314 249 295 c 0
 253 276 253 252 245 225 c 2
 215 111 l 2
 207 82 210 61 222 46 c 0
 234 31 252 24 278 24 c 2
 363 24 l 1
 363 -41 l 1
 273 -41 l 2
EndSplineSet
EndChar
StartChar: braceright.case
Encoding: 65665 -1 397
Width: 402
Flags: HW
HStem: -39 62<64 200> 324 61<253 359> 686 62<64 200>
VStem: 64 295
CounterMasks: 1 e0
LayerCount: 3
Fore
SplineSet
149 748 m 2
 184 748 211 740 232 727 c 0
 253 714 268 697 277 674 c 0
 286 651 286 627 278 600 c 2
 248 471 l 2
 240 440 241 418 253 405 c 0
 265 392 286 384 314 384 c 2
 359 384 l 1
 359 324 l 1
 314 324 l 2
 286 324 265 317 253 304 c 0
 241 291 240 268 248 237 c 2
 278 110 l 2
 286 84 286 59 277 36 c 0
 268 13 253 -6 232 -19 c 0
 211 -32 184 -39 149 -39 c 2
 64 -39 l 1
 64 23 l 1
 144 23 l 2
 170 23 189 30 201 44 c 0
 213 58 213 79 205 107 c 2
 178 216 l 2
 170 242 169 265 172 283 c 0
 175 301 182 315 194 327 c 0
 206 339 220 348 236 355 c 1
 220 362 206 369 194 381 c 0
 182 393 175 408 172 426 c 0
 169 444 170 466 177 492 c 2
 205 603 l 2
 213 631 213 651 201 665 c 0
 189 679 170 686 144 686 c 2
 64 686 l 1
 64 748 l 1
 149 748 l 2
EndSplineSet
Validated: 33
EndChar
StartChar: bracketleft.case
Encoding: 65666 -1 398
Width: 402
Flags: HW
HStem: -39 62<165 339> 686 62<165 339>
VStem: 93 72<23 686>
LayerCount: 3
Fore
SplineSet
93 -39 m 1
 93 748 l 1
 339 748 l 1
 339 686 l 1
 165 686 l 1
 165 23 l 1
 339 23 l 1
 339 -39 l 1
 93 -39 l 1
EndSplineSet
Validated: 1
EndChar
StartChar: bracketright.case
Encoding: 65667 -1 391
Width: 452
Flags: HW
HStem: -41 65<84 265> 714 65<84 265>
VStem: 265 75<24 714>
LayerCount: 3
Fore
SplineSet
340 778 m 1
 340 -41 l 1
 84 -41 l 1
 84 24 l 1
 265 24 l 1
 265 714 l 1
 84 714 l 1
 84 778 l 1
 340 778 l 1
EndSplineSet
EndChar
StartChar: bullet.case
Encoding: 65643 -1 365
Width: 695
Flags: HW
HStem: 116 538<79 617>
VStem: 79 538<116 654>
LayerCount: 3
Fore
SplineSet
79 116 m 1
 79 654 l 1
 617 654 l 1
 617 116 l 1
 79 116 l 1
EndSplineSet
Validated: 1
Substitution2: "'ss01' Style Set 1 in Latin lookup 22 subtable" bullet.case.ss01
Substitution2: "'aalt' Access All Alternates in Latin lookup 0 subtable" bullet.case.ss01
EndChar
StartChar: bullet.case.ss01
Encoding: 65657 -1 371
Width: 802
Flags: HW
HStem: 67 628<281 521>
VStem: 89 628<257 502>
LayerCount: 3
Fore
SplineSet
405 67 m 0
 316 67 240 95 180 153 c 0
 120 211 89 287 89 383 c 0
 89 472 120 547 180 606 c 0
 240 665 316 694 405 694 c 0
 487 694 560 665 623 606 c 0
 686 547 717 472 717 383 c 0
 717 287 686 211 623 153 c 0
 560 95 487 67 405 67 c 0
EndSplineSet
Validated: 1
EndChar
StartChar: bullet.ss01
Encoding: 65655 -1 369
Width: 361
Flags: HW
HStem: 291 175<122 240>
VStem: 94 175<319 437>
LayerCount: 3
Fore
SplineSet
182 291 m 0
 157 291 137 299 120 315 c 0
 103 331 94 352 94 379 c 0
 94 404 103 424 120 441 c 0
 137 458 157 466 182 466 c 0
 205 466 226 458 243 441 c 0
 260 424 269 404 269 379 c 0
 269 352 260 331 243 315 c 0
 226 299 205 291 182 291 c 0
EndSplineSet
EndChar
StartChar: cent.ss12
Encoding: 65676 -1 425
Width: 562
Flags: HW
HStem: -10 68<221 378> 465 68<219 379>
VStem: 60 81<149 377> 263 66<-112 631> 436 74<117 174 347 404>
LayerCount: 3
Fore
SplineSet
298 -10 m 0
 252 -10 209 2 174 25 c 0
 139 48 111 80 91 121 c 0
 71 162 60 210 60 263 c 256
 60 316 71 363 91 403 c 0
 111 443 138 475 174 498 c 0
 210 521 252 532 298 532 c 0
 337 532 369 525 399 510 c 0
 429 495 454 473 473 445 c 0
 492 417 503 386 508 347 c 1
 434 347 l 1
 428 382 414 411 391 433 c 0
 368 455 338 465 299 465 c 0
 251 465 213 447 184 411 c 0
 155 375 141 325 141 263 c 0
 141 202 155 153 184 114 c 0
 213 75 252 57 300 57 c 0
 336 57 366 67 390 89 c 0
 414 111 430 139 436 174 c 1
 509 174 l 1
 504 138 492 106 472 78 c 0
 452 50 428 27 398 12 c 0
 368 -3 335 -10 298 -10 c 0
263 -112 m 1
 263 14 l 1
 263 36 l 1
 263 485 l 1
 263 509 l 1
 263 631 l 1
 328 631 l 1
 328 506 l 1
 327 484 l 1
 327 36 l 1
 328 18 l 1
 328 -112 l 1
 263 -112 l 1
EndSplineSet
Validated: 5
EndChar
StartChar: comma.ss01
Encoding: 65646 -1 360
Width: 287
Flags: HW
HStem: -7 114<103 180>
VStem: 86 117<9 86>
LayerCount: 3
Fore
SplineSet
96 -145 m 1
 96 -104 l 1
 114 -96 129 -85 140 -69 c 0
 151 -53 156 -29 156 3 c 1
 180 6 l 1
 175 3 170 0 164 -3 c 0
 158 -6 151 -7 144 -7 c 0
 128 -7 114 -2 103 9 c 0
 92 20 86 32 86 48 c 0
 86 66 92 80 103 91 c 0
 114 102 127 106 141 106 c 0
 158 106 173 99 185 87 c 0
 197 75 203 53 203 22 c 0
 203 -21 192 -57 174 -86 c 0
 156 -115 129 -134 96 -145 c 1
EndSplineSet
EndChar
StartChar: divide.tf
Encoding: 65681 -1 450
Width: 589
Flags: HW
HStem: 146 112<254 335> 332 65<80 511> 474 111<254 335>
VStem: 237 116<161 241 489 569>
LayerCount: 3
Fore
SplineSet
80 332 m 1
 80 398 l 1
 511 398 l 1
 511 332 l 1
 80 332 l 1
296 474 m 0
 279 474 265 477 253 488 c 0
 241 499 237 512 237 529 c 0
 237 545 241 558 253 569 c 0
 265 580 279 584 296 584 c 0
 310 584 323 580 335 569 c 0
 347 558 353 545 353 529 c 0
 353 512 347 499 335 488 c 0
 323 477 310 474 296 474 c 0
296 146 m 0
 279 146 265 149 253 160 c 0
 241 171 237 185 237 202 c 0
 237 218 241 231 253 242 c 0
 265 253 279 258 296 258 c 0
 310 258 323 253 335 242 c 0
 347 231 353 218 353 202 c 0
 353 185 347 171 335 160 c 0
 323 149 310 146 296 146 c 0
EndSplineSet
Validated: 1
Substitution2: "'pnum' Proportional Numbers in Latin lookup 18 subtable" divide
Substitution2: "'aalt' Access All Alternates in Latin lookup 0 subtable" divide
EndChar
StartChar: dollar.ss12
Encoding: 65677 -1 426
Width: 645
Flags: HW
HStem: -9 72<240 451> 526 22G<487 571> 677 72<227 422>
VStem: 66 80<158 236> 98 80<497 631> 299 66<-112 850> 491 79<526 599> 501 80<109 255>
LayerCount: 3
Fore
SplineSet
349 -9 m 0xed
 266 -9 199 12 151 54 c 0
 103 96 74 157 66 236 c 1
 146 236 l 1
 153 179 172 135 206 106 c 0
 240 77 288 62 348 62 c 0
 399 62 436 73 462 93 c 0
 488 113 501 142 501 181 c 0xf5
 501 214 493 241 475 261 c 0
 457 281 431 298 392 312 c 2
 271 359 l 2
 212 382 168 409 140 440 c 0
 112 471 98 511 98 557 c 0
 98 596 108 630 127 658 c 0
 146 686 172 708 206 724 c 0
 240 740 282 749 328 749 c 0
 399 749 456 730 499 691 c 0
 542 652 566 597 571 526 c 1
 491 526 l 1xee
 483 578 465 617 439 641 c 0
 413 665 376 677 326 677 c 0
 279 677 243 667 217 648 c 0
 191 629 178 600 178 564 c 0
 178 534 187 509 205 490 c 0
 223 471 251 454 290 440 c 2
 418 390 l 2
 472 370 512 342 539 308 c 0
 566 274 581 232 581 182 c 0
 581 121 561 74 520 41 c 0
 479 8 423 -9 349 -9 c 0xed
299 -112 m 1
 299 14 l 1
 300 36 l 1
 300 705 l 1
 299 728 l 1
 299 850 l 1
 363 850 l 1
 363 725 l 1
 363 703 l 1
 363 36 l 1
 363 18 l 1
 363 -112 l 1
 299 -112 l 1
EndSplineSet
Validated: 5
EndChar
StartChar: eight.tf
Encoding: 65633 -1 338
Width: 589
Flags: HW
HStem: -10 75<198 365> 337 67<223 342> 363 21<192 219 346 374> 644 75<206 359>
VStem: 48 92<122 280> 65 91<453 595> 409 90<453 595> 425 93<123 280>
LayerCount: 3
Fore
SplineSet
282 -10 m 256xb1
 234 -10 193 -1 157 16 c 0
 121 33 96 58 77 89 c 0
 58 120 48 155 48 193 c 0xb9
 48 229 56 260 71 289 c 0
 86 318 106 341 132 358 c 0
 158 375 187 383 219 383 c 1
 222 363 l 1
 192 363 165 371 141 385 c 0
 117 399 98 420 85 446 c 0
 72 472 65 500 65 531 c 0
 65 568 74 600 92 628 c 0
 110 656 136 680 169 695 c 0
 202 710 240 719 283 719 c 256
 326 719 365 710 397 695 c 0
 429 680 455 656 473 628 c 0
 491 600 499 569 499 532 c 0xb6
 499 500 492 473 479 447 c 0
 466 421 448 400 424 385 c 0
 400 370 373 363 342 363 c 1
 346 383 l 1
 378 383 406 375 432 358 c 0
 458 341 480 318 495 289 c 0
 510 260 518 229 518 193 c 0
 518 155 508 120 489 89 c 0
 470 58 443 33 407 16 c 0
 371 -1 330 -10 282 -10 c 256xb1
282 65 m 256
 325 65 360 78 386 103 c 0
 412 128 425 158 425 200 c 0
 425 242 411 275 386 300 c 0
 361 325 326 337 282 337 c 256xd9
 238 337 203 325 178 300 c 0
 153 275 140 242 140 200 c 0
 140 158 153 127 179 102 c 0
 205 77 239 65 282 65 c 256
282 405 m 0
 321 405 353 415 376 437 c 0
 399 459 409 488 409 525 c 0
 409 563 398 588 375 610 c 4
 352 632 320 644 282 644 c 260
 244 644 214 632 191 610 c 4
 168 588 156 563 156 525 c 0xd6
 156 488 167 459 190 437 c 0
 213 415 244 405 282 405 c 0
EndSplineSet
Validated: 5
Substitution2: "'pnum' Proportional Numbers in Latin lookup 18 subtable" eight
Substitution2: "'aalt' Access All Alternates in Latin lookup 0 subtable" eight
EndChar
StartChar: emdash.case
Encoding: 65661 -1 379
Width: 899
Flags: HW
HStem: 334 70<91 808>
LayerCount: 3
Fore
SplineSet
91 334 m 1
 91 403 l 1
 808 403 l 1
 808 334 l 1
 91 334 l 1
EndSplineSet
EndChar
StartChar: endash.case
Encoding: 65660 -1 378
Width: 599
Flags: HW
HStem: 334 70<88 511>
LayerCount: 3
Fore
SplineSet
88 334 m 1
 88 403 l 1
 511 403 l 1
 511 334 l 1
 88 334 l 1
EndSplineSet
EndChar
StartChar: equal.tf
Encoding: 65682 -1 451
Width: 589
Flags: HW
HStem: 234 65<80 511> 431 65<80 511>
LayerCount: 3
Fore
SplineSet
80 431 m 1
 80 496 l 1
 511 496 l 1
 511 431 l 1
 80 431 l 1
80 234 m 1
 80 299 l 1
 511 299 l 1
 511 234 l 1
 80 234 l 1
EndSplineSet
Validated: 1
Substitution2: "'pnum' Proportional Numbers in Latin lookup 18 subtable" equal
Substitution2: "'aalt' Access All Alternates in Latin lookup 0 subtable" equal
EndChar
StartChar: exclam.case
Encoding: 65639 -1 361
Width: 277
Flags: HW
HStem: 0 100<88 189> 689 19G<96 180>
VStem: 88 100<0 100> 96 84<415 708> 108 60<206 499>
LayerCount: 3
Fore
SplineSet
108 206 m 1xc8
 96 708 l 1
 180 708 l 1xd0
 168 206 l 1
 108 206 l 1xc8
88 0 m 1xe0
 88 100 l 1
 189 100 l 1
 189 0 l 1
 88 0 l 1xe0
EndSplineSet
Validated: 1
EndChar
StartChar: exclam.ss01
Encoding: 65650 -1 372
Width: 277
Flags: HW
HStem: -10 112<100 178>
VStem: 82 112<7 86> 96 84<424 728> 108 60<206 510>
LayerCount: 3
Fore
SplineSet
108 206 m 1x90
 96 728 l 1
 180 728 l 1xa0
 168 206 l 1
 108 206 l 1x90
139 -10 m 0
 124 -10 110 -5 99 6 c 0
 88 17 82 30 82 47 c 0
 82 62 88 75 99 86 c 0
 110 97 124 102 139 102 c 0
 154 102 166 97 178 86 c 0
 190 75 195 62 195 46 c 256xc0
 195 30 190 17 178 6 c 0
 166 -5 154 -10 139 -10 c 0
EndSplineSet
Validated: 1
EndChar
StartChar: exclamdown.case
Encoding: 65640 -1 354
Width: 295
Flags: HW
HStem: 0 22G<104 191> 503 20G<115 180> 634 103<96 201>
VStem: 96 104<634 737> 104 87<0 305> 116 62<217 523>
LayerCount: 3
Fore
SplineSet
104 0 m 1xe8
 116 523 l 1
 179 523 l 1xe4
 191 0 l 1
 104 0 l 1xe8
201 737 m 1xf0
 201 634 l 1
 96 634 l 1
 96 737 l 1
 201 737 l 1xf0
EndSplineSet
EndChar
StartChar: exclamdown.ss01
Encoding: 65651 -1 365
Width: 311
Flags: HW
HStem: 416 117<117 197>
VStem: 98 117<433 516> 113 87<-210 92> 125 62<6 308>
LayerCount: 3
Fore
SplineSet
113 -210 m 1xa0
 125 308 l 1
 187 308 l 1x90
 200 -210 l 1
 113 -210 l 1xa0
157 532 m 0
 173 532 186 527 197 516 c 0
 208 505 215 490 215 473 c 256
 215 456 208 443 197 432 c 0
 186 421 173 416 157 416 c 0
 142 416 128 421 116 432 c 0
 104 443 98 456 98 473 c 256xc0
 98 490 104 505 116 516 c 0
 128 527 142 532 157 532 c 0
EndSplineSet
EndChar
StartChar: f_f_i
Encoding: 65617 -1 310
Width: 900
GlyphClass: 3
LigCaretCntFixed: 1
Flags: HW
HStem: 0 21G<102 188 429 517 738 824> 436 66<11 806> 617 91<732 831> 651 61<273 316 600 645> 656 62<212 316 539 645>
VStem: 102 86<0 634> 429 87<0 634> 732 99<617 708> 738 86<0 436> 738 68<436 502>
LayerCount: 3
Fore
SplineSet
102 0 m 1xce
 102 578 l 2
 102 639 136 719 267 719 c 0xce
 280 719 289 717 297 716 c 0
 305 715 311 713 316 711 c 1
 316 651 l 1xd6
 311 652 305 653 297 654 c 0
 289 655 282 656 273 656 c 0
 244 656 221 648 208 634 c 0
 195 620 188 600 188 573 c 2
 188 0 l 1
 102 0 l 1xce
429 0 m 1
 429 578 l 2
 429 634 461 719 595 719 c 0xce
 608 719 617 717 625 716 c 0
 633 715 640 713 645 711 c 1
 645 651 l 1xd6
 640 652 633 653 625 654 c 0
 617 655 610 656 600 656 c 0
 571 656 550 648 537 634 c 0
 524 620 517 600 517 573 c 2
 517 0 l 1
 429 0 l 1
738 0 m 1xc680
 738 502 l 1xc640
 824 502 l 1
 824 0 l 1
 738 0 l 1xc680
11 436 m 1
 11 502 l 1
 806 502 l 1
 806 436 l 1
 11 436 l 1
732 617 m 1xe7
 732 708 l 1
 831 708 l 1
 831 617 l 1
 732 617 l 1xe7
EndSplineSet
Validated: 5
Substitution2: "'ss01' Style Set 1 in Latin lookup 22 subtable" f_f_i.ss01
Ligature2: "'liga' Standard Ligatures in Latin lookup 21 subtable" f f i
Substitution2: "'aalt' Access All Alternates in Latin lookup 0 subtable" f_f_i.ss01
LCarets2: 2 359 708
EndChar
StartChar: f_f_i.ss01
Encoding: 65622 -1 307
Width: 948
GlyphClass: 3
LigCaretCntFixed: 1
Flags: HW
HStem: 0 22G<135 215 453 533 773 853> 454 69<32 817> 622 114<775 853> 677 63<302 348 622 668> 683 65<237 348 555 667>
VStem: 135 80<0 660> 453 81<0 660> 758 112<638 719> 773 80<0 454> 773 44<454 522>
AnchorPoint: "Anchor-5" 169 0 baselig 0
AnchorPoint: "Anchor-4" 169 758 baselig 0
AnchorPoint: "Anchor-5" 475 0 baselig 1
AnchorPoint: "Anchor-4" 475 758 baselig 1
AnchorPoint: "Anchor-5" 781 0 baselig 2
AnchorPoint: "Anchor-4" 781 758 baselig 2
LayerCount: 3
Fore
SplineSet
453 0 m 1xce
 453 601 l 2
 453 647 467 683 494 709 c 0
 521 735 561 748 615 748 c 0xce
 629 748 640 746 648 745 c 0
 656 744 663 742 668 740 c 1
 668 677 l 1xd6
 663 678 656 680 648 681 c 0
 640 682 631 683 621 683 c 0
 591 683 568 675 554 660 c 0
 540 645 533 624 533 596 c 2
 533 0 l 1
 453 0 l 1xce
135 0 m 1
 135 601 l 2
 135 647 147 683 174 709 c 0
 201 735 242 748 297 748 c 0xce
 311 748 320 746 328 745 c 0
 336 744 343 742 348 740 c 1
 348 677 l 1xd6
 343 678 336 680 328 681 c 0
 320 682 311 683 302 683 c 0
 272 683 250 675 236 660 c 0
 222 645 215 624 215 596 c 2
 215 0 l 1
 135 0 l 1
32 454 m 1
 32 522 l 1
 817 522 l 1
 817 454 l 1xc640
 32 454 l 1
773 0 m 1xc680
 773 522 l 1xc640
 853 522 l 1
 853 0 l 1
 773 0 l 1xc680
813 622 m 256xe7
 797 622 785 627 774 638 c 0
 763 649 758 663 758 679 c 0
 758 696 763 710 774 720 c 0
 785 730 797 735 813 735 c 256
 829 735 842 730 853 720 c 0
 864 710 869 696 869 679 c 0
 869 663 864 649 853 638 c 0
 842 627 829 622 813 622 c 256xe7
EndSplineSet
LCarets2: 2 306 612
EndChar
StartChar: f_f_l
Encoding: 65618 -1 311
Width: 899
GlyphClass: 3
LigCaretCntFixed: 1
Flags: HW
HStem: 0 21G<111 198 430 517 738 824> 436 66<22 626> 647 62<219 326 540 763>
VStem: 111 86<0 624> 430 86<0 625> 738 86<0 647> 738 25<647 708>
LayerCount: 3
Fore
SplineSet
430 0 m 1xfa
 430 568 l 2
 430 637 469 708 599 708 c 2
 763 708 l 1
 763 647 l 1
 600 647 l 2
 571 647 550 639 537 625 c 0
 524 611 517 590 517 563 c 2
 517 0 l 1
 430 0 l 1xfa
111 0 m 1
 111 568 l 2
 111 634 150 708 277 708 c 0
 290 708 299 707 307 706 c 0
 315 705 321 703 326 701 c 1
 326 641 l 1
 321 642 315 644 307 645 c 0
 299 646 291 647 282 647 c 0
 253 647 231 639 218 625 c 0
 205 611 198 590 198 563 c 2
 198 0 l 1
 111 0 l 1
22 436 m 1
 22 502 l 1
 626 502 l 1
 626 436 l 1
 22 436 l 1
738 0 m 1xfc
 738 708 l 1xfa
 824 708 l 1
 824 0 l 1
 738 0 l 1xfc
EndSplineSet
Validated: 5
Ligature2: "'liga' Standard Ligatures in Latin lookup 21 subtable" f f l
LCarets2: 2 294 587
EndChar
StartChar: f_i
Encoding: 65619 -1 312
Width: 568
GlyphClass: 3
LigCaretCntFixed: 1
Flags: HW
HStem: 0 21G<111 198 410 497> 436 66<22 410> 617 91<405 502> 656 62<222 326>
VStem: 111 86<0 634> 410 86<0 436 617 708>
AnchorPoint: "Anchor-5" 148 0 baselig 0
AnchorPoint: "Anchor-4" 148 728 baselig 0
AnchorPoint: "Anchor-5" 433 0 baselig 1
AnchorPoint: "Anchor-4" 433 728 baselig 1
LayerCount: 3
Fore
SplineSet
405 617 m 1xec
 405 708 l 1
 502 708 l 1
 502 617 l 1
 405 617 l 1xec
111 0 m 1
 111 578 l 2
 111 639 146 719 277 719 c 0
 290 719 299 717 307 716 c 0
 315 715 321 713 326 711 c 1
 326 651 l 1
 321 652 315 653 307 654 c 0
 299 655 291 656 282 656 c 0xdc
 253 656 231 648 218 634 c 0
 205 620 198 600 198 573 c 2
 198 0 l 1
 111 0 l 1
22 436 m 1
 22 502 l 1
 410 502 l 1
 472 502 l 1
 497 502 l 1
 497 0 l 1
 410 0 l 1
 410 436 l 1
 22 436 l 1
EndSplineSet
Validated: 5
Substitution2: "'ss01' Style Set 1 in Latin lookup 22 subtable" f_i.ss01
Ligature2: "'liga' Standard Ligatures in Latin lookup 21 subtable" f i
Substitution2: "'aalt' Access All Alternates in Latin lookup 0 subtable" f_i.ss01
LCarets2: 1 284
EndChar
StartChar: f_i.ss01
Encoding: 65623 -1 308
Width: 633
GlyphClass: 3
LigCaretCntFixed: 1
Flags: HW
HStem: 0 22G<133 213 451 531> 454 69<30 496> 622 114<453 531> 683 65<235 346>
VStem: 133 80<0 660> 436 113<638 719> 451 81<0 454> 451 44<454 522>
AnchorPoint: "Anchor-5" 166 0 baselig 0
AnchorPoint: "Anchor-4" 166 758 baselig 0
AnchorPoint: "Anchor-5" 470 0 baselig 1
AnchorPoint: "Anchor-4" 470 758 baselig 1
LayerCount: 3
Fore
SplineSet
133 0 m 1xd8
 133 601 l 2
 133 647 145 683 172 709 c 0
 199 735 240 748 295 748 c 0
 309 748 318 746 326 745 c 0
 334 744 341 742 346 740 c 1
 346 677 l 1
 341 678 334 680 326 681 c 0
 318 682 309 683 300 683 c 0
 270 683 248 675 234 660 c 0
 220 645 213 624 213 596 c 2
 213 0 l 1
 133 0 l 1xd8
451 0 m 1xca
 451 522 l 1xc9
 531 522 l 1
 531 0 l 1
 451 0 l 1xca
492 622 m 0xea
 477 622 463 627 452 638 c 0
 441 649 436 663 436 679 c 0xec
 436 696 441 710 452 720 c 0
 463 730 477 735 492 735 c 0
 508 735 520 730 531 720 c 0xea
 542 710 549 696 549 679 c 0xec
 549 663 542 649 531 638 c 0
 520 627 508 622 492 622 c 0xea
30 454 m 1
 30 522 l 1
 496 522 l 1
 496 454 l 1xc9
 30 454 l 1
EndSplineSet
LCarets2: 1 304
EndChar
StartChar: f_l
Encoding: 65620 -1 313
Width: 587
GlyphClass: 3
LigCaretCntFixed: 1
Flags: HW
HStem: 0 21G<111 198 419 505> 436 66<22 309> 647 62<223 419>
VStem: 111 86<0 624> 419 86<0 647>
AnchorPoint: "Anchor-5" 150 0 baselig 0
AnchorPoint: "Anchor-4" 150 728 baselig 0
AnchorPoint: "Anchor-5" 439 0 baselig 1
AnchorPoint: "Anchor-4" 439 728 baselig 1
LayerCount: 3
Fore
SplineSet
22 436 m 1
 22 502 l 1
 309 502 l 1
 309 436 l 1
 22 436 l 1
111 0 m 1
 111 568 l 2
 111 640 154 708 280 708 c 2
 419 708 l 1
 459 708 l 1
 505 708 l 1
 505 0 l 1
 419 0 l 1
 419 647 l 1
 282 647 l 2
 253 647 231 639 218 625 c 0
 205 611 198 590 198 563 c 2
 198 0 l 1
 111 0 l 1
EndSplineSet
Validated: 5
Ligature2: "'liga' Standard Ligatures in Latin lookup 21 subtable" f l
LCarets2: 1 287
EndChar
StartChar: five.tf
Encoding: 65630 -1 327
Width: 600
Flags: HW
HStem: -10 73<214 367> 413 67<203 368> 666 72<202 488>
VStem: 44 97<139 203> 438 102<133 338>
LayerCount: 3
Fore
SplineSet
289 -10 m 0
 218 -10 162 10 120 49 c 0
 78 88 52 140 44 203 c 1
 142 203 l 1
 150 158 167 123 195 99 c 0
 223 75 246 62 286 62 c 0
 328 62 366 76 395 103 c 0
 424 130 438 174 438 234 c 256
 438 294 424 340 395 369 c 0
 366 398 329 413 283 413 c 0
 251 413 223 406 199 392 c 0
 175 378 160 362 152 344 c 1
 78 344 l 1
 111 737 l 1
 488 737 l 1
 488 666 l 1
 161 666 l 1
 202 694 l 1
 180 401 l 1
 147 407 l 1
 159 427 178 444 204 458 c 0
 230 472 261 479 300 479 c 0
 423 479 540 398 540 234 c 260
 540 182 511 -10 289 -10 c 0
EndSplineSet
Substitution2: "'pnum' Proportional Numbers in Latin lookup 18 subtable" five
Substitution2: "'aalt' Access All Alternates in Latin lookup 0 subtable" five
EndChar
StartChar: four.tf
Encoding: 65629 -1 334
Width: 589
Flags: HW
HStem: 0 21G<374 470> 154 79<127 374 376 555> 689 19G<364 470>
VStem: 376 93<0 206>
LayerCount: 3
Fore
SplineSet
374 0 m 1
 374 186 l 1
 376 206 l 1
 376 606 l 1
 409 606 l 1
 127 201 l 1
 91 233 l 1
 555 233 l 1
 555 154 l 5
 37 154 l 5
 37 222 l 1
 377 708 l 1
 470 708 l 1
 470 0 l 1
 374 0 l 1
EndSplineSet
Validated: 5
Substitution2: "'pnum' Proportional Numbers in Latin lookup 18 subtable" four
Substitution2: "'aalt' Access All Alternates in Latin lookup 0 subtable" four
EndChar
StartChar: greater.tf
Encoding: 65683 -1 443
Width: 616
Flags: HW
LayerCount: 3
Fore
SplineSet
89 177 m 1
 89 250 l 1
 471 392 l 1
 471 367 l 1
 89 500 l 1
 89 572 l 1
 539 419 l 1
 539 341 l 1
 89 177 l 1
EndSplineSet
Validated: 5
Substitution2: "'pnum' Proportional Numbers in Latin lookup 18 subtable" greater
Substitution2: "'aalt' Access All Alternates in Latin lookup 0 subtable" greater
EndChar
StartChar: http_liga
Encoding: 65694 -1 502
Width: 1869
Flags: HW
HStem: -11 68<1550 1695> 0 75<768 805 1148 1186> 444 68<236 380 1552 1691> 689 19G<82 169>
VStem: 82 86<0 708> 421 86<0 400> 661 91<91 135> 1042 91<91 135> 1387 87<145 357> 1764 90<139 364>
AnchorPoint: "Anchor-1" 300 767 basechar 0
AnchorPoint: "Anchor-0" 308 502 basechar 0
AnchorPoint: "Anchor-2" 308 0 basechar 0
LayerCount: 3
Fore
SplineSet
1182 0 m 3x7fc0
 1222 0 1278 0 1278 0 c 1
 1277 73 l 1
 1265 73 1231 74 1186 75 c 0
 1152 76 1134 108 1134 135 c 2
 1134 646 l 1
 1042 616 l 1
 1042 135 l 2
 1042 3 1168 0 1182 0 c 3x7fc0
1619 442 m 0
 1650 442 1764 433 1764 254 c 0
 1764 138 1716 58 1623 58 c 256xbfc0
 1580 58 1542 74 1516 109 c 0
 1490 143 1478 190 1478 251 c 0
 1478 312 1491 357 1517 391 c 0
 1543 425 1579 442 1619 442 c 0
801 0 m 3x7fc0
 841 0 976 0 976 0 c 5
 975 73 l 5
 963 73 850 74 805 75 c 0
 771 76 752 108 752 135 c 2
 752 646 l 1
 661 616 l 1
 661 135 l 2
 661 3 787 0 801 0 c 3x7fc0
82 0 m 1
 82 708 l 1
 169 708 l 1
 169 0 l 1
 82 0 l 1
421 0 m 1
 421 299 l 2
 421 399 386 444 310 444 c 3
 221 444 169 381 169 271 c 1
 151 388 l 1
 185 471 242 511 328 511 c 0
 443 511 508 446 508 327 c 2
 508 0 l 1
 421 0 l 1
1636 510 m 0
 1554 511 1506 473 1471 416 c 1
 1471 502 l 1
 509 502 l 1
 509 441 l 1
 1384 441 l 1
 1387 361 1387 330 1387 202 c 0
 1387 126 1387 18 1387 -155 c 1
 1475 -155 l 1
 1475 87 l 1
 1514 19 1571 -11 1645 -11 c 0xbfc0
 1687 -11 1720 -1 1752 20 c 0
 1784 41 1811 73 1829 112 c 0
 1846 149 1854 194 1854 242 c 0
 1854 299 1843 345 1825 385 c 0
 1807 423 1783 454 1748 477 c 0
 1717 497 1681 510 1636 510 c 0
EndSplineSet
Validated: 37
EndChar
StartChar: hyphen.case
Encoding: 65659 -1 377
Width: 502
Flags: HW
HStem: 331 77<81 422>
VStem: 81 340<331 408>
LayerCount: 3
Fore
SplineSet
81 331 m 1
 81 408 l 1
 422 408 l 1
 422 331 l 1
 81 331 l 1
EndSplineSet
EndChar
StartChar: hyphen_greater.liga
Encoding: 65636 -1 343
Width: 823
GlyphClass: 3
LigCaretCntFixed: 1
Flags: HW
HStem: 320 69<65 660>
LayerCount: 3
Fore
SplineSet
65 388 m 1
 693 388 l 1
 660 362 l 1
 346 679 l 1
 442 679 l 1
 764 355 l 1
 441 30 l 1
 345 30 l 1
 660 346 l 1
 693 320 l 1
 65 320 l 1
 65 388 l 1
EndSplineSet
Validated: 5
Ligature2: "'liga' Standard Ligatures in Latin lookup 21 subtable" hyphen greater
LCarets2: 1 406
EndChar
StartChar: k.ss04
Encoding: 65612 -1 305
Width: 520
GlyphClass: 2
Flags: HW
HStem: 0 21G<82 160 401 503> 482 19G<377 491> 689 19G<82 160>
VStem: 82 78<0 133 232 708> 150 11<133 232>
AnchorPoint: "Anchor-2" 281 0 basechar 0
AnchorPoint: "Anchor-0" 262 728 basechar 0
LayerCount: 3
Fore
SplineSet
82 0 m 1xf0
 82 708 l 1
 160 708 l 1
 160 0 l 1
 82 0 l 1xf0
150 232 m 1xe8
 396 502 l 1
 491 502 l 1
 282 273 l 1
 275 272 l 1
 145 133 l 1
 150 232 l 1xe8
301 299 m 1
 503 0 l 1
 414 0 l 1
 231 276 l 1
 301 299 l 1
EndSplineSet
Validated: 5
EndChar
StartChar: less.tf
Encoding: 65684 -1 444
Width: 600
Flags: HW
LayerCount: 3
Fore
SplineSet
483 583 m 1
 483 510 l 1
 111 368 l 1
 111 393 l 1
 483 260 l 1
 483 187 l 1
 62 341 l 1
 62 419 l 1
 483 583 l 1
EndSplineSet
Substitution2: "'pnum' Proportional Numbers in Latin lookup 18 subtable" less
Substitution2: "'aalt' Access All Alternates in Latin lookup 0 subtable" less
EndChar
StartChar: less_hyphen.liga
Encoding: 65674 -1 410
Width: 850
GlyphClass: 3
LigCaretCntFixed: 1
Flags: HW
HStem: 333 72<172 792>
LayerCount: 3
Fore
SplineSet
792 333 m 1
 139 333 l 1
 172 360 l 1
 500 31 l 1
 400 31 l 1
 65 369 l 1
 401 707 l 1
 501 707 l 1
 172 377 l 1
 139 404 l 1
 792 404 l 1
 792 333 l 1
EndSplineSet
Ligature2: "'liga' Standard Ligatures in Latin lookup 21 subtable" less hyphen
LCarets2: 1 423
EndChar
StartChar: minus.tf
Encoding: 65679 -1 439
Width: 600
Flags: HW
HStem: 345 68<77 526>
LayerCount: 3
Fore
SplineSet
77 345 m 1
 77 414 l 1
 526 414 l 1
 526 345 l 1
 77 345 l 1
EndSplineSet
Substitution2: "'pnum' Proportional Numbers in Latin lookup 18 subtable" minus
Substitution2: "'aalt' Access All Alternates in Latin lookup 0 subtable" minus
EndChar
StartChar: multiply.tf
Encoding: 65680 -1 449
Width: 589
Flags: HW
LayerCount: 3
Fore
SplineSet
461 171 m 1
 82 514 l 1
 128 560 l 1
 506 217 l 1
 461 171 l 1
128 171 m 1
 82 217 l 1
 461 560 l 1
 506 514 l 1
 128 171 l 1
EndSplineSet
Validated: 5
Substitution2: "'pnum' Proportional Numbers in Latin lookup 18 subtable" multiply
Substitution2: "'aalt' Access All Alternates in Latin lookup 0 subtable" multiply
EndChar
StartChar: nine.tf
Encoding: 65634 -1 339
Width: 589
Flags: HW
HStem: -10 70<209 356> 262 73<205 368> 644 75<207 363>
VStem: 54 96<392 583> 67 93<113 175> 430 108<277 536>
LayerCount: 3
Fore
SplineSet
287 719 m 4xf4
 368 719 430 688 473 627 c 4
 516 566 537 479 537 364 c 4
 537 284 526 216 506 160 c 4
 486 104 456 63 418 34 c 4
 380 5 333 -10 279 -10 c 4
 219 -10 87 7 67 175 c 5
 160 175 l 5xec
 164 150 175 61 281 60 c 4
 408 59 450 196 450 420 c 5
 473 412 l 5
 467 382 453 355 434 333 c 4
 415 311 391 294 362 282 c 4
 333 270 304 262 270 262 c 4
 227 262 188 273 156 292 c 4
 124 311 99 338 81 372 c 4
 63 406 54 446 54 492 c 4
 54 537 64 577 83 611 c 4
 102 645 130 672 165 690 c 4
 200 708 241 719 287 719 c 4xf4
284 644 m 4
 261 644 151 641 151 491 c 4xf4
 151 450 152 335 286 335 c 4
 306 335 430 336 430 483 c 4
 430 586 370 644 284 644 c 4
EndSplineSet
Validated: 37
Substitution2: "'pnum' Proportional Numbers in Latin lookup 18 subtable" nine
Substitution2: "'aalt' Access All Alternates in Latin lookup 0 subtable" nine
EndChar
StartChar: one.tf
Encoding: 65626 -1 323
Width: 600
Flags: HW
HStem: 0 78<113 306 400 556> 11 67<306 400> 717 20G<296 400>
VStem: 306 93<11 648>
LayerCount: 3
Fore
SplineSet
306 11 m 1x70
 306 654 l 1
 325 648 l 1
 121 520 l 1
 121 599 l 1
 326 737 l 1
 400 737 l 1
 400 11 l 1
 306 11 l 1x70
113 0 m 1xb0
 113 78 l 5
 556 78 l 5
 556 0 l 1
 113 0 l 1xb0
EndSplineSet
Substitution2: "'pnum' Proportional Numbers in Latin lookup 18 subtable" one
Substitution2: "'aalt' Access All Alternates in Latin lookup 0 subtable" one
EndChar
StartChar: parenleft.case
Encoding: 65662 -1 394
Width: 402
Flags: HW
VStem: 83 72<214 494>
LayerCount: 3
Fore
SplineSet
276 -39 m 1
 232 -1 195 41 167 84 c 0
 139 127 118 171 105 216 c 0
 92 261 83 309 83 355 c 256
 83 401 92 448 105 493 c 0
 118 538 139 583 168 626 c 0
 197 669 233 710 276 748 c 1
 350 748 l 1
 285 690 236 628 204 563 c 0
 172 498 155 428 155 355 c 0
 155 281 171 210 204 145 c 0
 237 80 287 19 350 -39 c 1
 276 -39 l 1
EndSplineSet
Validated: 1
EndChar
StartChar: parenright.case
Encoding: 65663 -1 395
Width: 402
Flags: HW
VStem: 248 72<218 494>
LayerCount: 3
Fore
SplineSet
128 748 m 1
 171 710 207 670 235 627 c 0
 263 584 285 539 299 493 c 0
 313 447 320 401 320 355 c 0
 320 309 313 262 299 217 c 0
 285 172 263 127 235 84 c 0
 207 41 171 -1 128 -39 c 1
 54 -39 l 1
 119 19 168 80 200 146 c 0
 232 212 248 282 248 355 c 0
 248 429 231 498 198 563 c 0
 165 628 117 690 54 748 c 1
 128 748 l 1
EndSplineSet
Validated: 1
EndChar
StartChar: percent.tf
Encoding: 65685 -1 445
Width: 600
Flags: HW
HStem: -10 56<401 479> 0 22G<39 125> 306 56<400 480> 375 56<122 200> 691 56<121 202> 717 20G<483 568>
VStem: 27 70<460 663> 227 71<461 663> 305 71<75 279> 505 71<76 278>
LayerCount: 3
Fore
SplineSet
39 0 m 1x77c0
 496 737 l 1
 568 737 l 1
 112 0 l 1
 39 0 l 1x77c0
439 -10 m 0xb3c0
 416 -10 394 -4 374 10 c 0
 354 24 336 45 324 73 c 0
 312 101 305 135 305 177 c 256
 305 219 312 254 324 281 c 0
 336 308 354 328 374 342 c 0
 394 356 416 362 439 362 c 0
 464 362 487 356 508 342 c 0
 529 328 545 308 557 281 c 0
 569 254 576 219 576 177 c 256
 576 135 569 101 557 73 c 0
 545 45 528 24 507 10 c 0
 486 -4 463 -10 439 -10 c 0xb3c0
439 46 m 256
 456 46 473 57 485 77 c 0
 497 97 505 131 505 178 c 0
 505 224 498 256 486 276 c 0
 474 296 457 306 439 306 c 0
 422 306 407 296 395 277 c 0
 383 258 376 224 376 178 c 0
 376 131 383 97 395 77 c 0
 407 57 422 46 439 46 c 256
161 375 m 256
 138 375 115 381 95 395 c 0
 75 409 58 430 46 458 c 0
 34 486 27 520 27 562 c 256
 27 604 34 639 46 666 c 0
 58 693 75 713 95 727 c 0
 115 741 138 748 161 748 c 0x3bc0
 185 748 207 741 228 727 c 0
 249 713 266 693 278 666 c 0
 290 639 297 604 297 562 c 0
 297 520 290 485 278 457 c 0
 266 429 248 409 227 395 c 0
 206 381 184 375 161 375 c 256
161 431 m 256
 178 431 194 442 206 462 c 0
 218 482 227 516 227 563 c 0
 227 609 218 642 206 662 c 0
 194 682 179 691 161 691 c 0
 144 691 128 681 116 662 c 0
 104 643 97 609 97 563 c 0
 97 516 104 482 116 462 c 0
 128 442 144 431 161 431 c 256
EndSplineSet
Substitution2: "'pnum' Proportional Numbers in Latin lookup 18 subtable" percent
Substitution2: "'aalt' Access All Alternates in Latin lookup 0 subtable" percent
EndChar
StartChar: period.ss01
Encoding: 65645 -1 359
Width: 275
Flags: HW
HStem: -10 117<97 179>
VStem: 80 117<7 89>
LayerCount: 3
Fore
SplineSet
138 -10 m 0
 122 -10 108 -5 97 6 c 0
 86 17 80 31 80 49 c 0
 80 65 86 78 97 89 c 0
 108 100 122 106 138 106 c 0
 154 106 167 100 179 89 c 0
 191 78 197 65 197 48 c 256
 197 31 191 17 179 6 c 0
 167 -5 154 -10 138 -10 c 0
EndSplineSet
EndChar
StartChar: perthousand.tf
Encoding: 65686 -1 446
Width: 616
Flags: HW
HStem: -10 55<234 308 417 492> 264 54<234 309 417 493> 417 55<126 200> 692 55<125 201>
VStem: 45 59<492 667> 154 59<66 244> 223 59<495 670> 331 66<123 188> 338 51<103 207> 514 59<68 244>
LayerCount: 3
Fore
SplineSet
68 289 m 1xfe40
 48 349 l 1
 540 503 l 1
 559 442 l 1
 68 289 l 1xfe40
270 -10 m 256
 239 -10 212 4 188 33 c 0
 164 62 154 102 154 155 c 256
 154 208 165 248 188 276 c 0
 211 304 238 318 270 318 c 0
 303 318 332 304 355 276 c 0
 378 248 389 208 389 155 c 0xfec0
 389 103 378 62 354 33 c 0
 330 4 301 -10 270 -10 c 256
270 45 m 0
 287 45 303 56 314 76 c 0
 325 96 331 123 331 156 c 0xff40
 331 188 325 214 314 234 c 0
 303 254 288 264 270 264 c 256
 252 264 240 254 229 234 c 0
 218 214 213 188 213 156 c 0
 213 123 218 96 229 76 c 0
 240 56 252 45 270 45 c 0
455 -10 m 0
 424 -10 395 5 372 34 c 0
 349 63 338 104 338 155 c 0xfec0
 338 207 348 246 371 275 c 0
 394 304 423 318 455 318 c 0
 488 318 516 304 539 276 c 0
 562 248 573 208 573 155 c 0
 573 102 562 62 538 33 c 0
 514 4 487 -10 455 -10 c 0
455 45 m 0
 472 45 485 56 496 76 c 0
 507 96 514 123 514 156 c 0
 514 188 508 214 497 234 c 0
 486 254 473 264 455 264 c 256
 437 264 423 254 412 234 c 0
 401 214 395 188 395 156 c 0xff40
 395 123 401 96 412 76 c 0
 423 56 437 45 455 45 c 0
163 417 m 0
 131 417 104 431 80 460 c 0
 56 489 45 530 45 583 c 256
 45 636 57 676 80 705 c 0
 103 734 130 748 163 748 c 256
 196 748 225 733 248 705 c 0
 271 677 283 636 283 583 c 0
 283 530 271 489 247 460 c 0
 223 431 194 417 163 417 c 0
163 472 m 0
 179 472 194 483 206 503 c 0
 218 523 223 551 223 584 c 0
 223 617 217 643 206 663 c 0
 195 683 180 692 163 692 c 0
 145 692 131 683 120 663 c 0
 109 643 105 617 105 584 c 0
 105 551 109 523 120 503 c 0
 131 483 145 472 163 472 c 0
EndSplineSet
Substitution2: "'pnum' Proportional Numbers in Latin lookup 18 subtable" perthousand
Substitution2: "'aalt' Access All Alternates in Latin lookup 0 subtable" perthousand
EndChar
StartChar: plus.tf
Encoding: 65678 -1 447
Width: 589
Flags: HW
HStem: 332 65<80 511>
VStem: 262 67<151 580>
LayerCount: 3
Fore
SplineSet
262 151 m 1
 262 580 l 1
 328 580 l 1
 328 151 l 1
 262 151 l 1
80 332 m 1
 80 398 l 1
 511 398 l 1
 511 332 l 1
 80 332 l 1
EndSplineSet
Validated: 5
Substitution2: "'pnum' Proportional Numbers in Latin lookup 18 subtable" plus
Substitution2: "'aalt' Access All Alternates in Latin lookup 0 subtable" plus
EndChar
StartChar: question.case
Encoding: 65641 -1 355
Width: 579
Flags: HW
HStem: 0 104<245 348> 526 22G<55 139> 675 73<215 409>
VStem: 55 81<526 596> 245 103<0 104> 260 76<214 310> 459 80<494 629>
LayerCount: 3
Fore
SplineSet
260 214 m 1xf6
 260 253 264 283 273 309 c 0
 282 335 296 356 311 374 c 0
 326 392 342 407 359 421 c 0
 376 435 392 449 407 461 c 0
 422 473 434 490 444 506 c 0
 454 522 459 542 459 566 c 0
 459 597 447 623 422 644 c 0
 397 665 360 675 310 675 c 0
 261 675 221 662 191 636 c 0
 161 610 142 573 136 526 c 1
 55 526 l 1
 59 571 71 611 94 644 c 0
 117 677 146 702 185 720 c 0
 224 738 265 748 313 748 c 256
 361 748 402 739 435 724 c 0
 468 709 494 687 512 660 c 0
 530 633 539 601 539 565 c 0
 539 534 534 508 524 487 c 0
 514 466 502 448 487 433 c 0
 472 418 455 403 437 391 c 0
 419 379 403 364 388 349 c 0
 373 334 359 317 349 295 c 0
 339 273 336 246 336 214 c 1
 260 214 l 1xf6
245 0 m 1xfa
 245 104 l 1
 348 104 l 1
 348 0 l 1
 245 0 l 1xfa
EndSplineSet
EndChar
StartChar: question.ss01
Encoding: 65652 -1 374
Width: 547
Flags: HW
HStem: -10 112<241 319> 668 70<202 384>
VStem: 48 78<526 592> 225 112<7 86> 245 73<206 303> 436 77<484 620>
LayerCount: 3
Fore
SplineSet
245 206 m 1xec
 245 243 249 275 258 301 c 0
 267 327 280 349 294 366 c 0
 308 383 324 400 340 413 c 0
 356 426 372 440 386 453 c 0
 400 466 412 481 422 496 c 0
 432 511 436 531 436 554 c 0
 436 588 423 616 398 637 c 0
 373 658 337 668 293 668 c 0
 246 668 208 655 179 630 c 0
 150 605 132 571 126 526 c 1
 48 526 l 1
 52 569 64 606 86 638 c 0
 108 670 136 695 173 712 c 0
 210 729 250 738 296 738 c 0
 340 738 378 730 410 715 c 0
 442 700 467 680 485 652 c 0
 503 624 513 591 513 553 c 0
 513 523 509 498 499 478 c 0
 489 458 477 440 463 426 c 0
 449 412 432 396 415 384 c 0
 398 372 382 357 368 342 c 0
 354 327 341 309 331 287 c 0
 321 265 318 239 318 206 c 1
 245 206 l 1xec
281 -10 m 0
 265 -10 251 -5 240 6 c 0
 229 17 225 30 225 47 c 0
 225 62 229 75 240 86 c 0
 251 97 265 102 281 102 c 0
 295 102 308 97 320 86 c 0
 332 75 336 62 336 47 c 0xf4
 336 30 332 17 320 6 c 0
 308 -5 295 -10 281 -10 c 0
EndSplineSet
Validated: 1
EndChar
StartChar: questiondown.case
Encoding: 65642 -1 356
Width: 579
Flags: HW
HStem: -10 73<178 368> 503 20G<245 321> 634 103<231 336>
VStem: 41 81<111 256> 231 104<634 737> 245 76<433 523> 445 80<134 194>
LayerCount: 3
Fore
SplineSet
267 -10 m 0xf6
 224 -10 186 -3 152 11 c 0
 118 25 92 47 72 75 c 0
 52 103 41 138 41 178 c 0
 41 209 47 236 57 257 c 0
 67 278 79 296 94 311 c 0
 109 326 126 341 143 353 c 0
 160 365 177 379 192 394 c 0
 207 409 221 426 231 446 c 0
 241 466 245 492 245 523 c 1
 321 523 l 1
 321 487 317 457 307 433 c 0
 297 409 284 389 269 372 c 0
 254 355 238 338 221 326 c 0
 204 314 189 299 174 287 c 0
 159 275 146 259 137 242 c 0
 128 225 123 204 123 179 c 0
 123 140 137 113 165 93 c 0
 193 73 227 62 269 62 c 0
 314 62 355 73 387 96 c 0
 419 119 438 152 445 194 c 1
 524 194 l 1
 520 152 508 116 484 85 c 0
 460 54 430 30 393 14 c 0
 356 -2 313 -10 267 -10 c 0xf6
336 737 m 1xfa
 336 634 l 1
 231 634 l 1
 231 737 l 1
 336 737 l 1xfa
EndSplineSet
EndChar
StartChar: questiondown.ss01
Encoding: 65653 -1 375
Width: 547
Flags: HW
HStem: -211 70<165 349> 400 112<229 307>
VStem: 35 78<-96 39> 211 112<416 496> 231 73<209 296> 423 77<-72 -15>
LayerCount: 3
Fore
SplineSet
252 -211 m 0xec
 211 -211 174 -204 141 -191 c 0
 108 -178 83 -157 64 -131 c 0
 45 -105 35 -73 35 -36 c 0
 35 -6 40 19 50 39 c 0
 60 59 72 78 86 92 c 0
 100 106 117 121 133 133 c 0
 149 145 166 158 180 172 c 0
 194 186 207 203 217 222 c 0
 227 241 231 266 231 296 c 1
 304 296 l 1
 304 261 300 232 290 209 c 0
 280 186 268 166 254 150 c 0
 240 134 224 119 208 107 c 0
 192 95 176 81 162 69 c 0
 148 57 136 42 127 26 c 0
 118 10 113 -11 113 -35 c 0
 113 -69 127 -94 154 -113 c 0
 181 -132 214 -141 254 -141 c 0
 297 -141 336 -132 367 -110 c 0
 398 -88 416 -55 423 -15 c 1
 499 -15 l 1
 495 -55 483 -91 460 -120 c 0
 437 -149 409 -173 373 -188 c 0
 337 -203 296 -211 252 -211 c 0xec
268 511 m 0
 283 511 296 507 307 496 c 0
 318 485 324 471 324 455 c 256
 324 439 318 426 307 415 c 0
 296 404 283 400 268 400 c 0
 254 400 241 404 229 415 c 0
 217 426 211 439 211 455 c 256xf4
 211 471 217 485 229 496 c 0
 241 507 254 511 268 511 c 0
EndSplineSet
Validated: 1
EndChar
StartChar: quoteleft.ss01
Encoding: 65672 -1 408
Width: 290
Flags: HW
HStem: 506 114<112 192>
VStem: 89 121<526 603>
LayerCount: 3
Fore
SplineSet
152 506 m 0
 135 506 119 512 107 524 c 0
 95 536 89 560 89 591 c 0
 89 635 98 670 118 699 c 0
 138 728 166 748 205 758 c 1
 205 717 l 1
 182 710 166 698 154 682 c 0
 142 666 136 642 136 609 c 1
 112 606 l 1
 117 609 122 612 128 615 c 0
 134 618 139 620 146 620 c 0
 164 620 180 615 192 604 c 0
 204 593 210 579 210 563 c 0
 210 546 204 533 193 522 c 0
 182 511 168 506 152 506 c 0
EndSplineSet
EndChar
StartChar: quoteright.ss01
Encoding: 65673 -1 409
Width: 275
Flags: HW
HStem: 524 41<81 126> 654 114<93 174>
VStem: 81 116<671 748>
LayerCount: 3
Fore
SplineSet
81 524 m 1
 81 566 l 1
 104 569 120 578 132 593 c 0
 144 608 150 632 150 665 c 1
 174 668 l 1
 169 665 164 661 158 658 c 0
 152 655 145 654 138 654 c 0
 120 654 104 659 93 670 c 0
 82 681 77 695 77 711 c 0
 77 728 81 741 92 752 c 0
 103 763 118 768 134 768 c 0
 151 768 166 761 178 749 c 0
 190 737 197 714 197 683 c 0
 197 639 186 603 166 575 c 0
 146 547 120 529 81 524 c 1
EndSplineSet
EndChar
StartChar: seven.tf
Encoding: 65632 -1 337
Width: 589
Flags: HW
HStem: 0 21G<152 259> 634 74<71 408>
LayerCount: 3
Fore
SplineSet
152 0 m 1
 152 0 151 0 408 668 c 1
 430 634 l 5
 71 634 l 5
 71 708 l 1
 490 708 l 1
 490 652 l 1
 252 0 l 1
 152 0 l 1
EndSplineSet
Validated: 37
Substitution2: "'pnum' Proportional Numbers in Latin lookup 18 subtable" seven
Substitution2: "'aalt' Access All Alternates in Latin lookup 0 subtable" seven
EndChar
StartChar: six.tf
Encoding: 65631 -1 328
Width: 600
Flags: HW
HStem: -10 78<232 393> 388 76<226 396> 675 73<238 390>
VStem: 50 112<179 449> 443 97<555 620> 453 100<130 330>
LayerCount: 3
Fore
SplineSet
310 -10 m 4xf4
 226 -10 163 21 118 84 c 4
 73 147 50 238 50 358 c 4
 50 441 60 512 81 570 c 4
 102 628 134 672 174 702 c 4
 214 732 263 748 319 748 c 4
 381 748 518 730 539 555 c 5
 443 555 l 5xf8
 439 581 427 674 317 675 c 4
 185 676 141 533 141 300 c 5
 118 308 l 5
 124 339 136 367 156 390 c 4
 176 413 202 432 232 444 c 4
 262 456 294 464 329 464 c 4
 374 464 414 454 447 434 c 4
 480 414 506 385 525 350 c 4
 544 315 553 273 553 225 c 4
 553 178 543 136 523 101 c 4
 503 66 473 38 437 19 c 4
 401 0 358 -10 310 -10 c 4xf4
313 68 m 4
 337 68 453 70 453 226 c 4xf4
 453 269 450 388 311 388 c 4
 290 388 162 387 162 234 c 4
 162 127 224 68 313 68 c 4
EndSplineSet
Substitution2: "'pnum' Proportional Numbers in Latin lookup 18 subtable" six
Substitution2: "'aalt' Access All Alternates in Latin lookup 0 subtable" six
EndChar
StartChar: three.tf
Encoding: 65628 -1 325
Width: 600
Flags: HW
HStem: -10 78<217 380> 351 70<208 322> 378 22<331 436> 534 22G<50 149> 670 78<203 374>
VStem: 40 96<152 222> 50 96<534 612> 421 98<471 623> 436 99<120 288>
LayerCount: 3
Fore
SplineSet
292 -10 m 0xb880
 244 -10 203 -1 167 17 c 0
 131 35 101 61 79 96 c 0
 57 131 45 173 40 222 c 1
 136 222 l 1
 143 162 184 72 293 68 c 4
 381 65 436 114 436 201 c 0xbc80
 436 245 424 281 399 309 c 0
 374 337 339 351 297 351 c 2
 208 351 l 1
 208 421 l 1
 294 421 l 2
 373 421 421 472 421 549 c 0
 421 580 411 670 289 670 c 256
 161 670 152 577 147 534 c 1
 50 534 l 1
 53 578 66 615 87 647 c 0
 108 679 136 703 171 721 c 0
 206 739 247 748 291 748 c 0
 415 748 518 678 518 555 c 0xdb
 518 452 437 378 331 378 c 1
 325 399 l 1
 447 399 536 317 536 198 c 0
 536 80 437 -10 292 -10 c 0xb880
EndSplineSet
Substitution2: "'pnum' Proportional Numbers in Latin lookup 18 subtable" three
Substitution2: "'aalt' Access All Alternates in Latin lookup 0 subtable" three
EndChar
StartChar: two.ss10
Encoding: 65624 -1 329
Width: 530
Flags: HW
HStem: 0 70<125 497> 504 21G<39 125> 649 70<193 351>
VStem: 39 83<504 574> 401 86<449 600>
LayerCount: 3
Fore
SplineSet
46 0 m 1
 46 50 l 2
 46 91 55 128 72 160 c 0
 89 192 110 218 137 243 c 0
 164 268 194 291 224 312 c 0
 254 333 282 354 309 375 c 0
 336 396 360 419 376 443 c 0
 392 467 401 495 401 525 c 0
 401 563 389 594 365 616 c 0
 341 638 311 649 273 649 c 0
 233 649 198 636 171 610 c 0
 144 584 127 549 122 504 c 1
 39 504 l 1
 46 570 71 623 113 661 c 0
 155 699 211 719 278 719 c 0
 341 719 391 701 429 667 c 0
 467 633 486 586 486 525 c 0
 486 491 479 459 466 432 c 0
 453 405 434 380 412 358 c 0
 390 336 365 316 339 298 c 0
 313 280 286 260 260 242 c 0
 234 224 211 204 190 185 c 0
 169 166 152 144 140 121 c 0
 128 98 123 72 125 43 c 1
 109 70 l 1
 497 70 l 1
 497 0 l 1
 46 0 l 1
EndSplineSet
Validated: 37
EndChar
StartChar: two.tf
Encoding: 65627 -1 324
Width: 600
Flags: HW
HStem: 0 83<143 511> 524 22G<35 148> 675 73<198 360>
VStem: 35 108<524 611> 411 101<447 622>
LayerCount: 3
Fore
SplineSet
42 0 m 1
 42 71 l 1
 112 132 171 185 218 231 c 0
 265 277 303 318 332 355 c 0
 361 392 381 425 393 455 c 0
 405 485 411 514 411 543 c 0
 411 585 400 617 376 640 c 0
 352 663 319 675 276 675 c 0
 187 675 154 621 143 524 c 1
 35 524 l 1
 41 591 65 645 108 686 c 0
 151 727 210 748 282 748 c 0
 324 748 513 735 513 544 c 0
 513 410 428 288 143 44 c 1
 107 83 l 5
 511 83 l 5
 511 0 l 1
 42 0 l 1
EndSplineSet
Substitution2: "'ss10' Style Set 10 in Latin lookup 31 subtable" two.tf.ss10
Substitution2: "'pnum' Proportional Numbers in Latin lookup 18 subtable" two
AlternateSubs2: "'aalt' Access All Alternates in Latin lookup 1 subtable" two two.tf.ss10
EndChar
StartChar: two.tf.ss10
Encoding: 65635 -1 340
Width: 589
Flags: HW
HStem: 0 70<164 517> 504 21G<77 163> 649 70<226 370>
VStem: 77 85<504 577> 417 87<447 602>
LayerCount: 3
Fore
SplineSet
83 0 m 1
 83 50 l 2
 83 91 91 128 107 160 c 0
 123 192 145 218 170 243 c 0
 195 268 222 291 251 312 c 0
 280 333 306 354 331 375 c 0
 356 396 377 419 393 443 c 0
 409 467 417 495 417 525 c 0
 417 563 406 594 384 616 c 0
 362 638 334 649 300 649 c 0
 262 649 230 635 205 609 c 0
 180 583 166 548 161 504 c 1
 77 504 l 1
 82 569 106 621 146 660 c 0
 186 699 239 719 304 719 c 0
 365 719 413 701 450 667 c 0
 487 633 504 586 504 525 c 0
 504 491 497 459 485 432 c 0
 473 405 456 380 435 358 c 0
 414 336 391 316 366 298 c 0
 341 280 317 260 292 242 c 0
 267 224 245 204 225 185 c 0
 205 166 190 144 178 121 c 0
 166 98 162 72 164 43 c 1
 149 70 l 1
 517 70 l 1
 517 0 l 1
 83 0 l 1
EndSplineSet
Validated: 37
EndChar
StartChar: uni0307.ss01
Encoding: 65689 -1 474
Width: 0
GlyphClass: 4
Flags: HW
HStem: 622 114<78 156>
VStem: 62 113<638 719>
AnchorPoint: "Anchor-7" 118 735 basemark 0
AnchorPoint: "Anchor-7" 118 522 mark 0
AnchorPoint: "Anchor-4" 118 522 mark 0
AnchorPoint: "Anchor-0" 118 522 mark 0
LayerCount: 3
Fore
SplineSet
118 622 m 0
 103 622 89 627 78 638 c 0
 67 649 62 663 62 679 c 0
 62 696 67 710 78 720 c 0
 89 730 103 735 118 735 c 0
 134 735 146 730 157 720 c 0
 168 710 174 696 174 679 c 0
 174 663 168 649 157 638 c 0
 146 627 134 622 118 622 c 0
EndSplineSet
EndChar
StartChar: uni0308.ss01
Encoding: 65688 -1 482
Width: 11
GlyphClass: 4
Flags: HW
HStem: 598 110<81 156 303 378>
VStem: 65 109<613 691> 286 109<613 691>
AnchorPoint: "Anchor-7" 230 706 basemark 0
AnchorPoint: "Anchor-7" 230 502 mark 0
AnchorPoint: "Anchor-4" 230 502 mark 0
AnchorPoint: "Anchor-0" 230 502 mark 0
LayerCount: 3
Fore
SplineSet
119 598 m 0
 105 598 92 602 81 613 c 0
 70 624 65 637 65 652 c 0
 65 668 70 682 81 692 c 0
 92 702 105 706 119 706 c 0
 134 706 146 702 157 692 c 0
 168 682 173 668 173 652 c 0
 173 637 168 624 157 613 c 0
 146 602 134 598 119 598 c 0
340 598 m 0
 326 598 314 602 303 613 c 0
 292 624 286 637 286 652 c 0
 286 668 292 682 303 692 c 0
 314 702 326 706 340 706 c 0
 355 706 367 702 378 692 c 0
 389 682 395 668 395 652 c 0
 395 637 389 624 378 613 c 0
 367 602 355 598 340 598 c 0
EndSplineSet
Validated: 1
EndChar
StartChar: uni030C.alt
Encoding: 65687 -1 462
Width: 0
GlyphClass: 4
Flags: HW
HStem: 515 222<62 112>
VStem: 62 77<677 737> 62 50<515 575>
AnchorPoint: "Anchor-1" 62 737 mark 0
LayerCount: 3
Fore
SplineSet
112 515 m 1xa0
 62 515 l 1xa0
 62 737 l 1
 139 737 l 1xc0
 112 515 l 1xa0
EndSplineSet
EndChar
StartChar: uni0312.ss01
Encoding: 65690 -1 475
Width: 0
GlyphClass: 4
Flags: HW
HStem: 590 114<85 161>
VStem: 62 117<610 687>
AnchorPoint: "Anchor-7" 120 821 basemark 0
AnchorPoint: "Anchor-7" 120 522 mark 0
AnchorPoint: "Anchor-4" 120 522 mark 0
AnchorPoint: "Anchor-0" 120 522 mark 0
LayerCount: 3
Fore
SplineSet
122 590 m 0
 106 590 91 597 79 609 c 0
 67 621 62 644 62 675 c 0
 62 698 66 718 75 737 c 0
 84 756 95 773 110 788 c 0
 125 803 144 813 167 821 c 1
 167 780 l 1
 149 772 135 762 124 748 c 0
 113 734 107 715 107 693 c 1
 83 690 l 1
 88 693 94 696 100 699 c 0
 106 702 112 703 119 703 c 0
 136 703 151 699 162 688 c 0
 173 677 178 663 178 647 c 256
 178 631 173 617 162 606 c 0
 151 595 138 590 122 590 c 0
EndSplineSet
EndChar
StartChar: uni0326.ss01
Encoding: 65691 -1 476
Width: 0
GlyphClass: 4
Flags: HW
HStem: -182 114<78 155>
VStem: 62 117<-167 -89>
AnchorPoint: "Anchor-6" 120 -300 basemark 0
AnchorPoint: "Anchor-6" 120 0 mark 0
AnchorPoint: "Anchor-5" 120 0 mark 0
AnchorPoint: "Anchor-2" 120 0 mark 0
LayerCount: 3
Fore
SplineSet
73 -300 m 1
 73 -259 l 1
 91 -251 104 -240 115 -226 c 0
 126 -212 130 -194 130 -172 c 1
 155 -169 l 1
 150 -172 146 -175 140 -178 c 0
 134 -181 127 -182 120 -182 c 0
 104 -182 89 -178 78 -167 c 0
 67 -156 62 -142 62 -126 c 0
 62 -109 67 -95 78 -84 c 0
 89 -73 103 -69 117 -69 c 0
 134 -69 149 -76 161 -88 c 0
 173 -100 178 -123 178 -154 c 0
 178 -175 174 -195 166 -215 c 0
 158 -235 145 -252 129 -267 c 0
 113 -282 95 -292 73 -300 c 1
EndSplineSet
EndChar
StartChar: w_w_w.liga
Encoding: 65621 -1 314
Width: 2016
GlyphClass: 3
LigCaretCntFixed: 1
Flags: HW
HStem: 0 21G<178 252 486 569 813 887 1120 1205 1448 1523 1756 1840> 482 19G<33 137 328 412 646 749 964 1047 1282 1385 1600 1683 1895 1984>
AnchorPoint: "Anchor-0" 374 502 basechar 0
AnchorPoint: "Anchor-2" 374 0 basechar 0
AnchorPoint: "Anchor-5" 340 0 baselig 0
AnchorPoint: "Anchor-4" 340 502 baselig 0
AnchorPoint: "Anchor-5" 1009 0 baselig 1
AnchorPoint: "Anchor-4" 1009 502 baselig 1
AnchorPoint: "Anchor-5" 1678 0 baselig 2
AnchorPoint: "Anchor-4" 1678 502 baselig 2
LayerCount: 3
Back
SplineSet
174.087890625 0 m 5
 35.3447265625 501.83984375 l 5
 131.776367188 501.83984375 l 5
 236.080078125 74.7841796875 l 5
 213.448242188 74.7841796875 l 5
 340.383789062 501.83984375 l 5
 440.751953125 501.83984375 l 5
 559.81640625 74.7841796875 l 5
 537.18359375 74.7841796875 l 5
 545.841796875 217.135742188 599.3828125 359.487304688 650.344726562 501.83984375 c 5
 735.952148438 501.83984375 l 5
 604.096679688 0 l 5
 517.50390625 0 l 5
 379.744140625 453.624023438 l 5
 400.407226562 453.624023438 l 5
 260.680664062 0 l 5
 174.087890625 0 l 5
EndSplineSet
Fore
SplineSet
184 0 m 1
 33 502 l 1
 131 502 l 1
 246 75 l 1
 198 75 l 1
 334 502 l 1
 405 502 l 1
 544 75 l 1
 516 75 l 1
 652 502 l 1
 743 502 l 1
 881 75 l 1
 832 75 l 1
 970 502 l 1
 1041 502 l 1
 1179 75 l 1
 1150 75 l 1
 1288 502 l 1
 1379 502 l 1
 1517 75 l 1
 1468 75 l 1
 1606 502 l 1
 1677 502 l 1
 1815 75 l 1
 1786 75 l 1
 1900 502 l 1
 1984 502 l 1
 1834 0 l 1
 1762 0 l 1
 1626 438 l 1
 1655 438 l 1
 1516 0 l 1
 1455 0 l 1
 1317 438 l 1
 1337 438 l 1
 1198 0 l 1
 1127 0 l 1
 990 438 l 1
 1019 438 l 1
 881 0 l 1
 819 0 l 1
 681 438 l 1
 702 438 l 1
 563 0 l 1
 492 0 l 1
 354 438 l 1
 385 438 l 1
 245 0 l 1
 184 0 l 1
EndSplineSet
Validated: 5
Ligature2: "'liga' Standard Ligatures in Latin lookup 21 subtable" w w w
LCarets2: 2 669 1338
EndChar
StartChar: zero.tf
Encoding: 65625 -1 322
Width: 600
Flags: HW
HStem: -10 73<225 376> 675 73<224 379>
VStem: 35 92<205 537> 474 93<205 537>
LayerCount: 3
Fore
SplineSet
301 -10 m 256
 248 -10 202 7 162 39 c 0
 122 71 90 115 68 172 c 0
 46 229 35 296 35 372 c 256
 35 448 46 514 68 570 c 0
 90 626 122 670 162 701 c 0
 202 732 248 748 301 748 c 0
 354 748 400 732 440 701 c 0
 480 670 511 626 534 570 c 0
 557 514 567 448 567 372 c 256
 567 296 557 230 534 172 c 0
 511 114 479 69 439 37 c 0
 399 5 354 -10 301 -10 c 256
301 62 m 0
 337 62 369 74 395 99 c 0
 421 124 440 160 454 206 c 0
 468 252 474 308 474 373 c 256
 474 438 466 492 454 537 c 0
 442 582 422 615 396 639 c 0
 370 663 338 675 301 675 c 256
 264 675 232 663 206 640 c 0
 180 617 162 583 148 538 c 0
 134 493 127 438 127 373 c 0
 127 307 134 251 148 205 c 0
 162 159 181 123 207 99 c 0
 233 75 264 62 301 62 c 0
EndSplineSet
Substitution2: "'pnum' Proportional Numbers in Latin lookup 18 subtable" zero
Substitution2: "'aalt' Access All Alternates in Latin lookup 0 subtable" zero
EndChar
